<svg width="393" height="276" viewBox="0 0 393 276" fill="none" xmlns="http://www.w3.org/2000/svg">
<path d="M482.67 0H-93.33V288H482.67V0Z" fill="url(#paint0_radial_436_2883)"/>
<mask id="mask0_436_2883" style="mask-type:luminance" maskUnits="userSpaceOnUse" x="-94" y="0" width="577" height="288">
<path d="M482.67 0H-93.33V288H482.67V0Z" fill="white"/>
</mask>
<g mask="url(#mask0_436_2883)">
<path style="mix-blend-mode:color-dodge" d="M586.37 341.5C546.84 162.69 387.38 28.95 196.69 28.95C6 28.95 -153.47 162.69 -193 341.5H586.37Z" fill="url(#paint1_radial_436_2883)"/>
<path style="mix-blend-mode:screen" d="M567.9 341.5C528.71 172.72 377.38 46.95 196.68 46.95C15.98 46.95 -135.34 172.72 -174.53 341.5H567.91H567.9Z" fill="url(#paint2_radial_436_2883)"/>
<path d="M475.37 341.5C438.5 222.64 327.68 136.31 196.69 136.31C65.7 136.31 -45.12 222.64 -81.99 341.5H475.37Z" fill="url(#paint3_radial_436_2883)"/>
<g style="mix-blend-mode:color-dodge">
<path d="M2.84995 246.33C3.27995 246.33 3.62994 245.98 3.62994 245.55C3.62994 245.12 3.27995 244.77 2.84995 244.77C2.41995 244.77 2.06995 245.12 2.06995 245.55C2.06995 245.98 2.41995 246.33 2.84995 246.33Z" fill="#CCCCCC"/>
</g>
<g style="mix-blend-mode:color-dodge">
<path d="M102.22 140.82C102.27 141.21 102.58 141.51 102.98 141.51C103.41 141.51 103.76 141.16 103.76 140.73C103.76 140.3 103.41 139.95 102.98 139.95C102.69 139.95 102.44 140.12 102.3 140.36C102.25 139.97 101.94 139.67 101.54 139.67C101.11 139.67 100.76 140.02 100.76 140.45C100.76 140.64 100.84 140.81 100.95 140.94C100.89 140.92 100.82 140.9 100.76 140.9C100.59 140.9 100.45 140.96 100.32 141.05C100.21 140.75 99.9301 140.53 99.5901 140.53C99.1601 140.53 98.8101 140.88 98.8101 141.31C98.8101 141.74 99.1601 142.09 99.5901 142.09C99.7601 142.09 99.9001 142.03 100.03 141.94C100.14 142.24 100.42 142.46 100.76 142.46C101.19 142.46 101.54 142.11 101.54 141.68C101.54 141.49 101.46 141.32 101.35 141.19C101.41 141.21 101.48 141.23 101.54 141.23C101.83 141.23 102.08 141.06 102.22 140.82Z" fill="#CCCCCC"/>
</g>
<g style="mix-blend-mode:color-dodge">
<path d="M44.79 178.29C45.22 178.29 45.57 177.94 45.57 177.51C45.57 177.08 45.22 176.73 44.79 176.73C44.36 176.73 44.01 177.08 44.01 177.51C44.01 177.94 44.36 178.29 44.79 178.29Z" fill="#CCCCCC"/>
</g>
<g style="mix-blend-mode:color-dodge">
<path d="M11.52 228.09C11.9508 228.09 12.3 227.741 12.3 227.31C12.3 226.879 11.9508 226.53 11.52 226.53C11.0892 226.53 10.74 226.879 10.74 227.31C10.74 227.741 11.0892 228.09 11.52 228.09Z" fill="#CCCCCC"/>
</g>
<g style="mix-blend-mode:color-dodge">
<path d="M37.67 186.94C37.67 186.51 37.32 186.16 36.89 186.16C36.46 186.16 36.11 186.51 36.11 186.94C36.11 187.37 36.46 187.72 36.89 187.72C37.32 187.72 37.67 187.37 37.67 186.94Z" fill="#CCCCCC"/>
</g>
<g style="mix-blend-mode:color-dodge">
<path d="M53.1199 169.71C53.1199 169.28 52.7699 168.93 52.3399 168.93C51.9099 168.93 51.5599 169.28 51.5599 169.71C51.5599 170.14 51.9099 170.49 52.3399 170.49C52.7699 170.49 53.1199 170.14 53.1199 169.71Z" fill="#CCCCCC"/>
</g>
<g style="mix-blend-mode:color-dodge">
<path d="M28.6499 197.45C28.2199 197.45 27.8699 197.8 27.8699 198.23C27.8699 198.66 28.2199 199.01 28.6499 199.01C29.0799 199.01 29.4299 198.66 29.4299 198.23C29.4299 197.8 29.0799 197.45 28.6499 197.45Z" fill="#CCCCCC"/>
</g>
<g style="mix-blend-mode:color-dodge">
<path d="M20.1699 210.83C19.7399 210.83 19.3899 211.18 19.3899 211.61C19.3899 212.04 19.7399 212.39 20.1699 212.39C20.5999 212.39 20.9499 212.04 20.9499 211.61C20.9499 211.18 20.5999 210.83 20.1699 210.83Z" fill="#CCCCCC"/>
</g>
<g style="mix-blend-mode:color-dodge">
<path d="M83.86 148.11C84.29 148.11 84.6401 147.76 84.6401 147.33C84.6401 147.19 84.6001 147.07 84.5301 146.96C84.5801 146.85 84.6201 146.74 84.6201 146.61C84.6201 146.18 84.2701 145.83 83.8401 145.83C83.4101 145.83 83.0601 146.18 83.0601 146.61C83.0601 146.75 83.1001 146.87 83.1701 146.98C83.1201 147.09 83.08 147.2 83.08 147.33C83.08 147.76 83.43 148.11 83.86 148.11Z" fill="#CCCCCC"/>
</g>
<g style="mix-blend-mode:color-dodge">
<path d="M72.51 154.67C72.94 154.67 73.29 154.32 73.29 153.89C73.29 153.46 72.94 153.11 72.51 153.11C72.08 153.11 71.73 153.46 71.73 153.89C71.73 154.32 72.08 154.67 72.51 154.67Z" fill="#CCCCCC"/>
</g>
<g style="mix-blend-mode:color-dodge">
<path d="M93.5999 144.44C93.5999 144.44 93.6899 144.42 93.7399 144.41C93.7999 144.79 94.1099 145.08 94.4999 145.08C94.9299 145.08 95.2799 144.73 95.2799 144.3C95.2799 143.87 94.9299 143.52 94.4999 143.52C94.4499 143.52 94.4099 143.54 94.3599 143.55C94.2999 143.17 93.9899 142.88 93.5999 142.88C93.4999 142.88 93.4099 142.9 93.3199 142.94C93.3399 142.9 93.3699 142.86 93.3899 142.81H91.9199C92.0199 143.12 92.3099 143.35 92.6499 143.35C92.7399 143.35 92.8299 143.33 92.9199 143.3C92.8599 143.41 92.8099 143.53 92.8099 143.67C92.8099 144.1 93.1599 144.45 93.5899 144.45L93.5999 144.44Z" fill="#CCCCCC"/>
</g>
<g style="mix-blend-mode:color-dodge">
<path d="M66.1999 157.32C65.7699 157.32 65.4199 157.67 65.4199 158.1C65.4199 158.53 65.7699 158.88 66.1999 158.88C66.6299 158.88 66.9799 158.53 66.9799 158.1C66.9799 157.67 66.6299 157.32 66.1999 157.32Z" fill="#CCCCCC"/>
</g>
<g style="mix-blend-mode:color-dodge">
<path d="M108.79 138.02C108.36 138.02 108.01 138.37 108.01 138.8C108.01 139.23 108.36 139.58 108.79 139.58C109.22 139.58 109.57 139.23 109.57 138.8C109.57 138.37 109.22 138.02 108.79 138.02Z" fill="#CCCCCC"/>
</g>
<g style="mix-blend-mode:color-dodge">
<path d="M89.7299 145.98C89.7899 145.87 89.8299 145.75 89.8299 145.62C89.8299 145.33 89.6699 145.09 89.4399 144.96C89.4199 144.55 89.0799 144.21 88.6599 144.21C88.2399 144.21 87.8799 144.56 87.8799 144.99C87.8799 145.28 88.0399 145.52 88.2699 145.65C88.2899 146.04 88.5899 146.35 88.9799 146.39C88.9199 146.5 88.8799 146.62 88.8799 146.75C88.8799 147.18 89.2299 147.53 89.6599 147.53C90.0899 147.53 90.4399 147.18 90.4399 146.75C90.4399 146.32 90.1199 146.01 89.7199 145.98H89.7299Z" fill="#CCCCCC"/>
</g>
<g style="mix-blend-mode:color-dodge">
<path d="M84.57 150.62C84.14 150.62 83.79 150.97 83.79 151.4C83.79 151.83 84.14 152.18 84.57 152.18C85 152.18 85.35 151.83 85.35 151.4C85.35 150.97 85 150.62 84.57 150.62Z" fill="#CCCCCC"/>
</g>
<g style="mix-blend-mode:color-dodge">
<path d="M34.76 217.37C34.33 217.37 33.98 217.72 33.98 218.15C33.98 218.58 34.33 218.93 34.76 218.93C35.19 218.93 35.54 218.58 35.54 218.15C35.54 217.72 35.19 217.37 34.76 217.37Z" fill="#CCCCCC"/>
</g>
<g style="mix-blend-mode:color-dodge">
<path d="M26.5699 235.59C26.1399 235.59 25.7899 235.94 25.7899 236.37C25.7899 236.8 26.1399 237.15 26.5699 237.15C26.9999 237.15 27.3499 236.8 27.3499 236.37C27.3499 235.94 26.9999 235.59 26.5699 235.59Z" fill="#CCCCCC"/>
</g>
<g style="mix-blend-mode:color-dodge">
<path d="M18.39 256.72C17.96 256.72 17.61 257.07 17.61 257.5C17.61 257.93 17.96 258.28 18.39 258.28C18.82 258.28 19.17 257.93 19.17 257.5C19.17 257.07 18.82 256.72 18.39 256.72Z" fill="#CCCCCC"/>
</g>
<g style="mix-blend-mode:color-dodge">
<path d="M65.3598 170.28C65.7906 170.28 66.1399 169.931 66.1399 169.5C66.1399 169.069 65.7906 168.72 65.3598 168.72C64.9291 168.72 64.5798 169.069 64.5798 169.5C64.5798 169.931 64.9291 170.28 65.3598 170.28Z" fill="#CCCCCC"/>
</g>
<g style="mix-blend-mode:color-dodge">
<path d="M42.8299 201.82C42.3999 201.82 42.0499 202.17 42.0499 202.6C42.0499 203.03 42.3999 203.38 42.8299 203.38C43.2599 203.38 43.6099 203.03 43.6099 202.6C43.6099 202.17 43.2599 201.82 42.8299 201.82Z" fill="#CCCCCC"/>
</g>
<g style="mix-blend-mode:color-dodge">
<path d="M72.1599 161.34C71.7299 161.34 71.3799 161.69 71.3799 162.12C71.3799 162.55 71.7299 162.9 72.1599 162.9C72.5899 162.9 72.9399 162.55 72.9399 162.12C72.9399 161.69 72.5899 161.34 72.1599 161.34Z" fill="#CCCCCC"/>
</g>
<g style="mix-blend-mode:color-dodge">
<path d="M78.56 155.38C78.13 155.38 77.78 155.73 77.78 156.16C77.78 156.59 78.13 156.94 78.56 156.94C78.99 156.94 79.34 156.59 79.34 156.16C79.34 155.73 78.99 155.38 78.56 155.38Z" fill="#CCCCCC"/>
</g>
<g style="mix-blend-mode:color-dodge">
<path d="M50.6599 188.71C50.2299 188.71 49.8799 189.06 49.8799 189.49C49.8799 189.92 50.2299 190.27 50.6599 190.27C51.0899 190.27 51.4399 189.92 51.4399 189.49C51.4399 189.06 51.0899 188.71 50.6599 188.71Z" fill="#CCCCCC"/>
</g>
<g style="mix-blend-mode:color-dodge">
<path d="M58.1799 179.33C58.6099 179.33 58.9599 178.98 58.9599 178.55C58.9599 178.12 58.6099 177.77 58.1799 177.77C57.7499 177.77 57.3999 178.12 57.3999 178.55C57.3999 178.98 57.7499 179.33 58.1799 179.33Z" fill="#CCCCCC"/>
</g>
<g style="mix-blend-mode:color-dodge">
<path d="M17.75 185.99C17.32 185.99 16.97 186.34 16.97 186.77C16.97 187.2 17.32 187.55 17.75 187.55C18.18 187.55 18.53 187.2 18.53 186.77C18.53 186.34 18.18 185.99 17.75 185.99Z" fill="#CCCCCC"/>
</g>
<g style="mix-blend-mode:color-dodge">
<path d="M40.42 168.03C40.85 168.03 41.2 167.68 41.2 167.25C41.2 167.06 41.13 166.9 41.02 166.76C41.02 166.71 41.05 166.67 41.05 166.62C41.05 166.47 40.99 166.33 40.92 166.21C40.92 166.18 40.94 166.16 40.94 166.13C40.94 165.84 40.77 165.59 40.53 165.46C40.55 165.39 40.57 165.32 40.57 165.25C40.57 164.82 40.22 164.47 39.79 164.47C39.36 164.47 39.01 164.82 39.01 165.25C39.01 165.54 39.18 165.79 39.42 165.92C39.4 165.99 39.38 166.06 39.38 166.13C39.38 166.28 39.44 166.42 39.51 166.54C39.51 166.57 39.49 166.59 39.49 166.62C39.49 166.81 39.56 166.97 39.67 167.11C39.67 167.16 39.64 167.2 39.64 167.25C39.64 167.68 39.99 168.03 40.42 168.03Z" fill="#CCCCCC"/>
</g>
<g style="mix-blend-mode:color-dodge">
<path d="M26.5999 179.51C26.5999 179.08 26.2499 178.73 25.8199 178.73C25.3899 178.73 25.0399 179.08 25.0399 179.51C25.0399 179.94 25.3899 180.29 25.8199 180.29C26.2499 180.29 26.5999 179.94 26.5999 179.51Z" fill="#CCCCCC"/>
</g>
<g style="mix-blend-mode:color-dodge">
<path d="M74.04 149.31C74.04 149.42 74.07 149.53 74.11 149.62C73.76 149.69 73.48 150 73.48 150.37C73.48 150.8 73.83 151.15 74.26 151.15C74.69 151.15 75.04 150.8 75.04 150.37C75.04 150.26 75.01 150.15 74.97 150.06C75.32 149.99 75.6 149.68 75.6 149.31C75.6 148.88 75.25 148.53 74.82 148.53C74.39 148.53 74.04 148.88 74.04 149.31Z" fill="#CCCCCC"/>
</g>
<g style="mix-blend-mode:color-dodge">
<path d="M69.27 152.02C69.27 151.59 68.92 151.24 68.49 151.24C68.06 151.24 67.71 151.59 67.71 152.02C67.71 152.23 67.8 152.42 67.93 152.56C67.8 152.47 67.65 152.4 67.48 152.4C67.05 152.4 66.71 152.74 66.7 153.17C66.61 152.83 66.32 152.57 65.95 152.57C65.67 152.57 65.44 152.72 65.3 152.94C65.19 152.64 64.91 152.43 64.57 152.43C64.14 152.43 63.79 152.78 63.79 153.21C63.79 153.64 64.14 153.99 64.57 153.99C64.85 153.99 65.08 153.84 65.22 153.62C65.33 153.92 65.61 154.13 65.95 154.13C66.38 154.13 66.72 153.79 66.73 153.36C66.82 153.7 67.11 153.96 67.48 153.96C67.91 153.96 68.26 153.61 68.26 153.18C68.26 152.97 68.17 152.78 68.04 152.64C68.17 152.73 68.32 152.8 68.49 152.8C68.92 152.8 69.27 152.45 69.27 152.02Z" fill="#CCCCCC"/>
</g>
<g style="mix-blend-mode:color-dodge">
<path d="M-0.180054 205.46C-0.180054 205.89 0.169945 206.24 0.599945 206.24C1.02995 206.24 1.37994 205.89 1.37994 205.46C1.37994 205.03 1.02995 204.68 0.599945 204.68C0.169945 204.68 -0.180054 205.03 -0.180054 205.46Z" fill="#CCCCCC"/>
</g>
<g style="mix-blend-mode:color-dodge">
<path d="M8.53992 195.35C8.53992 195.78 8.88993 196.13 9.31993 196.13C9.74993 196.13 10.0999 195.78 10.0999 195.35C10.0999 194.92 9.74993 194.57 9.31993 194.57C8.88993 194.57 8.53992 194.92 8.53992 195.35Z" fill="#CCCCCC"/>
</g>
<g style="mix-blend-mode:color-dodge">
<path d="M0.119965 220.36C-0.310035 220.36 -0.660034 220.71 -0.660034 221.14C-0.660034 221.57 -0.310035 221.92 0.119965 221.92C0.549965 221.92 0.899963 221.57 0.899963 221.14C0.899963 220.71 0.549965 220.36 0.119965 220.36Z" fill="#CCCCCC"/>
</g>
<g style="mix-blend-mode:color-dodge">
<path d="M26.11 186.99C26.54 186.99 26.89 186.64 26.89 186.21C26.89 185.78 26.54 185.43 26.11 185.43C25.68 185.43 25.33 185.78 25.33 186.21C25.33 186.64 25.68 186.99 26.11 186.99Z" fill="#CCCCCC"/>
</g>
<g style="mix-blend-mode:color-dodge">
<path d="M34.9699 177.99C34.9699 177.56 34.6199 177.21 34.1899 177.21C33.7599 177.21 33.4099 177.56 33.4099 177.99C33.4099 178.42 33.7599 178.77 34.1899 178.77C34.6199 178.77 34.9699 178.42 34.9699 177.99Z" fill="#CCCCCC"/>
</g>
<g style="mix-blend-mode:color-dodge">
<path d="M42.66 171.16C42.66 170.73 42.31 170.38 41.88 170.38C41.45 170.38 41.1 170.73 41.1 171.16C41.1 171.59 41.45 171.94 41.88 171.94C42.31 171.94 42.66 171.59 42.66 171.16Z" fill="#CCCCCC"/>
</g>
<g style="mix-blend-mode:color-dodge">
<path d="M9.77997 207.57C9.77997 207.14 9.42997 206.79 8.99997 206.79C8.56997 206.79 8.21997 207.14 8.21997 207.57C8.21997 208 8.56997 208.35 8.99997 208.35C9.42997 208.35 9.77997 208 9.77997 207.57Z" fill="#CCCCCC"/>
</g>
<g style="mix-blend-mode:color-dodge">
<path d="M18.4799 195.99C18.4799 195.56 18.1299 195.21 17.6999 195.21C17.2699 195.21 16.9199 195.56 16.9199 195.99C16.9199 196.42 17.2699 196.77 17.6999 196.77C18.1299 196.77 18.4799 196.42 18.4799 195.99Z" fill="#CCCCCC"/>
</g>
<g style="mix-blend-mode:color-dodge">
<path d="M49.0799 164.72C49.0799 164.29 48.7299 163.94 48.2999 163.94C48.2999 163.94 48.2899 163.94 48.2799 163.94V163.92C48.2799 163.55 48.0099 163.25 47.6599 163.17C47.5699 163.04 47.4399 162.93 47.2799 162.88C47.1599 162.6 46.8799 162.4 46.5599 162.4C46.1299 162.4 45.7799 162.75 45.7799 163.18C45.7799 163.52 46.0099 163.81 46.3099 163.91C46.4099 164.14 46.6199 164.31 46.8699 164.36C47.0099 164.56 47.2299 164.7 47.4999 164.7C47.4999 164.7 47.5099 164.7 47.5199 164.7V164.72C47.5199 165.15 47.8699 165.5 48.2999 165.5C48.7299 165.5 49.0799 165.15 49.0799 164.72Z" fill="#CCCCCC"/>
</g>
<g style="mix-blend-mode:color-dodge">
<path d="M79.7198 148.74C79.7198 148.35 79.4298 148.04 79.0498 147.98C79.2898 147.91 79.4898 147.72 79.5698 147.48H78.0998C78.1898 147.76 78.4298 147.96 78.7298 148C78.3998 148.09 78.1498 148.38 78.1498 148.74C78.1498 148.85 78.1798 148.96 78.2198 149.05C77.9698 149.18 77.7998 149.44 77.7998 149.74C77.7998 150.17 78.1498 150.52 78.5798 150.52C79.0098 150.52 79.3598 150.17 79.3598 149.74C79.3598 149.63 79.3398 149.52 79.2898 149.43C79.5398 149.3 79.7098 149.04 79.7098 148.74H79.7198Z" fill="#CCCCCC"/>
</g>
<g style="mix-blend-mode:color-dodge">
<path d="M61.2599 157.67C61.6899 157.67 62.0399 157.32 62.0399 156.89C62.0399 156.46 61.6899 156.11 61.2599 156.11C60.9899 156.11 60.7599 156.26 60.6199 156.47C60.4799 156.26 60.2499 156.11 59.9799 156.11C59.7899 156.11 59.6199 156.19 59.4899 156.3C59.3499 156.14 59.1399 156.03 58.9099 156.03C58.4799 156.03 58.1299 156.38 58.1299 156.81C58.1299 157.24 58.4799 157.59 58.9099 157.59C59.0999 157.59 59.2699 157.51 59.4099 157.4C59.5499 157.56 59.7599 157.67 59.9899 157.67C60.2599 157.67 60.4899 157.52 60.6299 157.31C60.7699 157.52 60.9999 157.67 61.2699 157.67H61.2599Z" fill="#CCCCCC"/>
</g>
<g style="mix-blend-mode:color-dodge">
<path d="M55.4899 160.34C55.4899 159.91 55.1399 159.56 54.7099 159.56C54.5799 159.56 54.4599 159.6 54.3499 159.66C54.2199 159.41 53.9699 159.24 53.6699 159.24C53.5699 159.24 53.4799 159.26 53.3899 159.3C53.2499 159.19 53.0899 159.11 52.8999 159.11C52.8699 159.11 52.8399 159.13 52.7999 159.13C52.6899 158.83 52.4099 158.62 52.0699 158.62C51.6399 158.62 51.2899 158.97 51.2899 159.4C51.2899 159.83 51.6399 160.18 52.0699 160.18C52.0999 160.18 52.1299 160.16 52.1699 160.16C52.2799 160.46 52.5599 160.67 52.8999 160.67C52.9999 160.67 53.0899 160.65 53.1799 160.61C53.3199 160.72 53.4799 160.8 53.6699 160.8C53.7999 160.8 53.9199 160.76 54.0299 160.7C54.1599 160.95 54.4099 161.12 54.7099 161.12C55.1399 161.12 55.4899 160.77 55.4899 160.34Z" fill="#CCCCCC"/>
</g>
<g style="mix-blend-mode:color-dodge">
<path d="M59.4799 162.53C59.0499 162.53 58.7 162.88 58.7 163.31C58.7 163.74 59.0499 164.09 59.4799 164.09C59.91 164.09 60.2599 163.74 60.2599 163.31C60.2599 162.88 59.91 162.53 59.4799 162.53Z" fill="#CCCCCC"/>
</g>
<g style="mix-blend-mode:color-dodge">
<path d="M174.91 127.99C174.68 127.99 174.48 128.09 174.34 128.24C174.17 128.27 174.02 128.34 173.9 128.45C173.68 128.47 173.5 128.58 173.37 128.74C173.09 128.76 172.86 128.93 172.74 129.16C172.41 129.21 172.16 129.45 172.09 129.78C171.72 129.84 171.42 130.15 171.42 130.54C171.42 130.59 171.44 130.63 171.45 130.67C171.05 130.7 170.73 131.03 170.73 131.44C170.73 131.65 170.81 131.83 170.95 131.97C170.89 131.95 170.83 131.93 170.76 131.93C170.33 131.93 169.98 132.28 169.98 132.71C169.98 133.14 170.33 133.49 170.76 133.49C171.19 133.49 171.54 133.14 171.54 132.71C171.54 132.5 171.46 132.32 171.32 132.18C171.38 132.2 171.44 132.22 171.51 132.22C171.94 132.22 172.29 131.87 172.29 131.44C172.29 131.39 172.27 131.35 172.26 131.31C172.61 131.28 172.89 131.02 172.95 130.68C173.2 130.64 173.42 130.49 173.53 130.27C173.73 130.24 173.9 130.14 174.02 129.99C174.21 129.97 174.39 129.89 174.51 129.76C174.71 129.74 174.88 129.66 175.01 129.52C175.38 129.46 175.67 129.15 175.67 128.76C175.67 128.73 175.65 128.7 175.65 128.66C175.8 128.56 175.92 128.42 175.98 128.24H175.46C175.32 128.08 175.11 127.97 174.88 127.97L174.91 127.99Z" fill="#CCCCCC"/>
</g>
<g style="mix-blend-mode:color-dodge">
<path d="M133.37 159.14C132.94 159.14 132.59 159.49 132.59 159.92C132.59 160.35 132.94 160.7 133.37 160.7C133.8 160.7 134.15 160.35 134.15 159.92C134.15 159.49 133.8 159.14 133.37 159.14Z" fill="#CCCCCC"/>
</g>
<g style="mix-blend-mode:color-dodge">
<path d="M116.44 213.52C116.01 213.52 115.66 213.87 115.66 214.3C115.66 214.73 116.01 215.08 116.44 215.08C116.87 215.08 117.22 214.73 117.22 214.3C117.22 213.87 116.87 213.52 116.44 213.52Z" fill="#CCCCCC"/>
</g>
<g style="mix-blend-mode:color-dodge">
<path d="M129.51 169.06C129.08 169.06 128.73 169.41 128.73 169.84C128.73 170.27 129.08 170.62 129.51 170.62C129.94 170.62 130.29 170.27 130.29 169.84C130.29 169.41 129.94 169.06 129.51 169.06Z" fill="#CCCCCC"/>
</g>
<g style="mix-blend-mode:color-dodge">
<path d="M136.97 152.74C137.4 152.74 137.75 152.39 137.75 151.96C137.75 151.53 137.4 151.18 136.97 151.18C136.54 151.18 136.19 151.53 136.19 151.96C136.19 152.39 136.54 152.74 136.97 152.74Z" fill="#CCCCCC"/>
</g>
<g style="mix-blend-mode:color-dodge">
<path d="M121.05 195.91C120.62 195.91 120.27 196.26 120.27 196.69C120.27 197.12 120.62 197.47 121.05 197.47C121.48 197.47 121.83 197.12 121.83 196.69C121.83 196.26 121.48 195.91 121.05 195.91Z" fill="#CCCCCC"/>
</g>
<g style="mix-blend-mode:color-dodge">
<path d="M125.4 181.21C124.97 181.21 124.62 181.56 124.62 181.99C124.62 182.42 124.97 182.77 125.4 182.77C125.83 182.77 126.18 182.42 126.18 181.99C126.18 181.56 125.83 181.21 125.4 181.21Z" fill="#CCCCCC"/>
</g>
<g style="mix-blend-mode:color-dodge">
<path d="M140.33 146.45C140.76 146.45 141.11 146.1 141.11 145.67C141.11 145.24 140.76 144.89 140.33 144.89C139.9 144.89 139.55 145.24 139.55 145.67C139.55 146.1 139.9 146.45 140.33 146.45Z" fill="#CCCCCC"/>
</g>
<g style="mix-blend-mode:color-dodge">
<path d="M146.36 137.87C146.79 137.87 147.14 137.52 147.14 137.09C147.14 136.66 146.79 136.31 146.36 136.31C145.93 136.31 145.58 136.66 145.58 137.09C145.58 137.52 145.93 137.87 146.36 137.87Z" fill="#CCCCCC"/>
</g>
<g style="mix-blend-mode:color-dodge">
<path d="M149.05 135.13C149.48 135.13 149.83 134.78 149.83 134.35C149.83 133.92 149.48 133.57 149.05 133.57C148.62 133.57 148.27 133.92 148.27 134.35C148.27 134.78 148.62 135.13 149.05 135.13Z" fill="#CCCCCC"/>
</g>
<g style="mix-blend-mode:color-dodge">
<path d="M143.46 141.57C143.89 141.57 144.24 141.22 144.24 140.79C144.24 140.36 143.89 140.01 143.46 140.01C143.03 140.01 142.68 140.36 142.68 140.79C142.68 141.22 143.03 141.57 143.46 141.57Z" fill="#CCCCCC"/>
</g>
<g style="mix-blend-mode:color-dodge">
<path d="M111.61 234.36C111.18 234.36 110.83 234.71 110.83 235.14C110.83 235.57 111.18 235.92 111.61 235.92C112.04 235.92 112.39 235.57 112.39 235.14C112.39 234.71 112.04 234.36 111.61 234.36Z" fill="#CCCCCC"/>
</g>
<g style="mix-blend-mode:color-dodge">
<path d="M106.6 258.82C106.17 258.82 105.82 259.17 105.82 259.6C105.82 260.03 106.17 260.38 106.6 260.38C107.03 260.38 107.38 260.03 107.38 259.6C107.38 259.17 107.03 258.82 106.6 258.82Z" fill="#CCCCCC"/>
</g>
<g style="mix-blend-mode:color-dodge">
<path d="M151.52 209.43C151.09 209.43 150.74 209.78 150.74 210.21C150.74 210.64 151.09 210.99 151.52 210.99C151.95 210.99 152.3 210.64 152.3 210.21C152.3 209.78 151.95 209.43 151.52 209.43Z" fill="#CCCCCC"/>
</g>
<g style="mix-blend-mode:color-dodge">
<path d="M161.22 155.96C160.79 155.96 160.44 156.31 160.44 156.74C160.44 157.17 160.79 157.52 161.22 157.52C161.65 157.52 162 157.17 162 156.74C162 156.31 161.65 155.96 161.22 155.96Z" fill="#CCCCCC"/>
</g>
<g style="mix-blend-mode:color-dodge">
<path d="M165.16 142.12C164.73 142.12 164.38 142.47 164.38 142.9C164.38 143.33 164.73 143.68 165.16 143.68C165.59 143.68 165.94 143.33 165.94 142.9C165.94 142.47 165.59 142.12 165.16 142.12Z" fill="#CCCCCC"/>
</g>
<g style="mix-blend-mode:color-dodge">
<path d="M163.26 148.21C162.83 148.21 162.48 148.56 162.48 148.99C162.48 149.42 162.83 149.77 163.26 149.77C163.69 149.77 164.04 149.42 164.04 148.99C164.04 148.56 163.69 148.21 163.26 148.21Z" fill="#CCCCCC"/>
</g>
<g style="mix-blend-mode:color-dodge">
<path d="M156.69 177.58C156.26 177.58 155.91 177.93 155.91 178.36C155.91 178.79 156.26 179.14 156.69 179.14C157.12 179.14 157.47 178.79 157.47 178.36C157.47 177.93 157.12 177.58 156.69 177.58Z" fill="#CCCCCC"/>
</g>
<g style="mix-blend-mode:color-dodge">
<path d="M154.18 192.06C153.75 192.06 153.4 192.41 153.4 192.84C153.4 193.27 153.75 193.62 154.18 193.62C154.61 193.62 154.96 193.27 154.96 192.84C154.96 192.41 154.61 192.06 154.18 192.06Z" fill="#CCCCCC"/>
</g>
<g style="mix-blend-mode:color-dodge">
<path d="M159.03 165.65C158.6 165.65 158.25 166 158.25 166.43C158.25 166.86 158.6 167.21 159.03 167.21C159.46 167.21 159.81 166.86 159.81 166.43C159.81 166 159.46 165.65 159.03 165.65Z" fill="#CCCCCC"/>
</g>
<g style="mix-blend-mode:color-dodge">
<path d="M166.92 137.44C166.49 137.44 166.14 137.79 166.14 138.22C166.14 138.65 166.49 139 166.92 139C167.35 139 167.7 138.65 167.7 138.22C167.7 137.79 167.35 137.44 166.92 137.44Z" fill="#CCCCCC"/>
</g>
<g style="mix-blend-mode:color-dodge">
<path d="M148.69 230.07C148.26 230.07 147.91 230.42 147.91 230.85C147.91 231.28 148.26 231.63 148.69 231.63C149.12 231.63 149.47 231.28 149.47 230.85C149.47 230.42 149.12 230.07 148.69 230.07Z" fill="#CCCCCC"/>
</g>
<g style="mix-blend-mode:color-dodge">
<path d="M145.69 255.9C146.121 255.9 146.47 255.551 146.47 255.12C146.47 254.689 146.121 254.34 145.69 254.34C145.259 254.34 144.91 254.689 144.91 255.12C144.91 255.551 145.259 255.9 145.69 255.9Z" fill="#CCCCCC"/>
</g>
<g style="mix-blend-mode:color-dodge">
<path d="M99.82 149.91C99.82 149.48 99.47 149.13 99.04 149.13C98.61 149.13 98.26 149.48 98.26 149.91C98.26 150.34 98.61 150.69 99.04 150.69C99.47 150.69 99.82 150.34 99.82 149.91Z" fill="#CCCCCC"/>
</g>
<g style="mix-blend-mode:color-dodge">
<path d="M104.94 145.56C104.94 145.13 104.59 144.78 104.16 144.78C103.73 144.78 103.38 145.13 103.38 145.56C103.38 145.99 103.73 146.34 104.16 146.34C104.59 146.34 104.94 145.99 104.94 145.56Z" fill="#CCCCCC"/>
</g>
<g style="mix-blend-mode:color-dodge">
<path d="M108.91 141.41C108.48 141.41 108.13 141.76 108.13 142.19C108.13 142.62 108.48 142.97 108.91 142.97C109.34 142.97 109.69 142.62 109.69 142.19C109.69 141.76 109.34 141.41 108.91 141.41Z" fill="#CCCCCC"/>
</g>
<g style="mix-blend-mode:color-dodge">
<path d="M88.4899 162.42C88.4899 161.99 88.1399 161.64 87.7099 161.64C87.2799 161.64 86.9299 161.99 86.9299 162.42C86.9299 162.85 87.2799 163.2 87.7099 163.2C88.1399 163.2 88.4899 162.85 88.4899 162.42Z" fill="#CCCCCC"/>
</g>
<g style="mix-blend-mode:color-dodge">
<path d="M113.41 138.33C113.48 138.21 113.53 138.08 113.53 137.94C113.53 137.51 113.18 137.16 112.75 137.16C112.32 137.16 111.97 137.51 111.97 137.94C111.97 138.27 112.18 138.56 112.48 138.67C112.41 138.79 112.36 138.92 112.36 139.06C112.36 139.49 112.71 139.84 113.14 139.84C113.57 139.84 113.92 139.49 113.92 139.06C113.92 138.72 113.71 138.44 113.41 138.33Z" fill="#CCCCCC"/>
</g>
<g style="mix-blend-mode:color-dodge">
<path d="M82.28 171.07C82.28 170.64 81.93 170.29 81.5 170.29C81.07 170.29 80.72 170.64 80.72 171.07C80.72 171.5 81.07 171.85 81.5 171.85C81.93 171.85 82.28 171.5 82.28 171.07Z" fill="#CCCCCC"/>
</g>
<g style="mix-blend-mode:color-dodge">
<path d="M94.34 155.45C94.34 155.02 93.99 154.67 93.56 154.67C93.13 154.67 92.78 155.02 92.78 155.45C92.78 155.88 93.13 156.23 93.56 156.23C93.99 156.23 94.34 155.88 94.34 155.45Z" fill="#CCCCCC"/>
</g>
<g style="mix-blend-mode:color-dodge">
<path d="M121.17 135.33C120.74 135.33 120.39 135.68 120.39 136.11C120.39 136.54 120.74 136.89 121.17 136.89C121.6 136.89 121.95 136.54 121.95 136.11C121.95 135.68 121.6 135.33 121.17 135.33Z" fill="#CCCCCC"/>
</g>
<g style="mix-blend-mode:color-dodge">
<path d="M124.62 135.65C125.05 135.65 125.4 135.3 125.4 134.87C125.4 134.44 125.05 134.09 124.62 134.09C124.19 134.09 123.84 134.44 123.84 134.87C123.84 135.3 124.19 135.65 124.62 135.65Z" fill="#CCCCCC"/>
</g>
<g style="mix-blend-mode:color-dodge">
<path d="M117.12 136.47C117.12 136.47 117.12 136.44 117.12 136.43C117.12 136 116.77 135.65 116.34 135.65C115.91 135.65 115.56 136 115.56 136.43C115.56 136.84 115.88 137.17 116.28 137.2C116.28 137.22 116.28 137.23 116.28 137.24C116.28 137.67 116.63 138.02 117.06 138.02C117.49 138.02 117.84 137.67 117.84 137.24C117.84 136.81 117.52 136.5 117.12 136.47Z" fill="#CCCCCC"/>
</g>
<g style="mix-blend-mode:color-dodge">
<path d="M75.7299 181.65C75.7299 181.22 75.3799 180.87 74.9499 180.87C74.5199 180.87 74.1699 181.22 74.1699 181.65C74.1699 182.08 74.5199 182.43 74.9499 182.43C75.3799 182.43 75.7299 182.08 75.7299 181.65Z" fill="#CCCCCC"/>
</g>
<g style="mix-blend-mode:color-dodge">
<path d="M68.84 194.44C68.84 194.01 68.49 193.66 68.06 193.66C67.63 193.66 67.28 194.01 67.28 194.44C67.28 194.87 67.63 195.22 68.06 195.22C68.49 195.22 68.84 194.87 68.84 194.44Z" fill="#CCCCCC"/>
</g>
<g style="mix-blend-mode:color-dodge">
<path d="M60.8899 208.96C60.4599 208.96 60.1099 209.31 60.1099 209.74C60.1099 210.17 60.4599 210.52 60.8899 210.52C61.3199 210.52 61.6699 210.17 61.6699 209.74C61.6699 209.31 61.3199 208.96 60.8899 208.96Z" fill="#CCCCCC"/>
</g>
<g style="mix-blend-mode:color-dodge">
<path d="M46.01 248.21C45.58 248.21 45.23 248.56 45.23 248.99C45.23 249.42 45.58 249.77 46.01 249.77C46.44 249.77 46.79 249.42 46.79 248.99C46.79 248.56 46.44 248.21 46.01 248.21Z" fill="#CCCCCC"/>
</g>
<g style="mix-blend-mode:color-dodge">
<path d="M53.51 227.05C53.08 227.05 52.73 227.4 52.73 227.83C52.73 228.26 53.08 228.61 53.51 228.61C53.94 228.61 54.29 228.26 54.29 227.83C54.29 227.4 53.94 227.05 53.51 227.05Z" fill="#CCCCCC"/>
</g>
<g style="mix-blend-mode:color-dodge">
<path d="M38.5699 272.71C38.1399 272.71 37.7899 273.06 37.7899 273.49C37.7899 273.92 38.1399 274.27 38.5699 274.27C38.9999 274.27 39.3499 273.92 39.3499 273.49C39.3499 273.06 38.9999 272.71 38.5699 272.71Z" fill="#CCCCCC"/>
</g>
<g style="mix-blend-mode:color-dodge">
<path d="M111.67 155.71C111.24 155.71 110.89 156.06 110.89 156.49C110.89 156.92 111.24 157.27 111.67 157.27C112.1 157.27 112.45 156.92 112.45 156.49C112.45 156.06 112.1 155.71 111.67 155.71Z" fill="#CCCCCC"/>
</g>
<g style="mix-blend-mode:color-dodge">
<path d="M106.66 163.99C106.23 163.99 105.88 164.34 105.88 164.77C105.88 165.2 106.23 165.55 106.66 165.55C107.09 165.55 107.44 165.2 107.44 164.77C107.44 164.34 107.09 163.99 106.66 163.99Z" fill="#CCCCCC"/>
</g>
<g style="mix-blend-mode:color-dodge">
<path d="M120.74 145.51C121.17 145.51 121.52 145.16 121.52 144.73C121.52 144.3 121.17 143.95 120.74 143.95C120.31 143.95 119.96 144.3 119.96 144.73C119.96 145.16 120.31 145.51 120.74 145.51Z" fill="#CCCCCC"/>
</g>
<g style="mix-blend-mode:color-dodge">
<path d="M116.36 150.68C116.79 150.68 117.14 150.33 117.14 149.9C117.14 149.47 116.79 149.12 116.36 149.12C115.93 149.12 115.58 149.47 115.58 149.9C115.58 150.33 115.93 150.68 116.36 150.68Z" fill="#CCCCCC"/>
</g>
<g style="mix-blend-mode:color-dodge">
<path d="M89.76 201.68C89.33 201.68 88.98 202.03 88.98 202.46C88.98 202.89 89.33 203.24 89.76 203.24C90.19 203.24 90.54 202.89 90.54 202.46C90.54 202.03 90.19 201.68 89.76 201.68Z" fill="#CCCCCC"/>
</g>
<g style="mix-blend-mode:color-dodge">
<path d="M101.33 175.77C101.761 175.77 102.11 175.421 102.11 174.99C102.11 174.559 101.761 174.21 101.33 174.21C100.899 174.21 100.55 174.559 100.55 174.99C100.55 175.421 100.899 175.77 101.33 175.77Z" fill="#CCCCCC"/>
</g>
<g style="mix-blend-mode:color-dodge">
<path d="M96.4799 187.45C96.4799 187.02 96.1299 186.67 95.6999 186.67C95.2699 186.67 94.9199 187.02 94.9199 187.45C94.9199 187.88 95.2699 188.23 95.6999 188.23C96.1299 188.23 96.4799 187.88 96.4799 187.45Z" fill="#CCCCCC"/>
</g>
<g style="mix-blend-mode:color-dodge">
<path d="M135.32 134.62C135.75 134.62 136.1 134.27 136.1 133.84C136.1 133.41 135.75 133.06 135.32 133.06C134.89 133.06 134.54 133.41 134.54 133.84C134.54 134.27 134.89 134.62 135.32 134.62Z" fill="#CCCCCC"/>
</g>
<g style="mix-blend-mode:color-dodge">
<path d="M141.36 132.01C141.5 132.17 141.71 132.28 141.94 132.28C142.3 132.28 142.6 132.02 142.68 131.69C142.82 131.8 142.99 131.88 143.18 131.88C143.52 131.88 143.8 131.66 143.91 131.36C144.03 131.43 144.16 131.49 144.31 131.49C144.74 131.49 145.09 131.14 145.09 130.71C145.09 130.66 145.07 130.62 145.06 130.57C145.11 130.58 145.17 130.6 145.23 130.6C145.58 130.6 145.86 130.37 145.96 130.06H144.71C144.59 129.98 144.46 129.93 144.3 129.93C143.96 129.93 143.68 130.15 143.57 130.45C143.45 130.38 143.32 130.32 143.17 130.32C142.81 130.32 142.51 130.58 142.43 130.91C142.29 130.8 142.12 130.72 141.93 130.72C141.51 130.72 141.17 131.05 141.15 131.47C141.01 131.31 140.8 131.2 140.57 131.2C140.14 131.2 139.79 131.55 139.79 131.98C139.79 132.41 140.14 132.76 140.57 132.76C141 132.76 141.33 132.43 141.35 132.01H141.36Z" fill="#CCCCCC"/>
</g>
<g style="mix-blend-mode:color-dodge">
<path d="M131.31 135.48C131.31 135.91 131.66 136.26 132.09 136.26C132.52 136.26 132.87 135.91 132.87 135.48C132.87 135.05 132.52 134.7 132.09 134.7C131.66 134.7 131.31 135.05 131.31 135.48Z" fill="#CCCCCC"/>
</g>
<g style="mix-blend-mode:color-dodge">
<path d="M129.38 137.72C129.38 137.29 129.03 136.94 128.6 136.94C128.17 136.94 127.82 137.29 127.82 137.72C127.82 138.15 128.17 138.5 128.6 138.5C129.03 138.5 129.38 138.15 129.38 137.72Z" fill="#CCCCCC"/>
</g>
<g style="mix-blend-mode:color-dodge">
<path d="M125.6 140.74C125.6 140.31 125.25 139.96 124.82 139.96C124.39 139.96 124.04 140.31 124.04 140.74C124.04 141.17 124.39 141.52 124.82 141.52C125.25 141.52 125.6 141.17 125.6 140.74Z" fill="#CCCCCC"/>
</g>
<g style="mix-blend-mode:color-dodge">
<path d="M70.6899 265.16C70.2599 265.16 69.9099 265.51 69.9099 265.94C69.9099 266.37 70.2599 266.72 70.6899 266.72C71.1199 266.72 71.4699 266.37 71.4699 265.94C71.4699 265.51 71.1199 265.16 70.6899 265.16Z" fill="#CCCCCC"/>
</g>
<g style="mix-blend-mode:color-dodge">
<path d="M83.57 219.54C83.14 219.54 82.79 219.89 82.79 220.32C82.79 220.75 83.14 221.1 83.57 221.1C84 221.1 84.35 220.75 84.35 220.32C84.35 219.89 84 219.54 83.57 219.54Z" fill="#CCCCCC"/>
</g>
<g style="mix-blend-mode:color-dodge">
<path d="M77.1799 240.59C76.7499 240.59 76.3999 240.94 76.3999 241.37C76.3999 241.8 76.7499 242.15 77.1799 242.15C77.6099 242.15 77.9599 241.8 77.9599 241.37C77.9599 240.94 77.6099 240.59 77.1799 240.59Z" fill="#CCCCCC"/>
</g>
<g style="mix-blend-mode:color-dodge">
<path d="M0.259949 185.45C0.259949 185.02 -0.09005 184.67 -0.52005 184.67C-0.95005 184.67 -1.30005 185.02 -1.30005 185.45C-1.30005 185.88 -0.95005 186.23 -0.52005 186.23C-0.09005 186.23 0.259949 185.88 0.259949 185.45Z" fill="#CCCCCC"/>
</g>
<g style="mix-blend-mode:color-dodge">
<path d="M2.86995 191.63C2.86995 191.4 2.75996 191.19 2.59996 191.05C2.69996 190.92 2.76996 190.77 2.76996 190.59C2.76996 190.16 2.41996 189.81 1.98996 189.81C1.55996 189.81 1.20996 190.16 1.20996 190.59C1.20996 190.82 1.31995 191.03 1.47995 191.17C1.37995 191.3 1.30995 191.45 1.30995 191.63C1.30995 192.06 1.65995 192.41 2.08995 192.41C2.51995 192.41 2.86995 192.06 2.86995 191.63Z" fill="#CCCCCC"/>
</g>
<g style="mix-blend-mode:color-dodge">
<path d="M9.49994 185.69C9.49994 185.26 9.14994 184.91 8.71994 184.91C8.28994 184.91 7.93994 185.26 7.93994 185.69C7.93994 186.12 8.27995 186.46 8.70995 186.47C8.70995 186.9 9.05994 187.25 9.48994 187.25C9.54994 187.25 9.60994 187.23 9.66994 187.21C9.66994 187.26 9.63994 187.3 9.63994 187.35C9.63994 187.78 9.98994 188.13 10.4199 188.13C10.8499 188.13 11.1999 187.78 11.1999 187.35C11.1999 186.92 10.8499 186.57 10.4199 186.57C10.3599 186.57 10.2999 186.59 10.2399 186.61C10.2399 186.56 10.2699 186.52 10.2699 186.47C10.2699 186.04 9.91994 185.69 9.49994 185.69Z" fill="#CCCCCC"/>
</g>
<g style="mix-blend-mode:color-dodge">
<path d="M23.2999 176.5C23.2999 176.29 23.2199 176.11 23.0899 175.97C23.4499 175.9 23.7299 175.6 23.7299 175.22C23.7299 174.79 23.3799 174.44 22.9499 174.44C22.5199 174.44 22.1699 174.79 22.1699 175.22C22.1699 175.43 22.2499 175.61 22.3799 175.75C22.0199 175.82 21.7399 176.12 21.7399 176.5C21.7399 176.61 21.7699 176.72 21.8099 176.82C21.7699 176.82 21.7399 176.8 21.6999 176.8C21.2699 176.8 20.9199 177.15 20.9199 177.58C20.9199 178.01 21.2699 178.36 21.6999 178.36C22.1299 178.36 22.4799 178.01 22.4799 177.58C22.4799 177.47 22.4499 177.36 22.4099 177.26C22.4499 177.26 22.4799 177.28 22.5199 177.28C22.9499 177.28 23.2999 176.93 23.2999 176.5Z" fill="#CCCCCC"/>
</g>
<g style="mix-blend-mode:color-dodge">
<path d="M34.1099 168.71C33.6799 168.71 33.3299 169.06 33.3299 169.49C33.3299 169.64 33.3799 169.77 33.4599 169.89C33.3699 170.02 33.3099 170.16 33.3099 170.33C33.3099 170.36 33.3299 170.39 33.3299 170.42C33.1699 170.56 33.0699 170.77 33.0699 170.99C33.0699 171.17 33.1399 171.33 33.2499 171.47C33.0599 171.61 32.9299 171.83 32.9299 172.09C32.9299 172.52 33.2799 172.87 33.7099 172.87C34.1399 172.87 34.4899 172.52 34.4899 172.09C34.4899 171.91 34.4199 171.75 34.3099 171.61C34.4999 171.47 34.6299 171.25 34.6299 170.99C34.6299 170.96 34.6099 170.93 34.6099 170.9C34.7699 170.76 34.8699 170.55 34.8699 170.33C34.8699 170.18 34.8199 170.05 34.7399 169.93C34.8299 169.8 34.8899 169.66 34.8899 169.49C34.8899 169.06 34.5399 168.71 34.1099 168.71Z" fill="#CCCCCC"/>
</g>
<g style="mix-blend-mode:color-dodge">
<path d="M19.24 181.56C19.24 181.13 18.89 180.78 18.46 180.78C18.15 180.78 17.89 180.97 17.76 181.23C17.69 180.87 17.39 180.59 17.01 180.59C16.58 180.59 16.23 180.94 16.23 181.37C16.23 181.8 16.58 182.15 17.01 182.15C17.32 182.15 17.58 181.96 17.71 181.7C17.78 182.06 18.08 182.34 18.46 182.34C18.89 182.34 19.24 181.99 19.24 181.56Z" fill="#CCCCCC"/>
</g>
<g style="mix-blend-mode:color-dodge">
<path d="M6.45995 189.05C6.46995 189 6.48994 188.95 6.48994 188.89C6.48994 188.46 6.13995 188.11 5.70995 188.11C5.27995 188.11 4.92993 188.46 4.92993 188.89C4.92993 189.17 5.07994 189.4 5.29994 189.54C5.28994 189.59 5.26994 189.64 5.26994 189.7C5.26994 190.13 5.61994 190.48 6.04994 190.48C6.47994 190.48 6.82994 190.13 6.82994 189.7C6.82994 189.42 6.67995 189.19 6.45995 189.05Z" fill="#CCCCCC"/>
</g>
<g style="mix-blend-mode:color-dodge">
<path d="M13.3799 183.1C13.2799 183.1 13.1899 183.12 13.1099 183.15C12.9699 182.92 12.7299 182.75 12.4399 182.75C12.0099 182.75 11.6599 183.1 11.6599 183.53C11.6599 183.96 12.0099 184.31 12.4399 184.31C12.5399 184.31 12.6299 184.29 12.7099 184.25C12.8499 184.49 13.0899 184.65 13.3799 184.65C13.8099 184.65 14.1599 184.3 14.1599 183.87C14.1599 183.44 13.8099 183.09 13.3799 183.09V183.1Z" fill="#CCCCCC"/>
</g>
<g style="mix-blend-mode:color-dodge">
<path d="M8.79001 179.51C8.36001 179.51 8.01001 179.86 8.01001 180.29C8.01001 180.72 8.36001 181.07 8.79001 181.07C9.22001 181.07 9.57002 180.72 9.57002 180.29C9.57002 179.86 9.22001 179.51 8.79001 179.51Z" fill="#CCCCCC"/>
</g>
<g style="mix-blend-mode:color-dodge">
<path d="M4.54999 185.57C4.54999 185.14 4.19999 184.79 3.76999 184.79C3.33999 184.79 2.98999 185.14 2.98999 185.57C2.98999 186 3.33999 186.35 3.76999 186.35C4.19999 186.35 4.54999 186 4.54999 185.57Z" fill="#CCCCCC"/>
</g>
<g style="mix-blend-mode:color-dodge">
<path d="M2.98996 196.62C3.42074 196.62 3.76996 196.271 3.76996 195.84C3.76996 195.409 3.42074 195.06 2.98996 195.06C2.55918 195.06 2.20996 195.409 2.20996 195.84C2.20996 196.271 2.55918 196.62 2.98996 196.62Z" fill="#CCCCCC"/>
</g>
<g style="mix-blend-mode:color-dodge">
<path d="M29.0099 171.23C29.0099 170.8 28.6599 170.45 28.2299 170.45C27.7999 170.45 27.4499 170.8 27.4499 171.23C27.4499 171.52 27.6099 171.75 27.8399 171.89C27.6099 172.03 27.4499 172.27 27.4499 172.55C27.4499 172.62 27.4699 172.68 27.4899 172.74C27.2199 172.86 27.0299 173.13 27.0299 173.45C27.0299 173.53 27.0499 173.6 27.0799 173.68C26.7199 173.75 26.4399 174.05 26.4399 174.44C26.4399 174.87 26.7899 175.22 27.2199 175.22C27.6499 175.22 27.9999 174.87 27.9999 174.44C27.9999 174.36 27.9799 174.29 27.9499 174.21C28.3099 174.14 28.5899 173.84 28.5899 173.46C28.5899 173.39 28.5699 173.33 28.5499 173.27C28.8199 173.15 29.0099 172.88 29.0099 172.56C29.0099 172.27 28.8499 172.04 28.6199 171.9C28.8499 171.76 29.0099 171.52 29.0099 171.24V171.23Z" fill="#CCCCCC"/>
</g>
<g style="mix-blend-mode:color-dodge">
<path d="M17.9699 177.79C17.5399 177.79 17.1899 178.14 17.1899 178.57C17.1899 179 17.5399 179.35 17.9699 179.35C18.3999 179.35 18.7499 179 18.7499 178.57C18.7499 178.14 18.3999 177.79 17.9699 177.79Z" fill="#CCCCCC"/>
</g>
<g style="mix-blend-mode:color-dodge">
<path d="M18.52 175.78C18.9508 175.78 19.3 175.431 19.3 175C19.3 174.569 18.9508 174.22 18.52 174.22C18.0892 174.22 17.74 174.569 17.74 175C17.74 175.431 18.0892 175.78 18.52 175.78Z" fill="#CCCCCC"/>
</g>
<g style="mix-blend-mode:color-dodge">
<path d="M13.3999 180.63C13.8299 180.63 14.1799 180.28 14.1799 179.85C14.1799 179.42 13.8299 179.07 13.3999 179.07C12.9699 179.07 12.6199 179.42 12.6199 179.85C12.6199 180.28 12.9699 180.63 13.3999 180.63Z" fill="#CCCCCC"/>
</g>
<g style="mix-blend-mode:color-dodge">
<path d="M386.56 187.43C386.56 187 386.21 186.65 385.78 186.65C385.35 186.65 385 187 385 187.43C385 187.43 385 187.43 385 187.44C384.73 187.56 384.54 187.83 384.54 188.15C384.54 188.58 384.89 188.93 385.32 188.93C385.75 188.93 386.1 188.58 386.1 188.15C386.1 188.15 386.1 188.15 386.1 188.14C386.37 188.02 386.56 187.75 386.56 187.43Z" fill="#CCCCCC"/>
</g>
<g style="mix-blend-mode:color-dodge">
<path d="M384.33 183.8C384.76 183.8 385.11 183.45 385.11 183.02C385.11 182.59 384.76 182.24 384.33 182.24C383.9 182.24 383.55 182.59 383.55 183.02C383.55 183.45 383.9 183.8 384.33 183.8Z" fill="#CCCCCC"/>
</g>
<g style="mix-blend-mode:color-dodge">
<path d="M369.31 171.8C368.88 171.8 368.53 172.15 368.53 172.58C368.53 173.01 368.88 173.36 369.31 173.36C369.74 173.36 370.09 173.01 370.09 172.58C370.09 172.15 369.74 171.8 369.31 171.8Z" fill="#CCCCCC"/>
</g>
<g style="mix-blend-mode:color-dodge">
<path d="M374.47 178.02C374.9 178.02 375.25 177.67 375.25 177.24C375.25 176.81 374.9 176.46 374.47 176.46C374.04 176.46 373.69 176.81 373.69 177.24C373.69 177.67 374.04 178.02 374.47 178.02Z" fill="#CCCCCC"/>
</g>
<g style="mix-blend-mode:color-dodge">
<path d="M388.75 183.93C389.18 183.93 389.53 183.58 389.53 183.15C389.53 182.72 389.18 182.37 388.75 182.37C388.32 182.37 387.97 182.72 387.97 183.15C387.97 183.58 388.32 183.93 388.75 183.93Z" fill="#CCCCCC"/>
</g>
<g style="mix-blend-mode:color-dodge">
<path d="M393.69 189.45C394.12 189.45 394.47 189.1 394.47 188.67C394.47 188.24 394.12 187.89 393.69 187.89C393.26 187.89 392.91 188.24 392.91 188.67C392.91 189.1 393.26 189.45 393.69 189.45Z" fill="#CCCCCC"/>
</g>
<g style="mix-blend-mode:color-dodge">
<path d="M378.47 177.92C378.47 178.35 378.82 178.7 379.25 178.7C379.68 178.7 380.03 178.35 380.03 177.92C380.03 177.49 379.68 177.14 379.25 177.14C378.82 177.14 378.47 177.49 378.47 177.92Z" fill="#CCCCCC"/>
</g>
<g style="mix-blend-mode:color-dodge">
<path d="M373.48 179.58C373.61 179.82 373.86 179.99 374.16 179.99C374.59 179.99 374.94 179.64 374.94 179.21C374.94 178.78 374.59 178.43 374.16 178.43C373.84 178.43 373.57 178.62 373.45 178.9C373.32 178.66 373.07 178.49 372.77 178.49C372.63 178.49 372.5 178.54 372.38 178.61C372.51 178.47 372.6 178.28 372.6 178.08C372.6 177.65 372.25 177.31 371.83 177.3C371.89 177.19 371.93 177.07 371.93 176.94C371.93 176.51 371.58 176.16 371.15 176.16C370.72 176.16 370.37 176.51 370.37 176.94C370.37 177.37 370.72 177.71 371.14 177.72C371.08 177.83 371.04 177.95 371.04 178.08C371.04 178.51 371.39 178.86 371.82 178.86C371.96 178.86 372.09 178.81 372.21 178.74C372.08 178.88 371.99 179.07 371.99 179.27C371.99 179.7 372.34 180.05 372.77 180.05C373.09 180.05 373.36 179.86 373.48 179.58Z" fill="#CCCCCC"/>
</g>
<g style="mix-blend-mode:color-dodge">
<path d="M365.61 175.78C365.49 175.92 365.41 176.09 365.41 176.28C365.41 176.71 365.76 177.06 366.19 177.06C366.62 177.06 366.97 176.71 366.97 176.28C366.97 175.85 366.62 175.5 366.19 175.5C366.19 175.5 366.18 175.5 366.17 175.5C366.29 175.36 366.36 175.19 366.36 175C366.36 174.63 366.1 174.34 365.76 174.25C365.76 174.2 365.79 174.16 365.79 174.11C365.79 173.82 365.63 173.58 365.4 173.45C365.48 173.33 365.54 173.19 365.54 173.03C365.54 172.6 365.19 172.25 364.76 172.25C364.33 172.25 363.98 172.6 363.98 173.03C363.98 173.32 364.14 173.56 364.37 173.7C364.29 173.82 364.23 173.96 364.23 174.12C364.23 174.49 364.49 174.78 364.83 174.86C364.83 174.91 364.8 174.95 364.8 175C364.8 175.43 365.15 175.78 365.58 175.78C365.58 175.78 365.59 175.78 365.6 175.78H365.61Z" fill="#CCCCCC"/>
</g>
<g style="mix-blend-mode:color-dodge">
<path d="M389.38 191.34C389.64 191.21 389.83 190.95 389.83 190.64C389.83 190.47 389.76 190.32 389.67 190.19C390 190.1 390.25 189.81 390.25 189.45C390.25 189.02 389.9 188.67 389.47 188.67C389.04 188.67 388.69 189.02 388.69 189.45C388.69 189.62 388.76 189.77 388.85 189.9C388.52 189.99 388.27 190.28 388.27 190.64C388.27 190.84 388.35 191.01 388.47 191.15C388.21 191.28 388.02 191.54 388.02 191.85C388.02 192.28 388.37 192.63 388.8 192.63C389.23 192.63 389.58 192.28 389.58 191.85C389.58 191.65 389.5 191.48 389.38 191.34Z" fill="#CCCCCC"/>
</g>
<g style="mix-blend-mode:color-dodge">
<path d="M380.89 186.81C381.23 186.81 381.52 186.59 381.62 186.28C381.65 186.28 381.67 186.3 381.7 186.3C382.13 186.3 382.48 185.95 382.48 185.52C382.48 185.09 382.13 184.74 381.7 184.74C381.36 184.74 381.07 184.97 380.97 185.27C380.94 185.27 380.92 185.25 380.89 185.25C380.46 185.25 380.11 185.6 380.11 186.03C380.11 186.46 380.46 186.81 380.89 186.81Z" fill="#CCCCCC"/>
</g>
<g style="mix-blend-mode:color-dodge">
<path d="M383.72 191.74C383.72 191.31 383.37 190.96 382.94 190.96C382.51 190.96 382.16 191.31 382.16 191.74C382.16 192.17 382.51 192.52 382.94 192.52C383.37 192.52 383.72 192.17 383.72 191.74Z" fill="#CCCCCC"/>
</g>
<g style="mix-blend-mode:color-dodge">
<path d="M374.74 185.05C375.17 185.05 375.52 184.7 375.52 184.27C375.52 183.84 375.17 183.49 374.74 183.49C374.31 183.49 373.96 183.84 373.96 184.27C373.96 184.7 374.31 185.05 374.74 185.05Z" fill="#CCCCCC"/>
</g>
<g style="mix-blend-mode:color-dodge">
<path d="M392.26 200.51C392.26 200.08 391.91 199.73 391.48 199.73C391.05 199.73 390.7 200.08 390.7 200.51C390.7 200.94 391.05 201.29 391.48 201.29C391.91 201.29 392.26 200.94 392.26 200.51Z" fill="#CCCCCC"/>
</g>
<g style="mix-blend-mode:color-dodge">
<path d="M395.25 196.34C395.68 196.34 396.03 195.99 396.03 195.56C396.03 195.16 395.73 194.85 395.34 194.8C395.58 194.67 395.76 194.42 395.76 194.12C395.76 193.69 395.41 193.34 394.98 193.34C394.55 193.34 394.2 193.69 394.2 194.12C394.2 194.2 394.22 194.27 394.24 194.34C394.17 194.19 394.06 194.08 393.92 193.99C394.04 193.85 394.12 193.67 394.12 193.47C394.12 193.04 393.77 192.69 393.34 192.69C392.91 192.69 392.56 193.04 392.56 193.47C392.56 193.75 392.72 193.99 392.95 194.13C392.83 194.27 392.75 194.44 392.75 194.64C392.75 195.07 393.1 195.42 393.53 195.42C393.96 195.42 394.31 195.07 394.31 194.64C394.31 194.56 394.29 194.49 394.26 194.42C394.37 194.67 394.6 194.83 394.88 194.87C394.64 195 394.46 195.25 394.46 195.55C394.46 195.98 394.81 196.33 395.24 196.33L395.25 196.34Z" fill="#CCCCCC"/>
</g>
<g style="mix-blend-mode:color-dodge">
<path d="M352.76 165.85C352.33 165.85 351.98 166.2 351.98 166.63C351.98 166.67 352 166.71 352 166.75C351.87 166.89 351.79 167.07 351.79 167.28C351.79 167.33 351.81 167.38 351.82 167.43C351.77 167.54 351.73 167.65 351.73 167.78C351.73 167.9 351.76 168.01 351.81 168.11C351.61 168.25 351.47 168.47 351.47 168.74C351.47 169.17 351.82 169.52 352.25 169.52C352.68 169.52 353.03 169.17 353.03 168.74C353.03 168.62 353 168.51 352.95 168.41C353.15 168.27 353.29 168.05 353.29 167.78C353.29 167.73 353.27 167.68 353.26 167.63C353.31 167.52 353.35 167.41 353.35 167.28C353.35 167.24 353.33 167.2 353.33 167.16C353.46 167.02 353.54 166.84 353.54 166.63C353.54 166.2 353.19 165.85 352.76 165.85Z" fill="#CCCCCC"/>
</g>
<g style="mix-blend-mode:color-dodge">
<path d="M379.12 182.95C379.23 183.01 379.35 183.05 379.48 183.05C379.91 183.05 380.26 182.7 380.26 182.27C380.26 181.84 379.91 181.49 379.48 181.49C379.13 181.49 378.84 181.73 378.74 182.06C378.63 182 378.51 181.96 378.38 181.96C377.95 181.96 377.6 182.31 377.6 182.74C377.6 183.17 377.95 183.52 378.38 183.52C378.73 183.52 379.02 183.28 379.12 182.95Z" fill="#CCCCCC"/>
</g>
<g style="mix-blend-mode:color-dodge">
<path d="M160.44 128.58H159.59C159.45 128.45 159.26 128.36 159.06 128.36C158.8 128.36 158.58 128.49 158.44 128.69C158.38 128.68 158.33 128.65 158.26 128.65C157.99 128.65 157.77 128.79 157.63 129C157.55 128.97 157.47 128.95 157.39 128.95C157.09 128.95 156.84 129.12 156.71 129.37C156.62 129.34 156.53 129.31 156.43 129.31C156.08 129.31 155.79 129.55 155.69 129.87C155.59 129.83 155.49 129.8 155.38 129.8C154.95 129.8 154.6 130.15 154.6 130.58C154.6 130.58 154.6 130.59 154.6 130.6C154.49 130.54 154.37 130.5 154.24 130.5C153.81 130.5 153.46 130.85 153.46 131.28C153.46 131.71 153.81 132.06 154.24 132.06C154.67 132.06 155.02 131.71 155.02 131.28C155.02 131.28 155.02 131.27 155.02 131.26C155.13 131.32 155.25 131.36 155.38 131.36C155.73 131.36 156.02 131.12 156.12 130.8C156.22 130.84 156.32 130.87 156.43 130.87C156.73 130.87 156.98 130.7 157.11 130.45C157.2 130.48 157.29 130.51 157.39 130.51C157.66 130.51 157.88 130.37 158.02 130.16C158.1 130.19 158.18 130.21 158.26 130.21C158.52 130.21 158.74 130.08 158.88 129.88C158.94 129.89 158.99 129.92 159.06 129.92C159.49 129.92 159.84 129.57 159.84 129.14C159.84 129.12 159.84 129.11 159.83 129.09C160.12 129.04 160.35 128.84 160.44 128.57V128.58Z" fill="#CCCCCC"/>
</g>
<g style="mix-blend-mode:color-dodge">
<path d="M3.51001 180.69C3.86001 180.69 4.14002 180.46 4.24002 180.15H2.77002C2.87002 180.46 3.16002 180.69 3.50002 180.69H3.51001Z" fill="#CCCCCC"/>
</g>
<g style="mix-blend-mode:color-dodge">
<path d="M12.95 175.9C13.3 175.9 13.5799 175.67 13.6799 175.36H12.21C12.31 175.67 12.6 175.9 12.94 175.9H12.95Z" fill="#CCCCCC"/>
</g>
<g style="mix-blend-mode:color-dodge">
<path d="M22.76 170.99C23.11 170.99 23.39 170.76 23.49 170.45H22.02C22.12 170.76 22.41 170.99 22.75 170.99H22.76Z" fill="#CCCCCC"/>
</g>
<g style="mix-blend-mode:color-dodge">
<path d="M66.6599 151.34C67.0099 151.34 67.2899 151.11 67.3899 150.8H65.9199C66.0199 151.11 66.3099 151.34 66.6499 151.34H66.6599Z" fill="#CCCCCC"/>
</g>
<g style="mix-blend-mode:color-dodge">
<path d="M54.9199 156.12C55.2699 156.12 55.5499 155.89 55.6499 155.58H54.1799C54.2799 155.89 54.5699 156.12 54.9099 156.12H54.9199Z" fill="#CCCCCC"/>
</g>
<g style="mix-blend-mode:color-dodge">
<path d="M33.01 166.02C33.36 166.02 33.64 165.79 33.74 165.48H32.27C32.37 165.79 32.66 166.02 33 166.02H33.01Z" fill="#CCCCCC"/>
</g>
<g style="mix-blend-mode:color-dodge">
<path d="M44.45 160.5H42.98C43.08 160.81 43.37 161.04 43.71 161.04C44.05 161.04 44.34 160.81 44.44 160.5H44.45Z" fill="#CCCCCC"/>
</g>
<g style="mix-blend-mode:color-dodge">
<path d="M332.23 153.95C332.58 153.95 332.86 153.72 332.96 153.41H331.49C331.59 153.72 331.88 153.95 332.22 153.95H332.23Z" fill="#CCCCCC"/>
</g>
<g style="mix-blend-mode:color-dodge">
<path d="M343.67 158.82C344.02 158.82 344.3 158.59 344.4 158.28H342.93C343.03 158.59 343.32 158.82 343.66 158.82H343.67Z" fill="#CCCCCC"/>
</g>
<g style="mix-blend-mode:color-dodge">
<path d="M365.05 168.76C365.4 168.76 365.68 168.53 365.78 168.22H364.31C364.41 168.53 364.7 168.76 365.04 168.76H365.05Z" fill="#CCCCCC"/>
</g>
<g style="mix-blend-mode:color-dodge">
<path d="M354.61 163.77C354.96 163.77 355.24 163.54 355.34 163.23H353.87C353.97 163.54 354.26 163.77 354.6 163.77H354.61Z" fill="#CCCCCC"/>
</g>
<g style="mix-blend-mode:color-dodge">
<path d="M308.14 145.32H306.67C306.71 145.44 306.78 145.54 306.86 145.62C306.47 145.66 306.15 145.98 306.15 146.39C306.15 146.48 306.17 146.57 306.2 146.65C306.05 146.79 305.96 146.99 305.96 147.21C305.96 147.64 306.31 147.99 306.74 147.99C307.17 147.99 307.52 147.64 307.52 147.21C307.52 147.12 307.5 147.03 307.47 146.95C307.62 146.81 307.71 146.61 307.71 146.39C307.71 146.17 307.62 145.99 307.49 145.84C307.79 145.8 308.04 145.6 308.13 145.32H308.14Z" fill="#CCCCCC"/>
</g>
<g style="mix-blend-mode:color-dodge">
<path d="M320.26 149.25C320.61 149.25 320.89 149.02 320.99 148.71H319.52C319.62 149.02 319.91 149.25 320.25 149.25H320.26Z" fill="#CCCCCC"/>
</g>
<g style="mix-blend-mode:color-dodge">
<path d="M294.74 140.65C295.09 140.65 295.37 140.42 295.47 140.11H294C294.1 140.42 294.39 140.65 294.73 140.65H294.74Z" fill="#CCCCCC"/>
</g>
<g style="mix-blend-mode:color-dodge">
<path d="M374.32 173.17C374.42 173.48 374.71 173.71 375.05 173.71C375.39 173.71 375.68 173.48 375.78 173.17H374.31H374.32Z" fill="#CCCCCC"/>
</g>
<g style="mix-blend-mode:color-dodge">
<path d="M104.28 137.99C104.38 138.3 104.67 138.53 105.01 138.53C105.35 138.53 105.64 138.3 105.74 137.99H104.27H104.28Z" fill="#CCCCCC"/>
</g>
<g style="mix-blend-mode:color-dodge">
<path d="M384.65 178.55C385 178.55 385.28 178.32 385.38 178.01H383.91C384.01 178.32 384.3 178.55 384.64 178.55H384.65Z" fill="#CCCCCC"/>
</g>
<g style="mix-blend-mode:color-dodge">
<path d="M192.85 127.62C192.71 127.44 192.5 127.33 192.25 127.33C192 127.33 191.8 127.45 191.65 127.62H191.58C191.58 127.62 191.6 127.66 191.61 127.68C191.56 127.75 191.53 127.83 191.5 127.91C191.47 127.97 191.44 128.03 191.42 128.09C191.37 128.17 191.34 128.26 191.32 128.35C191.24 128.47 191.19 128.6 191.19 128.76C191.13 128.87 191.08 129 191.08 129.14C191.08 129.19 191.1 129.24 191.11 129.29C191.02 129.42 190.96 129.56 190.96 129.72C190.96 129.84 190.99 129.95 191.04 130.06C190.91 130.2 190.83 130.38 190.83 130.59C190.83 130.82 190.93 131.02 191.09 131.16C190.86 131.29 190.69 131.54 190.69 131.83C190.69 132.26 191.04 132.61 191.47 132.61C191.9 132.61 192.25 132.26 192.25 131.83C192.25 131.6 192.15 131.4 191.99 131.26C192.22 131.13 192.39 130.88 192.39 130.59C192.39 130.47 192.36 130.36 192.31 130.25C192.44 130.11 192.52 129.93 192.52 129.72C192.52 129.67 192.5 129.62 192.49 129.57C192.58 129.44 192.64 129.3 192.64 129.14C192.68 129.07 192.7 128.99 192.72 128.91C192.76 128.85 192.79 128.79 192.81 128.72C192.85 128.65 192.88 128.58 192.9 128.51C192.97 128.39 193.02 128.26 193.02 128.12C193.02 128.01 192.99 127.9 192.95 127.8C192.98 127.74 193.02 127.69 193.04 127.63H192.84L192.85 127.62Z" fill="#CCCCCC"/>
</g>
<g style="mix-blend-mode:color-dodge">
<path d="M132.41 132.24H130.94C130.97 132.31 131 132.38 131.05 132.45C130.91 132.31 130.72 132.22 130.5 132.22C130.07 132.22 129.72 132.57 129.72 133C129.72 133.06 129.74 133.12 129.76 133.17C129.63 132.91 129.37 132.73 129.07 132.73C128.64 132.73 128.29 133.08 128.29 133.51C128.29 133.94 128.64 134.29 129.07 134.29C129.5 134.29 129.85 133.94 129.85 133.51C129.85 133.45 129.83 133.39 129.81 133.33C129.94 133.59 130.2 133.77 130.5 133.77C130.93 133.77 131.28 133.42 131.28 132.99C131.28 132.78 131.2 132.6 131.06 132.46C131.2 132.65 131.42 132.77 131.67 132.77C132.02 132.77 132.3 132.54 132.4 132.23L132.41 132.24Z" fill="#CCCCCC"/>
</g>
<g style="mix-blend-mode:color-dodge">
<path d="M118.8 135.03C119.15 135.03 119.43 134.8 119.53 134.49H118.06C118.16 134.8 118.45 135.03 118.79 135.03H118.8Z" fill="#CCCCCC"/>
</g>
<g style="mix-blend-mode:color-dodge">
<path d="M267.23 133.61C267.58 133.61 267.86 133.38 267.96 133.07H266.49C266.59 133.38 266.88 133.61 267.22 133.61H267.23Z" fill="#CCCCCC"/>
</g>
<g style="mix-blend-mode:color-dodge">
<path d="M281.71 137.05H280.24C280.29 137.2 280.38 137.33 280.5 137.42C280.09 137.44 279.76 137.78 279.76 138.19C279.76 138.6 280.11 138.97 280.54 138.97C280.97 138.97 281.32 138.62 281.32 138.19C281.32 137.94 281.19 137.72 281 137.58C281.33 137.56 281.6 137.34 281.7 137.05H281.71Z" fill="#CCCCCC"/>
</g>
<g style="mix-blend-mode:color-dodge">
<path d="M241.62 130.71C241.73 130.71 241.83 130.69 241.93 130.64C242.06 130.88 242.31 131.05 242.6 131.05C242.74 131.05 242.86 131.01 242.97 130.94C243.09 131.21 243.36 131.4 243.68 131.4C243.85 131.4 243.99 131.34 244.12 131.25C244.21 131.58 244.5 131.82 244.86 131.82C245.06 131.82 245.23 131.74 245.37 131.62C245.38 132.04 245.72 132.38 246.15 132.38C246.58 132.38 246.93 132.03 246.93 131.6C246.93 131.17 246.58 130.82 246.15 130.82C245.95 130.82 245.78 130.9 245.64 131.02C245.62 130.6 245.28 130.26 244.86 130.26C244.69 130.26 244.55 130.32 244.42 130.41C244.33 130.08 244.04 129.84 243.68 129.84C243.54 129.84 243.42 129.88 243.31 129.95C243.19 129.68 242.92 129.49 242.6 129.49C242.49 129.49 242.38 129.51 242.29 129.56C242.16 129.32 241.91 129.15 241.62 129.15C241.44 129.15 241.28 129.22 241.15 129.32H240.09C240.19 129.63 240.48 129.86 240.82 129.86C240.83 129.86 240.84 129.86 240.86 129.86C240.86 129.89 240.84 129.91 240.84 129.94C240.84 130.37 241.19 130.72 241.62 130.72V130.71Z" fill="#CCCCCC"/>
</g>
<g style="mix-blend-mode:color-dodge">
<path d="M239.21 139.46C239.21 139.03 238.86 138.68 238.43 138.68C238 138.68 237.65 139.03 237.65 139.46C237.65 139.89 238 140.24 238.43 140.24C238.86 140.24 239.21 139.89 239.21 139.46Z" fill="#CCCCCC"/>
</g>
<g style="mix-blend-mode:color-dodge">
<path d="M236.09 136.63C236.521 136.63 236.87 136.281 236.87 135.85C236.87 135.419 236.521 135.07 236.09 135.07C235.659 135.07 235.31 135.419 235.31 135.85C235.31 136.281 235.659 136.63 236.09 136.63Z" fill="#CCCCCC"/>
</g>
<g style="mix-blend-mode:color-dodge">
<path d="M231.25 132.54C231.68 132.54 232.03 132.19 232.03 131.76C232.03 131.33 231.68 130.98 231.25 130.98C231.16 130.98 231.07 131 230.99 131.03C231.01 130.96 231.03 130.89 231.03 130.82C231.03 130.39 230.68 130.04 230.25 130.04C230.19 130.04 230.15 130.06 230.1 130.07C230.05 129.68 229.73 129.38 229.34 129.38C229.3 129.38 229.26 129.4 229.22 129.4C229.1 129.12 228.82 128.92 228.5 128.92C228.45 128.92 228.41 128.94 228.37 128.95C228.23 128.74 228 128.6 227.73 128.6C227.69 128.6 227.65 128.62 227.62 128.62C227.48 128.45 227.27 128.34 227.03 128.34C227.01 128.34 226.99 128.35 226.97 128.35C226.83 128.19 226.62 128.08 226.39 128.08C226.16 128.08 225.97 128.18 225.83 128.32H225.14C225.22 128.55 225.39 128.73 225.62 128.81C225.62 128.83 225.62 128.84 225.62 128.85C225.62 129.28 225.97 129.63 226.4 129.63C226.42 129.63 226.44 129.62 226.46 129.62C226.6 129.78 226.81 129.89 227.04 129.89C227.08 129.89 227.12 129.87 227.15 129.87C227.29 130.04 227.5 130.15 227.74 130.15C227.79 130.15 227.83 130.13 227.88 130.12C228.02 130.33 228.25 130.47 228.51 130.47C228.55 130.47 228.59 130.45 228.63 130.45C228.75 130.73 229.03 130.93 229.35 130.93C229.41 130.93 229.45 130.91 229.5 130.9C229.55 131.29 229.87 131.59 230.26 131.59C230.35 131.59 230.44 131.57 230.52 131.54C230.5 131.61 230.48 131.68 230.48 131.75C230.48 132.18 230.83 132.53 231.26 132.53L231.25 132.54Z" fill="#CCCCCC"/>
</g>
<g style="mix-blend-mode:color-dodge">
<path d="M240.96 143.45C240.53 143.45 240.18 143.8 240.18 144.23C240.18 144.66 240.53 145.01 240.96 145.01C241.39 145.01 241.74 144.66 241.74 144.23C241.74 143.8 241.39 143.45 240.96 143.45Z" fill="#CCCCCC"/>
</g>
<g style="mix-blend-mode:color-dodge">
<path d="M249.72 167.29C249.29 167.29 248.94 167.64 248.94 168.07C248.94 168.5 249.29 168.85 249.72 168.85C250.15 168.85 250.5 168.5 250.5 168.07C250.5 167.64 250.15 167.29 249.72 167.29Z" fill="#CCCCCC"/>
</g>
<g style="mix-blend-mode:color-dodge">
<path d="M243.67 149.64C243.24 149.64 242.89 149.99 242.89 150.42C242.89 150.85 243.24 151.2 243.67 151.2C244.1 151.2 244.45 150.85 244.45 150.42C244.45 149.99 244.1 149.64 243.67 149.64Z" fill="#CCCCCC"/>
</g>
<g style="mix-blend-mode:color-dodge">
<path d="M246.59 157.49C246.16 157.49 245.81 157.84 245.81 158.27C245.81 158.7 246.16 159.05 246.59 159.05C247.02 159.05 247.37 158.7 247.37 158.27C247.37 157.84 247.02 157.49 246.59 157.49Z" fill="#CCCCCC"/>
</g>
<g style="mix-blend-mode:color-dodge">
<path d="M253.05 179.33C252.62 179.33 252.27 179.68 252.27 180.11C252.27 180.54 252.62 180.89 253.05 180.89C253.48 180.89 253.83 180.54 253.83 180.11C253.83 179.68 253.48 179.33 253.05 179.33Z" fill="#CCCCCC"/>
</g>
<g style="mix-blend-mode:color-dodge">
<path d="M256.61 193.93C256.18 193.93 255.83 194.28 255.83 194.71C255.83 195.14 256.18 195.49 256.61 195.49C257.04 195.49 257.39 195.14 257.39 194.71C257.39 194.28 257.04 193.93 256.61 193.93Z" fill="#CCCCCC"/>
</g>
<g style="mix-blend-mode:color-dodge">
<path d="M260.38 211.41C259.95 211.41 259.6 211.76 259.6 212.19C259.6 212.62 259.95 212.97 260.38 212.97C260.81 212.97 261.16 212.62 261.16 212.19C261.16 211.76 260.81 211.41 260.38 211.41Z" fill="#CCCCCC"/>
</g>
<g style="mix-blend-mode:color-dodge">
<path d="M268.53 256.54C268.1 256.54 267.75 256.89 267.75 257.32C267.75 257.75 268.1 258.1 268.53 258.1C268.96 258.1 269.31 257.75 269.31 257.32C269.31 256.89 268.96 256.54 268.53 256.54Z" fill="#CCCCCC"/>
</g>
<g style="mix-blend-mode:color-dodge">
<path d="M264.36 232.16C263.93 232.16 263.58 232.51 263.58 232.94C263.58 233.37 263.93 233.72 264.36 233.72C264.79 233.72 265.14 233.37 265.14 232.94C265.14 232.51 264.79 232.16 264.36 232.16Z" fill="#CCCCCC"/>
</g>
<g style="mix-blend-mode:color-dodge">
<path d="M294.33 216.62C293.9 216.62 293.55 216.97 293.55 217.4C293.55 217.83 293.9 218.18 294.33 218.18C294.76 218.18 295.11 217.83 295.11 217.4C295.11 216.97 294.76 216.62 294.33 216.62Z" fill="#CCCCCC"/>
</g>
<g style="mix-blend-mode:color-dodge">
<path d="M359.27 171.96C359.7 171.96 360.05 171.61 360.05 171.18C360.05 170.93 359.92 170.71 359.73 170.57C359.75 170.5 359.77 170.44 359.77 170.37C359.77 170.16 359.68 169.96 359.54 169.82C359.55 169.76 359.57 169.71 359.57 169.66C359.57 169.47 359.49 169.3 359.38 169.17C359.58 169.03 359.72 168.81 359.72 168.54C359.72 168.11 359.37 167.76 358.94 167.76C358.51 167.76 358.16 168.11 358.16 168.54C358.16 168.73 358.24 168.9 358.35 169.03C358.15 169.17 358.01 169.39 358.01 169.66C358.01 169.87 358.1 170.07 358.24 170.21C358.23 170.27 358.21 170.32 358.21 170.37C358.21 170.62 358.34 170.84 358.53 170.98C358.51 171.05 358.49 171.11 358.49 171.18C358.49 171.61 358.84 171.96 359.27 171.96Z" fill="#CCCCCC"/>
</g>
<g style="mix-blend-mode:color-dodge">
<path d="M279.04 144.04C279.47 144.04 279.82 143.69 279.82 143.26C279.82 142.83 279.47 142.48 279.04 142.48C278.61 142.48 278.26 142.83 278.26 143.26C278.26 143.69 278.61 144.04 279.04 144.04Z" fill="#CCCCCC"/>
</g>
<g style="mix-blend-mode:color-dodge">
<path d="M263.57 135.22C264 135.22 264.35 134.87 264.35 134.44C264.35 134.01 264 133.66 263.57 133.66C263.14 133.66 262.79 134.01 262.79 134.44C262.79 134.87 263.14 135.22 263.57 135.22Z" fill="#CCCCCC"/>
</g>
<g style="mix-blend-mode:color-dodge">
<path d="M266.99 136.6C267.42 136.6 267.77 136.25 267.77 135.82C267.77 135.39 267.42 135.04 266.99 135.04C266.56 135.04 266.21 135.39 266.21 135.82C266.21 136.25 266.56 136.6 266.99 136.6Z" fill="#CCCCCC"/>
</g>
<g style="mix-blend-mode:color-dodge">
<path d="M259.35 132.86C259.35 132.43 259 132.08 258.57 132.08C258.28 132.08 258.04 132.24 257.9 132.48C257.9 132.45 257.92 132.42 257.92 132.39C257.92 131.96 257.57 131.61 257.14 131.61C256.93 131.61 256.74 131.7 256.6 131.83C256.55 131.45 256.23 131.15 255.84 131.15C255.72 131.15 255.61 131.18 255.51 131.23H254.04C254.14 131.54 254.43 131.77 254.77 131.77C254.89 131.77 255 131.73 255.1 131.68C255.07 131.76 255.05 131.85 255.05 131.94C255.05 132.37 255.4 132.72 255.83 132.72C256.04 132.72 256.23 132.63 256.37 132.5C256.42 132.88 256.74 133.18 257.13 133.18C257.42 133.18 257.66 133.02 257.8 132.78C257.8 132.81 257.78 132.84 257.78 132.87C257.78 133.3 258.13 133.65 258.56 133.65C258.99 133.65 259.34 133.3 259.34 132.87L259.35 132.86Z" fill="#CCCCCC"/>
</g>
<g style="mix-blend-mode:color-dodge">
<path d="M274.71 140.84C275.14 140.84 275.49 140.49 275.49 140.06C275.49 139.63 275.14 139.28 274.71 139.28C274.28 139.28 273.93 139.63 273.93 140.06C273.93 140.49 274.28 140.84 274.71 140.84Z" fill="#CCCCCC"/>
</g>
<g style="mix-blend-mode:color-dodge">
<path d="M273.87 161.62C273.44 161.62 273.09 161.97 273.09 162.4C273.09 162.83 273.44 163.18 273.87 163.18C274.3 163.18 274.65 162.83 274.65 162.4C274.65 161.97 274.3 161.62 273.87 161.62Z" fill="#CCCCCC"/>
</g>
<g style="mix-blend-mode:color-dodge">
<path d="M283.54 184.01C283.11 184.01 282.76 184.36 282.76 184.79C282.76 185.22 283.11 185.57 283.54 185.57C283.97 185.57 284.32 185.22 284.32 184.79C284.32 184.36 283.97 184.01 283.54 184.01Z" fill="#CCCCCC"/>
</g>
<g style="mix-blend-mode:color-dodge">
<path d="M278.56 171.69C278.13 171.69 277.78 172.04 277.78 172.47C277.78 172.9 278.13 173.25 278.56 173.25C278.99 173.25 279.34 172.9 279.34 172.47C279.34 172.04 278.99 171.69 278.56 171.69Z" fill="#CCCCCC"/>
</g>
<g style="mix-blend-mode:color-dodge">
<path d="M288.81 198.87C288.38 198.87 288.03 199.22 288.03 199.65C288.03 200.08 288.38 200.43 288.81 200.43C289.24 200.43 289.59 200.08 289.59 199.65C289.59 199.22 289.24 198.87 288.81 198.87Z" fill="#CCCCCC"/>
</g>
<g style="mix-blend-mode:color-dodge">
<path d="M257.96 138.16C257.53 138.16 257.18 138.51 257.18 138.94C257.18 139.37 257.53 139.72 257.96 139.72C258.39 139.72 258.74 139.37 258.74 138.94C258.74 138.51 258.39 138.16 257.96 138.16Z" fill="#CCCCCC"/>
</g>
<g style="mix-blend-mode:color-dodge">
<path d="M255.44 136.06C255.44 135.63 255.09 135.28 254.66 135.28C254.23 135.28 253.88 135.63 253.88 136.06C253.88 136.49 254.23 136.84 254.66 136.84C255.09 136.84 255.44 136.49 255.44 136.06Z" fill="#CCCCCC"/>
</g>
<g style="mix-blend-mode:color-dodge">
<path d="M251.61 134.73C252.04 134.73 252.39 134.38 252.39 133.95C252.39 133.52 252.04 133.17 251.61 133.17C251.18 133.17 250.83 133.52 250.83 133.95C250.83 134.38 251.18 134.73 251.61 134.73Z" fill="#CCCCCC"/>
</g>
<g style="mix-blend-mode:color-dodge">
<path d="M300.08 237.59C299.65 237.59 299.3 237.94 299.3 238.37C299.3 238.8 299.65 239.15 300.08 239.15C300.51 239.15 300.86 238.8 300.86 238.37C300.86 237.94 300.51 237.59 300.08 237.59Z" fill="#CCCCCC"/>
</g>
<g style="mix-blend-mode:color-dodge">
<path d="M261.52 142.01C261.09 142.01 260.74 142.36 260.74 142.79C260.74 143.22 261.09 143.57 261.52 143.57C261.95 143.57 262.3 143.22 262.3 142.79C262.3 142.36 261.95 142.01 261.52 142.01Z" fill="#CCCCCC"/>
</g>
<g style="mix-blend-mode:color-dodge">
<path d="M265.35 147.04C264.92 147.04 264.57 147.39 264.57 147.82C264.57 148.25 264.92 148.6 265.35 148.6C265.78 148.6 266.13 148.25 266.13 147.82C266.13 147.39 265.78 147.04 265.35 147.04Z" fill="#CCCCCC"/>
</g>
<g style="mix-blend-mode:color-dodge">
<path d="M269.46 153.49C269.03 153.49 268.68 153.84 268.68 154.27C268.68 154.7 269.03 155.05 269.46 155.05C269.89 155.05 270.24 154.7 270.24 154.27C270.24 153.84 269.89 153.49 269.46 153.49Z" fill="#CCCCCC"/>
</g>
<g style="mix-blend-mode:color-dodge">
<path d="M305.98 262.12C305.55 262.12 305.2 262.47 305.2 262.9C305.2 263.33 305.55 263.68 305.98 263.68C306.41 263.68 306.76 263.33 306.76 262.9C306.76 262.47 306.41 262.12 305.98 262.12Z" fill="#CCCCCC"/>
</g>
<g style="mix-blend-mode:color-dodge">
<path d="M190.47 140.94C190.04 140.94 189.69 141.29 189.69 141.72C189.69 142.15 190.04 142.5 190.47 142.5C190.9 142.5 191.25 142.15 191.25 141.72C191.25 141.29 190.9 140.94 190.47 140.94Z" fill="#CCCCCC"/>
</g>
<g style="mix-blend-mode:color-dodge">
<path d="M190.79 136.35C190.36 136.35 190.01 136.7 190.01 137.13C190.01 137.56 190.36 137.91 190.79 137.91C191.22 137.91 191.57 137.56 191.57 137.13C191.57 136.7 191.22 136.35 190.79 136.35Z" fill="#CCCCCC"/>
</g>
<g style="mix-blend-mode:color-dodge">
<path d="M190.11 146.94C189.68 146.94 189.33 147.29 189.33 147.72C189.33 148.15 189.68 148.5 190.11 148.5C190.54 148.5 190.89 148.15 190.89 147.72C190.89 147.29 190.54 146.94 190.11 146.94Z" fill="#CCCCCC"/>
</g>
<g style="mix-blend-mode:color-dodge">
<path d="M189.74 154.59C189.31 154.59 188.96 154.94 188.96 155.37C188.96 155.8 189.31 156.15 189.74 156.15C190.17 156.15 190.52 155.8 190.52 155.37C190.52 154.94 190.17 154.59 189.74 154.59Z" fill="#CCCCCC"/>
</g>
<g style="mix-blend-mode:color-dodge">
<path d="M189.33 164.18C188.9 164.18 188.55 164.53 188.55 164.96C188.55 165.39 188.9 165.74 189.33 165.74C189.76 165.74 190.11 165.39 190.11 164.96C190.11 164.53 189.76 164.18 189.33 164.18Z" fill="#CCCCCC"/>
</g>
<g style="mix-blend-mode:color-dodge">
<path d="M188.89 176.01C188.46 176.01 188.11 176.36 188.11 176.79C188.11 177.22 188.46 177.57 188.89 177.57C189.32 177.57 189.67 177.22 189.67 176.79C189.67 176.36 189.32 176.01 188.89 176.01Z" fill="#CCCCCC"/>
</g>
<g style="mix-blend-mode:color-dodge">
<path d="M188.42 190.38C187.99 190.38 187.64 190.73 187.64 191.16C187.64 191.59 187.99 191.94 188.42 191.94C188.85 191.94 189.2 191.59 189.2 191.16C189.2 190.73 188.85 190.38 188.42 190.38Z" fill="#CCCCCC"/>
</g>
<g style="mix-blend-mode:color-dodge">
<path d="M186.82 252.33C186.39 252.33 186.04 252.68 186.04 253.11C186.04 253.54 186.39 253.89 186.82 253.89C187.25 253.89 187.6 253.54 187.6 253.11C187.6 252.68 187.25 252.33 186.82 252.33Z" fill="#CCCCCC"/>
</g>
<g style="mix-blend-mode:color-dodge">
<path d="M187.39 228.16C186.96 228.16 186.61 228.51 186.61 228.94C186.61 229.37 186.96 229.72 187.39 229.72C187.82 229.72 188.17 229.37 188.17 228.94C188.17 228.51 187.82 228.16 187.39 228.16Z" fill="#CCCCCC"/>
</g>
<g style="mix-blend-mode:color-dodge">
<path d="M187.92 207.64C187.49 207.64 187.14 207.99 187.14 208.42C187.14 208.85 187.49 209.2 187.92 209.2C188.35 209.2 188.7 208.85 188.7 208.42C188.7 207.99 188.35 207.64 187.92 207.64Z" fill="#CCCCCC"/>
</g>
<g style="mix-blend-mode:color-dodge">
<path d="M220.55 165.53C220.55 165.1 220.2 164.75 219.77 164.75C219.34 164.75 218.99 165.1 218.99 165.53C218.99 165.96 219.34 166.31 219.77 166.31C220.2 166.31 220.55 165.96 220.55 165.53Z" fill="#CCCCCC"/>
</g>
<g style="mix-blend-mode:color-dodge">
<path d="M213.09 132.18C213.09 131.79 212.8 131.48 212.42 131.42C212.53 131.28 212.61 131.12 212.61 130.92C212.61 130.6 212.41 130.32 212.14 130.2C212.15 130.15 212.17 130.1 212.17 130.04C212.17 129.74 211.99 129.49 211.75 129.36C211.72 129.1 211.56 128.87 211.34 128.76C211.26 128.56 211.1 128.41 210.9 128.33C210.81 128.21 210.69 128.11 210.55 128.06C210.47 127.97 210.38 127.9 210.27 127.86C210.13 127.7 209.92 127.59 209.69 127.59C209.46 127.59 209.24 127.7 209.1 127.87H208.73C208.77 128 208.85 128.1 208.95 128.2C208.94 128.26 208.91 128.31 208.91 128.37C208.91 128.7 209.11 128.98 209.4 129.09C209.49 129.19 209.59 129.26 209.71 129.3C209.79 129.39 209.89 129.46 210.01 129.51C210.08 129.6 210.17 129.68 210.28 129.74C210.35 129.91 210.48 130.05 210.64 130.13C210.67 130.41 210.84 130.65 211.1 130.76C211.09 130.81 211.07 130.87 211.07 130.92C211.07 131.31 211.36 131.62 211.74 131.68C211.63 131.82 211.55 131.98 211.55 132.18C211.55 132.61 211.9 132.96 212.33 132.96C212.76 132.96 213.11 132.61 213.11 132.18H213.09Z" fill="#CCCCCC"/>
</g>
<g style="mix-blend-mode:color-dodge">
<path d="M215.53 137.55C215.53 137.12 215.18 136.77 214.75 136.77C214.32 136.77 213.97 137.12 213.97 137.55C213.97 137.98 214.32 138.33 214.75 138.33C215.18 138.33 215.53 137.98 215.53 137.55Z" fill="#CCCCCC"/>
</g>
<g style="mix-blend-mode:color-dodge">
<path d="M219.16 155.9C219.16 155.47 218.81 155.12 218.38 155.12C217.95 155.12 217.6 155.47 217.6 155.9C217.6 156.33 217.95 156.68 218.38 156.68C218.81 156.68 219.16 156.33 219.16 155.9Z" fill="#CCCCCC"/>
</g>
<g style="mix-blend-mode:color-dodge">
<path d="M217.86 148.21C217.86 147.78 217.51 147.43 217.08 147.43C216.65 147.43 216.3 147.78 216.3 148.21C216.3 148.64 216.65 148.99 217.08 148.99C217.51 148.99 217.86 148.64 217.86 148.21Z" fill="#CCCCCC"/>
</g>
<g style="mix-blend-mode:color-dodge">
<path d="M216.65 142.17C216.65 141.74 216.3 141.39 215.87 141.39C215.44 141.39 215.09 141.74 215.09 142.17C215.09 142.6 215.44 142.95 215.87 142.95C216.3 142.95 216.65 142.6 216.65 142.17Z" fill="#CCCCCC"/>
</g>
<g style="mix-blend-mode:color-dodge">
<path d="M225.37 209.11C225.37 208.68 225.02 208.33 224.59 208.33C224.16 208.33 223.81 208.68 223.81 209.11C223.81 209.54 224.16 209.89 224.59 209.89C225.02 209.89 225.37 209.54 225.37 209.11Z" fill="#CCCCCC"/>
</g>
<g style="mix-blend-mode:color-dodge">
<path d="M223.65 191.8C223.65 191.37 223.3 191.02 222.87 191.02C222.44 191.02 222.09 191.37 222.09 191.8C222.09 192.23 222.44 192.58 222.87 192.58C223.3 192.58 223.65 192.23 223.65 191.8Z" fill="#CCCCCC"/>
</g>
<g style="mix-blend-mode:color-dodge">
<path d="M222.05 177.39C222.05 176.96 221.7 176.61 221.27 176.61C220.84 176.61 220.49 176.96 220.49 177.39C220.49 177.82 220.84 178.17 221.27 178.17C221.7 178.17 222.05 177.82 222.05 177.39Z" fill="#CCCCCC"/>
</g>
<g style="mix-blend-mode:color-dodge">
<path d="M227.19 229.68C227.19 229.25 226.84 228.9 226.41 228.9C225.98 228.9 225.63 229.25 225.63 229.68C225.63 230.11 225.98 230.46 226.41 230.46C226.84 230.46 227.19 230.11 227.19 229.68Z" fill="#CCCCCC"/>
</g>
<g style="mix-blend-mode:color-dodge">
<path d="M229.13 253.88C229.13 253.45 228.78 253.1 228.35 253.1C227.92 253.1 227.57 253.45 227.57 253.88C227.57 254.31 227.92 254.66 228.35 254.66C228.78 254.66 229.13 254.31 229.13 253.88Z" fill="#CCCCCC"/>
</g>
<g style="mix-blend-mode:color-dodge">
<path d="M392.4 231.77C391.97 231.77 391.62 232.12 391.62 232.55C391.62 232.98 391.97 233.33 392.4 233.33C392.83 233.33 393.18 232.98 393.18 232.55C393.18 232.12 392.83 231.77 392.4 231.77Z" fill="#CCCCCC"/>
</g>
<g style="mix-blend-mode:color-dodge">
<path d="M383.55 217.59C383.98 217.59 384.33 217.24 384.33 216.81C384.33 216.38 383.98 216.03 383.55 216.03C383.12 216.03 382.77 216.38 382.77 216.81C382.77 217.24 383.12 217.59 383.55 217.59Z" fill="#CCCCCC"/>
</g>
<g style="mix-blend-mode:color-dodge">
<path d="M375.6 203.31C375.6 202.88 375.25 202.53 374.82 202.53C374.39 202.53 374.04 202.88 374.04 203.31C374.04 203.74 374.39 204.09 374.82 204.09C375.25 204.09 375.6 203.74 375.6 203.31Z" fill="#CCCCCC"/>
</g>
<g style="mix-blend-mode:color-dodge">
<path d="M337.88 161.42C338.02 161.54 338.19 161.62 338.39 161.62C338.6 161.62 338.79 161.53 338.93 161.4C339.02 161.43 339.11 161.46 339.21 161.46C339.45 161.46 339.66 161.34 339.81 161.16C339.86 161.16 339.9 161.19 339.94 161.19C340.37 161.19 340.72 160.84 340.72 160.41C340.72 159.98 340.37 159.63 339.94 159.63C339.7 159.63 339.49 159.75 339.34 159.93C339.29 159.93 339.25 159.9 339.21 159.9C339 159.9 338.81 159.98 338.67 160.12C338.58 160.09 338.49 160.06 338.39 160.06C337.96 160.06 337.61 160.41 337.61 160.84C337.61 160.88 337.63 160.91 337.63 160.95C337.49 160.83 337.32 160.75 337.12 160.75C336.69 160.75 336.34 161.1 336.34 161.53C336.34 161.96 336.69 162.31 337.12 162.31C337.55 162.31 337.9 161.96 337.9 161.53C337.9 161.49 337.88 161.46 337.88 161.42Z" fill="#CCCCCC"/>
</g>
<g style="mix-blend-mode:color-dodge">
<path d="M342.76 166.77C342.33 166.77 341.98 167.12 341.98 167.55C341.98 167.98 342.33 168.33 342.76 168.33C343.19 168.33 343.54 167.98 343.54 167.55C343.54 167.12 343.19 166.77 342.76 166.77Z" fill="#CCCCCC"/>
</g>
<g style="mix-blend-mode:color-dodge">
<path d="M350.23 173.41C349.8 173.41 349.45 173.76 349.45 174.19C349.45 174.62 349.8 174.97 350.23 174.97C350.66 174.97 351.01 174.62 351.01 174.19C351.01 173.76 350.66 173.41 350.23 173.41Z" fill="#CCCCCC"/>
</g>
<g style="mix-blend-mode:color-dodge">
<path d="M358.09 181.44C357.66 181.44 357.31 181.79 357.31 182.22C357.31 182.65 357.66 183 358.09 183C358.52 183 358.87 182.65 358.87 182.22C358.87 181.79 358.52 181.44 358.09 181.44Z" fill="#CCCCCC"/>
</g>
<g style="mix-blend-mode:color-dodge">
<path d="M366.3 191.07C365.87 191.07 365.52 191.42 365.52 191.85C365.52 192.28 365.87 192.63 366.3 192.63C366.73 192.63 367.08 192.28 367.08 191.85C367.08 191.42 366.73 191.07 366.3 191.07Z" fill="#CCCCCC"/>
</g>
<g style="mix-blend-mode:color-dodge">
<path d="M331.66 157.47C331.78 157.74 332.05 157.94 332.37 157.94C332.58 157.94 332.77 157.85 332.91 157.72C333.05 157.86 333.25 157.95 333.47 157.95C333.77 157.95 334.03 157.77 334.16 157.52C334.27 157.58 334.4 157.63 334.53 157.63C334.96 157.63 335.31 157.28 335.31 156.85C335.31 156.42 334.96 156.07 334.53 156.07C334.23 156.07 333.97 156.25 333.84 156.5C333.73 156.44 333.61 156.39 333.47 156.39C333.26 156.39 333.07 156.48 332.93 156.61C332.79 156.47 332.59 156.38 332.37 156.38C331.97 156.38 331.66 156.68 331.61 157.06C331.49 156.78 331.22 156.59 330.9 156.59C330.47 156.59 330.12 156.94 330.12 157.37C330.12 157.8 330.47 158.15 330.9 158.15C331.3 158.15 331.61 157.85 331.66 157.47Z" fill="#CCCCCC"/>
</g>
<g style="mix-blend-mode:color-dodge">
<path d="M324 153.34C324 153.16 323.93 153.01 323.83 152.87C323.85 152.87 323.86 152.88 323.88 152.88C324.31 152.88 324.66 152.53 324.66 152.1C324.66 151.67 324.31 151.32 323.88 151.32C323.45 151.32 323.1 151.67 323.1 152.1C323.1 152.28 323.17 152.43 323.27 152.57C323.25 152.57 323.24 152.56 323.22 152.56C322.79 152.56 322.44 152.91 322.44 153.34C322.44 153.77 322.79 154.12 323.22 154.12C323.65 154.12 324 153.77 324 153.34Z" fill="#CCCCCC"/>
</g>
<g style="mix-blend-mode:color-dodge">
<path d="M297.71 143.15C298.14 143.15 298.49 142.8 298.49 142.37C298.49 141.94 298.14 141.59 297.71 141.59C297.38 141.59 297.1 141.79 296.99 142.08C296.95 142.08 296.91 142.06 296.87 142.06C296.44 142.06 296.09 142.41 296.09 142.84C296.09 143.27 296.44 143.62 296.87 143.62C297.2 143.62 297.47 143.42 297.59 143.14C297.63 143.14 297.67 143.16 297.71 143.16V143.15Z" fill="#CCCCCC"/>
</g>
<g style="mix-blend-mode:color-dodge">
<path d="M302.82 144.36C302.82 143.93 302.47 143.58 302.04 143.58C301.68 143.58 301.38 143.84 301.3 144.17C300.98 144.27 300.74 144.56 300.74 144.91C300.74 145.34 301.09 145.69 301.52 145.69C301.88 145.69 302.18 145.43 302.26 145.1C302.58 145 302.82 144.71 302.82 144.36Z" fill="#CCCCCC"/>
</g>
<g style="mix-blend-mode:color-dodge">
<path d="M316.83 151.23C317.26 151.23 317.61 150.88 317.61 150.45C317.61 150.08 317.35 149.78 317 149.7C317.02 149.63 317.04 149.57 317.04 149.49C317.04 149.06 316.69 148.71 316.26 148.71C315.83 148.71 315.48 149.06 315.48 149.49C315.48 149.86 315.74 150.15 316.09 150.24C316.07 150.31 316.05 150.37 316.05 150.45C316.05 150.88 316.4 151.23 316.83 151.23Z" fill="#CCCCCC"/>
</g>
<g style="mix-blend-mode:color-dodge">
<path d="M321.69 151.48C321.69 151.05 321.34 150.7 320.91 150.7C320.48 150.7 320.13 151.05 320.13 151.48C320.13 151.91 320.48 152.26 320.91 152.26C321.34 152.26 321.69 151.91 321.69 151.48Z" fill="#CCCCCC"/>
</g>
<g style="mix-blend-mode:color-dodge">
<path d="M328.32 155.05C328.75 155.05 329.1 154.7 329.1 154.27C329.1 153.84 328.75 153.49 328.32 153.49C328.03 153.49 327.79 153.65 327.65 153.89C327.53 153.62 327.26 153.43 326.94 153.43C326.51 153.43 326.16 153.78 326.16 154.21C326.16 154.64 326.51 154.99 326.94 154.99C327.23 154.99 327.47 154.82 327.61 154.59C327.73 154.86 328 155.05 328.32 155.05Z" fill="#CCCCCC"/>
</g>
<g style="mix-blend-mode:color-dodge">
<path d="M311.61 146.94C311.18 146.94 310.83 147.29 310.83 147.72C310.83 147.93 310.92 148.12 311.05 148.26C311.01 148.36 310.98 148.46 310.98 148.58C310.98 148.89 311.17 149.16 311.43 149.29C311.25 149.43 311.12 149.65 311.12 149.9C311.12 150.33 311.47 150.68 311.9 150.68C312.33 150.68 312.68 150.33 312.68 149.9C312.68 149.59 312.49 149.32 312.23 149.19C312.41 149.05 312.54 148.83 312.54 148.58C312.54 148.37 312.45 148.18 312.32 148.04C312.36 147.94 312.39 147.84 312.39 147.72C312.39 147.29 312.04 146.94 311.61 146.94Z" fill="#CCCCCC"/>
</g>
<g style="mix-blend-mode:color-dodge">
<path d="M393.19 212.09C392.76 212.09 392.41 212.44 392.41 212.87C392.41 213.3 392.76 213.65 393.19 213.65C393.62 213.65 393.97 213.3 393.97 212.87C393.97 212.44 393.62 212.09 393.19 212.09Z" fill="#CCCCCC"/>
</g>
<g style="mix-blend-mode:color-dodge">
<path d="M384.33 200.38C383.9 200.38 383.55 200.73 383.55 201.16C383.55 201.59 383.9 201.94 384.33 201.94C384.76 201.94 385.11 201.59 385.11 201.16C385.11 200.73 384.76 200.38 384.33 200.38Z" fill="#CCCCCC"/>
</g>
<g style="mix-blend-mode:color-dodge">
<path d="M366.65 182.78C366.65 183.21 367 183.56 367.43 183.56C367.86 183.56 368.21 183.21 368.21 182.78C368.21 182.35 367.86 182 367.43 182C367 182 366.65 182.35 366.65 182.78Z" fill="#CCCCCC"/>
</g>
<g style="mix-blend-mode:color-dodge">
<path d="M374.94 191.2C374.94 191.63 375.29 191.98 375.72 191.98C376.15 191.98 376.5 191.63 376.5 191.2C376.5 190.77 376.15 190.42 375.72 190.42C375.29 190.42 374.94 190.77 374.94 191.2Z" fill="#CCCCCC"/>
</g>
<g style="mix-blend-mode:color-dodge">
<path d="M345.65 164.88C345.99 164.88 346.27 164.66 346.38 164.36C346.57 164.31 346.73 164.19 346.84 164.03C347.14 163.93 347.35 163.66 347.36 163.33C347.69 163.23 347.93 162.94 347.93 162.59C347.93 162.16 347.58 161.81 347.15 161.81C346.72 161.81 346.4 162.14 346.37 162.56C346.18 162.61 346.04 162.73 345.93 162.89C345.71 162.97 345.53 163.14 345.45 163.36C345.11 163.45 344.86 163.74 344.86 164.1C344.86 164.53 345.21 164.88 345.64 164.88H345.65Z" fill="#CCCCCC"/>
</g>
<g style="mix-blend-mode:color-dodge">
<path d="M359.52 176.49C359.95 176.49 360.3 176.14 360.3 175.71C360.3 175.28 359.95 174.93 359.52 174.93C359.09 174.93 358.74 175.28 358.74 175.71C358.74 176.14 359.09 176.49 359.52 176.49Z" fill="#CCCCCC"/>
</g>
<g style="mix-blend-mode:color-dodge">
<path d="M305.8 179.27C306.23 179.27 306.58 178.92 306.58 178.49C306.58 178.06 306.23 177.71 305.8 177.71C305.37 177.71 305.02 178.06 305.02 178.49C305.02 178.92 305.37 179.27 305.8 179.27Z" fill="#CCCCCC"/>
</g>
<g style="mix-blend-mode:color-dodge">
<path d="M273.23 136.17C273.23 135.74 272.88 135.39 272.45 135.39C272.02 135.39 271.67 135.74 271.67 136.17C271.67 136.32 271.72 136.45 271.79 136.56C271.65 136.44 271.48 136.36 271.28 136.36C270.85 136.36 270.5 136.71 270.5 137.14C270.5 137.57 270.85 137.92 271.28 137.92C271.71 137.92 272.06 137.57 272.06 137.14C272.06 136.99 272.01 136.86 271.94 136.75C272.08 136.87 272.25 136.95 272.45 136.95C272.88 136.95 273.23 136.6 273.23 136.17Z" fill="#CCCCCC"/>
</g>
<g style="mix-blend-mode:color-dodge">
<path d="M317.17 166.97C317.6 166.97 317.95 166.62 317.95 166.19C317.95 165.76 317.6 165.41 317.17 165.41C316.74 165.41 316.39 165.76 316.39 166.19C316.39 166.62 316.74 166.97 317.17 166.97Z" fill="#CCCCCC"/>
</g>
<g style="mix-blend-mode:color-dodge">
<path d="M311.56 158.99C311.56 158.56 311.21 158.21 310.78 158.21C310.35 158.21 310 158.56 310 158.99C310 159.42 310.35 159.77 310.78 159.77C311.21 159.77 311.56 159.42 311.56 158.99Z" fill="#CCCCCC"/>
</g>
<g style="mix-blend-mode:color-dodge">
<path d="M305.55 153.23C305.55 152.8 305.2 152.45 304.77 152.45C304.34 152.45 303.99 152.8 303.99 153.23C303.99 153.66 304.34 154.01 304.77 154.01C305.2 154.01 305.55 153.66 305.55 153.23Z" fill="#CCCCCC"/>
</g>
<g style="mix-blend-mode:color-dodge">
<path d="M299.92 148.66C299.92 148.23 299.57 147.88 299.14 147.88C298.71 147.88 298.36 148.23 298.36 148.66C298.36 149.09 298.71 149.44 299.14 149.44C299.57 149.44 299.92 149.09 299.92 148.66Z" fill="#CCCCCC"/>
</g>
<g style="mix-blend-mode:color-dodge">
<path d="M331.85 185.84C331.85 185.41 331.5 185.06 331.07 185.06C330.64 185.06 330.29 185.41 330.29 185.84C330.29 186.27 330.64 186.62 331.07 186.62C331.5 186.62 331.85 186.27 331.85 185.84Z" fill="#CCCCCC"/>
</g>
<g style="mix-blend-mode:color-dodge">
<path d="M324.72 175.05C324.72 174.62 324.37 174.27 323.94 174.27C323.51 174.27 323.16 174.62 323.16 175.05C323.16 175.48 323.51 175.83 323.94 175.83C324.37 175.83 324.72 175.48 324.72 175.05Z" fill="#CCCCCC"/>
</g>
<g style="mix-blend-mode:color-dodge">
<path d="M269.84 135.25C270.27 135.25 270.62 134.9 270.62 134.47C270.62 134.04 270.27 133.69 269.84 133.69C269.41 133.69 269.06 134.04 269.06 134.47C269.06 134.9 269.41 135.25 269.84 135.25Z" fill="#CCCCCC"/>
</g>
<g style="mix-blend-mode:color-dodge">
<path d="M277.32 136.95C277.32 136.52 276.97 136.17 276.54 136.17C276.11 136.17 275.76 136.52 275.76 136.95C275.76 137.38 276.11 137.73 276.54 137.73C276.97 137.73 277.32 137.38 277.32 136.95Z" fill="#CCCCCC"/>
</g>
<g style="mix-blend-mode:color-dodge">
<path d="M284.95 139C285.04 138.87 285.1 138.73 285.1 138.56C285.1 138.13 284.75 137.78 284.32 137.78C283.89 137.78 283.54 138.13 283.54 138.56C283.54 138.8 283.65 139.01 283.82 139.15C283.73 139.28 283.67 139.42 283.67 139.59C283.67 140.02 284.02 140.37 284.45 140.37C284.88 140.37 285.23 140.02 285.23 139.59C285.23 139.35 285.12 139.14 284.95 139Z" fill="#CCCCCC"/>
</g>
<g style="mix-blend-mode:color-dodge">
<path d="M293.89 145.86C294.32 145.86 294.67 145.51 294.67 145.08C294.67 144.65 294.32 144.3 293.89 144.3C293.46 144.3 293.11 144.65 293.11 145.08C293.11 145.51 293.46 145.86 293.89 145.86Z" fill="#CCCCCC"/>
</g>
<g style="mix-blend-mode:color-dodge">
<path d="M288.77 140.84C288.91 140.7 289 140.5 289 140.28C289 139.85 288.65 139.5 288.22 139.5C287.79 139.5 287.44 139.85 287.44 140.28C287.44 140.71 287.78 141.05 288.2 141.06C288.06 141.2 287.96 141.4 287.96 141.62C287.96 142.05 288.31 142.4 288.74 142.4C289.17 142.4 289.52 142.05 289.52 141.62C289.52 141.19 289.18 140.85 288.76 140.84H288.77Z" fill="#CCCCCC"/>
</g>
<g style="mix-blend-mode:color-dodge">
<path d="M339.84 269.2C339.41 269.2 339.06 269.55 339.06 269.98C339.06 270.41 339.41 270.76 339.84 270.76C340.27 270.76 340.62 270.41 340.62 269.98C340.62 269.55 340.27 269.2 339.84 269.2Z" fill="#CCCCCC"/>
</g>
<g style="mix-blend-mode:color-dodge">
<path d="M332.77 244.65C332.34 244.65 331.99 245 331.99 245.43C331.99 245.86 332.34 246.21 332.77 246.21C333.2 246.21 333.55 245.86 333.55 245.43C333.55 245 333.2 244.65 332.77 244.65Z" fill="#CCCCCC"/>
</g>
<g style="mix-blend-mode:color-dodge">
<path d="M318.82 205.52C318.39 205.52 318.04 205.87 318.04 206.3C318.04 206.73 318.39 207.08 318.82 207.08C319.25 207.08 319.6 206.73 319.6 206.3C319.6 205.87 319.25 205.52 318.82 205.52Z" fill="#CCCCCC"/>
</g>
<g style="mix-blend-mode:color-dodge">
<path d="M325.71 223.52C325.28 223.52 324.93 223.87 324.93 224.3C324.93 224.73 325.28 225.08 325.71 225.08C326.14 225.08 326.49 224.73 326.49 224.3C326.49 223.87 326.14 223.52 325.71 223.52Z" fill="#CCCCCC"/>
</g>
<g style="mix-blend-mode:color-dodge">
<path d="M283.71 146.65C283.28 146.65 282.93 147 282.93 147.43C282.93 147.86 283.28 148.21 283.71 148.21C284.14 148.21 284.49 147.86 284.49 147.43C284.49 147 284.14 146.65 283.71 146.65Z" fill="#CCCCCC"/>
</g>
<g style="mix-blend-mode:color-dodge">
<path d="M294.07 160.38C294.5 160.38 294.85 160.03 294.85 159.6C294.85 159.17 294.5 158.82 294.07 158.82C293.64 158.82 293.29 159.17 293.29 159.6C293.29 160.03 293.64 160.38 294.07 160.38Z" fill="#CCCCCC"/>
</g>
<g style="mix-blend-mode:color-dodge">
<path d="M312.16 191.91C312.591 191.91 312.94 191.561 312.94 191.13C312.94 190.699 312.591 190.35 312.16 190.35C311.729 190.35 311.38 190.699 311.38 191.13C311.38 191.561 311.729 191.91 312.16 191.91Z" fill="#CCCCCC"/>
</g>
<g style="mix-blend-mode:color-dodge">
<path d="M299.76 168.86C300.19 168.86 300.54 168.51 300.54 168.08C300.54 167.65 300.19 167.3 299.76 167.3C299.33 167.3 298.98 167.65 298.98 168.08C298.98 168.51 299.33 168.86 299.76 168.86Z" fill="#CCCCCC"/>
</g>
<g style="mix-blend-mode:color-dodge">
<path d="M288.72 153.59C289.15 153.59 289.5 153.24 289.5 152.81C289.5 152.38 289.15 152.03 288.72 152.03C288.29 152.03 287.94 152.38 287.94 152.81C287.94 153.24 288.29 153.59 288.72 153.59Z" fill="#CCCCCC"/>
</g>
<g style="mix-blend-mode:color-dodge">
<path d="M339.29 198.81C339.29 198.38 338.94 198.03 338.51 198.03C338.08 198.03 337.73 198.38 337.73 198.81C337.73 199.24 338.08 199.59 338.51 199.59C338.94 199.59 339.29 199.24 339.29 198.81Z" fill="#CCCCCC"/>
</g>
<g style="mix-blend-mode:color-dodge">
<path d="M346.99 214.25C346.99 213.82 346.64 213.47 346.21 213.47C345.78 213.47 345.43 213.82 345.43 214.25C345.43 214.68 345.78 215.03 346.21 215.03C346.64 215.03 346.99 214.68 346.99 214.25Z" fill="#CCCCCC"/>
</g>
<g style="mix-blend-mode:color-dodge">
<path d="M292.8 141.24C292.8 140.81 292.45 140.46 292.02 140.46C291.59 140.46 291.24 140.81 291.24 141.24C291.24 141.67 291.59 142.02 292.02 142.02C292.45 142.02 292.8 141.67 292.8 141.24Z" fill="#CCCCCC"/>
</g>
<g style="mix-blend-mode:color-dodge">
<path d="M317.28 155C317.28 155.43 317.63 155.78 318.06 155.78C318.49 155.78 318.84 155.43 318.84 155C318.84 154.57 318.49 154.22 318.06 154.22C317.63 154.22 317.28 154.57 317.28 155Z" fill="#CCCCCC"/>
</g>
<g style="mix-blend-mode:color-dodge">
<path d="M324.49 160.78C324.921 160.78 325.27 160.431 325.27 160C325.27 159.569 324.921 159.22 324.49 159.22C324.059 159.22 323.71 159.569 323.71 160C323.71 160.431 324.059 160.78 324.49 160.78Z" fill="#CCCCCC"/>
</g>
<g style="mix-blend-mode:color-dodge">
<path d="M379.25 240.58C378.82 240.58 378.47 240.93 378.47 241.36C378.47 241.79 378.82 242.14 379.25 242.14C379.68 242.14 380.03 241.79 380.03 241.36C380.03 240.93 379.68 240.58 379.25 240.58Z" fill="#CCCCCC"/>
</g>
<g style="mix-blend-mode:color-dodge">
<path d="M331.32 166.98C331.751 166.98 332.1 166.631 332.1 166.2C332.1 165.769 331.751 165.42 331.32 165.42C330.889 165.42 330.54 165.769 330.54 166.2C330.54 166.631 330.889 166.98 331.32 166.98Z" fill="#CCCCCC"/>
</g>
<g style="mix-blend-mode:color-dodge">
<path d="M387.66 261.62C387.23 261.62 386.88 261.97 386.88 262.4C386.88 262.83 387.23 263.18 387.66 263.18C388.09 263.18 388.44 262.83 388.44 262.4C388.44 261.97 388.09 261.62 387.66 261.62Z" fill="#CCCCCC"/>
</g>
<g style="mix-blend-mode:color-dodge">
<path d="M338.55 173.03C338.12 173.03 337.77 173.38 337.77 173.81C337.77 174.24 338.12 174.59 338.55 174.59C338.98 174.59 339.33 174.24 339.33 173.81C339.33 173.38 338.98 173.03 338.55 173.03Z" fill="#CCCCCC"/>
</g>
<g style="mix-blend-mode:color-dodge">
<path d="M346.16 183.85C346.59 183.85 346.94 183.5 346.94 183.07C346.94 182.64 346.59 182.29 346.16 182.29C345.73 182.29 345.38 182.64 345.38 183.07C345.38 183.5 345.73 183.85 346.16 183.85Z" fill="#CCCCCC"/>
</g>
<g style="mix-blend-mode:color-dodge">
<path d="M370.75 222.34C370.32 222.34 369.97 222.69 369.97 223.12C369.97 223.55 370.32 223.9 370.75 223.9C371.18 223.9 371.53 223.55 371.53 223.12C371.53 222.69 371.18 222.34 370.75 222.34Z" fill="#CCCCCC"/>
</g>
<g style="mix-blend-mode:color-dodge">
<path d="M362.33 206.7C361.9 206.7 361.55 207.05 361.55 207.48C361.55 207.91 361.9 208.26 362.33 208.26C362.76 208.26 363.11 207.91 363.11 207.48C363.11 207.05 362.76 206.7 362.33 206.7Z" fill="#CCCCCC"/>
</g>
<g style="mix-blend-mode:color-dodge">
<path d="M354.11 193.43C353.68 193.43 353.33 193.78 353.33 194.21C353.33 194.64 353.68 194.99 354.11 194.99C354.54 194.99 354.89 194.64 354.89 194.21C354.89 193.78 354.54 193.43 354.11 193.43Z" fill="#CCCCCC"/>
</g>
<g style="mix-blend-mode:color-dodge">
<path d="M362 252.81C361.57 252.81 361.22 253.16 361.22 253.59C361.22 254.02 361.57 254.37 362 254.37C362.43 254.37 362.78 254.02 362.78 253.59C362.78 253.16 362.43 252.81 362 252.81Z" fill="#CCCCCC"/>
</g>
<g style="mix-blend-mode:color-dodge">
<path d="M354.08 231.65C353.65 231.65 353.3 232 353.3 232.43C353.3 232.86 353.65 233.21 354.08 233.21C354.51 233.21 354.86 232.86 354.86 232.43C354.86 232 354.51 231.65 354.08 231.65Z" fill="#CCCCCC"/>
</g>
</g>
<defs>
<radialGradient id="paint0_radial_436_2883" cx="0" cy="0" r="1" gradientUnits="userSpaceOnUse" gradientTransform="translate(201.47 283.11) scale(342.41)">
<stop offset="0.12" stop-color="#171F27"/>
<stop offset="0.23" stop-color="#131A20"/>
<stop offset="0.7" stop-color="#050708"/>
<stop offset="1"/>
</radialGradient>
<radialGradient id="paint1_radial_436_2883" cx="0" cy="0" r="1" gradientUnits="userSpaceOnUse" gradientTransform="translate(196.69 428.05) scale(399.1 399.1)">
<stop offset="0.39"/>
<stop offset="0.42" stop-color="#030404"/>
<stop offset="0.46" stop-color="#0F1112"/>
<stop offset="0.5" stop-color="#222629"/>
<stop offset="0.54" stop-color="#3C4449"/>
<stop offset="0.59" stop-color="#5E6B72"/>
<stop offset="0.63" stop-color="#889AA4"/>
<stop offset="0.67" stop-color="#B8D1DE"/>
<stop offset="0.7" stop-color="#D4F0FF"/>
<stop offset="0.71" stop-color="#C4D9E4"/>
<stop offset="0.74"/>
<stop offset="1"/>
</radialGradient>
<radialGradient id="paint2_radial_436_2883" cx="0" cy="0" r="1" gradientUnits="userSpaceOnUse" gradientTransform="translate(196.69 428.05) scale(381.09 381.09)">
<stop offset="0.39"/>
<stop offset="0.42" stop-color="#030404"/>
<stop offset="0.46" stop-color="#0F1112"/>
<stop offset="0.5" stop-color="#222629"/>
<stop offset="0.54" stop-color="#3C4449"/>
<stop offset="0.59" stop-color="#5E6B72"/>
<stop offset="0.63" stop-color="#E6F85E" stop-opacity="0.48"/>
<stop offset="0.67" stop-color="#E6F85E" stop-opacity="0.48"/>
<stop offset="0.7" stop-color="#E6F85E" stop-opacity="0.48"/>
<stop offset="0.72" stop-color="#E6F85E"/>
<stop offset="0.74" stop-color="#616161"/>
<stop offset="0.75" stop-color="#555555"/>
<stop offset="0.76" stop-color="#3B3B3B"/>
<stop offset="0.78" stop-color="#252525"/>
<stop offset="0.81" stop-color="#141414"/>
<stop offset="0.84" stop-color="#080808"/>
<stop offset="0.88" stop-color="#010101"/>
<stop offset="1"/>
</radialGradient>
<radialGradient id="paint3_radial_436_2883" cx="0" cy="0" r="1" gradientUnits="userSpaceOnUse" gradientTransform="translate(196.69 428.05) scale(291.73 291.73)">
<stop/>
<stop offset="0.68" stop-color="#030303"/>
<stop offset="0.81" stop-color="#040405"/>
<stop offset="0.87" stop-color="#0A0B0C"/>
<stop offset="0.92" stop-color="#131719"/>
<stop offset="0.96" stop-color="#21272C"/>
<stop offset="1" stop-color="#353F47"/>
</radialGradient>
</defs>
</svg>
