<svg width="277" height="23" viewBox="0 0 277 23" fill="none" xmlns="http://www.w3.org/2000/svg">
<path d="M1.11469 0.259277H0V22.8127H1.11469V0.259277Z" fill="#E6F85E"/>
<path d="M2.22934 0.259277H1.672V22.8127H2.22934V0.259277Z" fill="#E6F85E"/>
<path d="M3.90158 0.259277H3.34424V22.8127H3.90158V0.259277Z" fill="#E6F85E"/>
<path d="M6.68833 0.259277H6.13098V22.8127H6.68833V0.259277Z" fill="#E6F85E"/>
<path d="M9.47489 0.259277H7.80286V22.8127H9.47489V0.259277Z" fill="#E6F85E"/>
<path d="M11.147 0.259277H10.0323V22.8127H11.147V0.259277Z" fill="#E6F85E"/>
<path d="M14.4911 0.259277H12.2617V22.8127H14.4911V0.259277Z" fill="#E6F85E"/>
<path d="M16.1632 0.259277H15.6058V22.8127H16.1632V0.259277Z" fill="#E6F85E"/>
<path d="M17.8349 0.259277H17.2776V22.8127H17.8349V0.259277Z" fill="#E6F85E"/>
<path d="M18.9496 0.259277H18.3922V22.8127H18.9496V0.259277Z" fill="#E6F85E"/>
<path d="M21.1791 0.259277H19.5071V22.8127H21.1791V0.259277Z" fill="#E6F85E"/>
<path d="M23.9659 0.259277H21.7366V22.8127H23.9659V0.259277Z" fill="#E6F85E"/>
<path d="M25.6378 0.259277H24.5231V22.8127H25.6378V0.259277Z" fill="#E6F85E"/>
<path d="M27.3099 0.259277H26.1952V22.8127H27.3099V0.259277Z" fill="#E6F85E"/>
<path d="M30.0969 0.259277H27.8676V22.8127H30.0969V0.259277Z" fill="#E6F85E"/>
<path d="M32.8832 0.259277H30.6538V22.8127H32.8832V0.259277Z" fill="#E6F85E"/>
<path d="M35.1129 0.259277H34.5555V22.8127H35.1129V0.259277Z" fill="#E6F85E"/>
<path d="M36.2273 0.259277H35.6699V22.8127H36.2273V0.259277Z" fill="#E6F85E"/>
<path d="M37.3421 0.259277H36.7848V22.8127H37.3421V0.259277Z" fill="#E6F85E"/>
<path d="M40.1288 0.259277H37.8994V22.8127H40.1288V0.259277Z" fill="#E6F85E"/>
<path d="M42.3583 0.259277H40.6863V22.8127H42.3583V0.259277Z" fill="#E6F85E"/>
<path d="M43.4726 0.259277H42.9153V22.8127H43.4726V0.259277Z" fill="#E6F85E"/>
<path d="M45.1451 0.259277H44.0304V22.8127H45.1451V0.259277Z" fill="#E6F85E"/>
<path d="M47.3745 0.259277H46.8171V22.8127H47.3745V0.259277Z" fill="#E6F85E"/>
<path d="M49.6036 0.259277H49.0463V22.8127H49.6036V0.259277Z" fill="#E6F85E"/>
<path d="M52.3904 0.259277H51.2758V22.8127H52.3904V0.259277Z" fill="#E6F85E"/>
<path d="M54.6197 0.259277H54.0624V22.8127H54.6197V0.259277Z" fill="#E6F85E"/>
<path d="M55.7343 0.259277H55.177V22.8127H55.7343V0.259277Z" fill="#E6F85E"/>
<path d="M57.4065 0.259277H56.8491V22.8127H57.4065V0.259277Z" fill="#E6F85E"/>
<path d="M59.0784 0.259277H57.9637V22.8127H59.0784V0.259277Z" fill="#E6F85E"/>
<path d="M61.8653 0.259277H61.308V22.8127H61.8653V0.259277Z" fill="#E6F85E"/>
<path d="M63.5374 0.259277H62.4227V22.8127H63.5374V0.259277Z" fill="#E6F85E"/>
<path d="M66.3239 0.259277H65.7666V22.8127H66.3239V0.259277Z" fill="#E6F85E"/>
<path d="M67.9959 0.259277H67.4386V22.8127H67.9959V0.259277Z" fill="#E6F85E"/>
<path d="M69.6682 0.259277H68.5535V22.8127H69.6682V0.259277Z" fill="#E6F85E"/>
<path d="M71.3402 0.259277H70.7828V22.8127H71.3402V0.259277Z" fill="#E6F85E"/>
<path d="M74.1267 0.259277H73.5693V22.8127H74.1267V0.259277Z" fill="#E6F85E"/>
<path d="M76.9135 0.259277H75.2415V22.8127H76.9135V0.259277Z" fill="#E6F85E"/>
<path d="M78.5858 0.259277H77.4711V22.8127H78.5858V0.259277Z" fill="#E6F85E"/>
<path d="M80.2575 0.259277H79.7002V22.8127H80.2575V0.259277Z" fill="#E6F85E"/>
<path d="M83.0441 0.259277H81.9294V22.8127H83.0441V0.259277Z" fill="#E6F85E"/>
<path d="M84.1589 0.259277H83.6016V22.8127H84.1589V0.259277Z" fill="#E6F85E"/>
<path d="M86.3884 0.259277H85.8311V22.8127H86.3884V0.259277Z" fill="#E6F85E"/>
<path d="M89.1751 0.259277H88.6178V22.8127H89.1751V0.259277Z" fill="#E6F85E"/>
<path d="M91.4042 0.259277H90.2896V22.8127H91.4042V0.259277Z" fill="#E6F85E"/>
<path d="M93.0764 0.259277H91.9617V22.8127H93.0764V0.259277Z" fill="#E6F85E"/>
<path d="M95.8633 0.259277H94.1913V22.8127H95.8633V0.259277Z" fill="#E6F85E"/>
<path d="M96.9779 0.259277H96.4205V22.8127H96.9779V0.259277Z" fill="#E6F85E"/>
<path d="M98.65 0.259277H98.0927V22.8127H98.65V0.259277Z" fill="#E6F85E"/>
<path d="M101.437 0.259277H100.879V22.8127H101.437V0.259277Z" fill="#E6F85E"/>
<path d="M103.109 0.259277H101.994V22.8127H103.109V0.259277Z" fill="#E6F85E"/>
<path d="M104.781 0.259277H104.223V22.8127H104.781V0.259277Z" fill="#E6F85E"/>
<path d="M107.01 0.259277H105.338V22.8127H107.01V0.259277Z" fill="#E6F85E"/>
<path d="M109.797 0.259277H107.568V22.8127H109.797V0.259277Z" fill="#E6F85E"/>
<path d="M110.912 0.259277H110.354V22.8127H110.912V0.259277Z" fill="#E6F85E"/>
<path d="M113.698 0.259277H112.584V22.8127H113.698V0.259277Z" fill="#E6F85E"/>
<path d="M115.928 0.259277H115.37V22.8127H115.928V0.259277Z" fill="#E6F85E"/>
<path d="M117.599 0.259277H116.485V22.8127H117.599V0.259277Z" fill="#E6F85E"/>
<path d="M119.829 0.259277H118.714V22.8127H119.829V0.259277Z" fill="#E6F85E"/>
<path d="M121.501 0.259277H120.386V22.8127H121.501V0.259277Z" fill="#E6F85E"/>
<path d="M123.173 0.259277H122.616V22.8127H123.173V0.259277Z" fill="#E6F85E"/>
<path d="M125.96 0.259277H123.73V22.8127H125.96V0.259277Z" fill="#E6F85E"/>
<path d="M128.189 0.259277H126.517V22.8127H128.189V0.259277Z" fill="#E6F85E"/>
<path d="M129.304 0.259277H128.746V22.8127H129.304V0.259277Z" fill="#E6F85E"/>
<path d="M131.533 0.259277H130.976V22.8127H131.533V0.259277Z" fill="#E6F85E"/>
<path d="M133.205 0.259277H132.091V22.8127H133.205V0.259277Z" fill="#E6F85E"/>
<path d="M135.435 0.259277H134.877V22.8127H135.435V0.259277Z" fill="#E6F85E"/>
<path d="M137.107 0.259277H136.549V22.8127H137.107V0.259277Z" fill="#E6F85E"/>
<path d="M140.451 0.259277H139.336V22.8127H140.451V0.259277Z" fill="#E6F85E"/>
<path d="M141.565 0.259277H141.008V22.8127H141.565V0.259277Z" fill="#E6F85E"/>
<path d="M143.238 0.259277H142.68V22.8127H143.238V0.259277Z" fill="#E6F85E"/>
<path d="M146.582 0.259277H145.467V22.8127H146.582V0.259277Z" fill="#E6F85E"/>
<path d="M147.696 0.259277H147.139V22.8127H147.696V0.259277Z" fill="#E6F85E"/>
<path d="M149.368 0.259277H148.254V22.8127H149.368V0.259277Z" fill="#E6F85E"/>
<path d="M151.598 0.259277H151.04V22.8127H151.598V0.259277Z" fill="#E6F85E"/>
<path d="M153.827 0.259277H153.27V22.8127H153.827V0.259277Z" fill="#E6F85E"/>
<path d="M156.057 0.259277H154.385V22.8127H156.057V0.259277Z" fill="#E6F85E"/>
<path d="M158.843 0.259277H156.614V22.8127H158.843V0.259277Z" fill="#E6F85E"/>
<path d="M159.958 0.259277H159.401V22.8127H159.958V0.259277Z" fill="#E6F85E"/>
<path d="M161.63 0.259277H161.072V22.8127H161.63V0.259277Z" fill="#E6F85E"/>
<path d="M164.417 0.259277H162.187V22.8127H164.417V0.259277Z" fill="#E6F85E"/>
<path d="M166.088 0.259277H165.531V22.8127H166.088V0.259277Z" fill="#E6F85E"/>
<path d="M168.875 0.259277H166.646V22.8127H168.875V0.259277Z" fill="#E6F85E"/>
<path d="M171.105 0.259277H170.548V22.8127H171.105V0.259277Z" fill="#E6F85E"/>
<path d="M172.219 0.259277H171.662V22.8127H172.219V0.259277Z" fill="#E6F85E"/>
<path d="M175.006 0.259277H172.777V22.8127H175.006V0.259277Z" fill="#E6F85E"/>
<path d="M177.235 0.259277H175.563V22.8127H177.235V0.259277Z" fill="#E6F85E"/>
<path d="M178.35 0.259277H177.793V22.8127H178.35V0.259277Z" fill="#E6F85E"/>
<path d="M180.022 0.259277H178.908V22.8127H180.022V0.259277Z" fill="#E6F85E"/>
<path d="M182.252 0.259277H181.694V22.8127H182.252V0.259277Z" fill="#E6F85E"/>
<path d="M184.481 0.259277H183.923V22.8127H184.481V0.259277Z" fill="#E6F85E"/>
<path d="M186.71 0.259277H185.038V22.8127H186.71V0.259277Z" fill="#E6F85E"/>
<path d="M189.497 0.259277H187.268V22.8127H189.497V0.259277Z" fill="#E6F85E"/>
<path d="M191.169 0.259277H190.054V22.8127H191.169V0.259277Z" fill="#E6F85E"/>
<path d="M193.399 0.259277H192.841V22.8127H193.399V0.259277Z" fill="#E6F85E"/>
<path d="M195.07 0.259277H194.513V22.8127H195.07V0.259277Z" fill="#E6F85E"/>
<path d="M197.857 0.259277H196.185V22.8127H197.857V0.259277Z" fill="#E6F85E"/>
<path d="M200.087 0.259277H199.529V22.8127H200.087V0.259277Z" fill="#E6F85E"/>
<path d="M201.759 0.259277H200.644V22.8127H201.759V0.259277Z" fill="#E6F85E"/>
<path d="M202.873 0.259277H202.316V22.8127H202.873V0.259277Z" fill="#E6F85E"/>
<path d="M205.66 0.259277H203.431V22.8127H205.66V0.259277Z" fill="#E6F85E"/>
<path d="M207.889 0.259277H206.217V22.8127H207.889V0.259277Z" fill="#E6F85E"/>
<path d="M209.004 0.259277H208.447V22.8127H209.004V0.259277Z" fill="#E6F85E"/>
<path d="M210.676 0.259277H210.119V22.8127H210.676V0.259277Z" fill="#E6F85E"/>
<path d="M214.02 0.259277H212.906V22.8127H214.02V0.259277Z" fill="#E6F85E"/>
<path d="M215.692 0.259277H214.577V22.8127H215.692V0.259277Z" fill="#E6F85E"/>
<path d="M217.922 0.259277H216.25V22.8127H217.922V0.259277Z" fill="#E6F85E"/>
<path d="M219.594 0.259277H219.036V22.8127H219.594V0.259277Z" fill="#E6F85E"/>
<path d="M221.266 0.259277H220.708V22.8127H221.266V0.259277Z" fill="#E6F85E"/>
<path d="M222.938 0.259277H221.823V22.8127H222.938V0.259277Z" fill="#E6F85E"/>
<path d="M224.61 0.259277H224.052V22.8127H224.61V0.259277Z" fill="#E6F85E"/>
<path d="M228.511 0.259277H226.839V22.8127H228.511V0.259277Z" fill="#E6F85E"/>
<path d="M230.183 0.259277H229.626V22.8127H230.183V0.259277Z" fill="#E6F85E"/>
<path d="M231.855 0.259277H230.74V22.8127H231.855V0.259277Z" fill="#E6F85E"/>
<path d="M233.527 0.259277H232.97V22.8127H233.527V0.259277Z" fill="#E6F85E"/>
<path d="M235.757 0.259277H234.085V22.8127H235.757V0.259277Z" fill="#E6F85E"/>
<path d="M238.543 0.259277H236.314V22.8127H238.543V0.259277Z" fill="#E6F85E"/>
<path d="M239.658 0.259277H239.101V22.8127H239.658V0.259277Z" fill="#E6F85E"/>
<path d="M243.002 0.259277H241.887V22.8127H243.002V0.259277Z" fill="#E6F85E"/>
<path d="M244.117 0.259277H243.559V22.8127H244.117V0.259277Z" fill="#E6F85E"/>
<path d="M246.346 0.259277H245.231V22.8127H246.346V0.259277Z" fill="#E6F85E"/>
<path d="M248.575 0.259277H246.903V22.8127H248.575V0.259277Z" fill="#E6F85E"/>
<path d="M249.69 0.259277H249.133V22.8127H249.69V0.259277Z" fill="#E6F85E"/>
<path d="M251.92 0.259277H251.362V22.8127H251.92V0.259277Z" fill="#E6F85E"/>
<path d="M254.706 0.259277H252.477V22.8127H254.706V0.259277Z" fill="#E6F85E"/>
<path d="M256.935 0.259277H255.263V22.8127H256.935V0.259277Z" fill="#E6F85E"/>
<path d="M258.05 0.259277H257.493V22.8127H258.05V0.259277Z" fill="#E6F85E"/>
<path d="M259.722 0.259277H259.165V22.8127H259.722V0.259277Z" fill="#E6F85E"/>
<path d="M261.394 0.259277H260.28V22.8127H261.394V0.259277Z" fill="#E6F85E"/>
<path d="M265.296 0.259277H263.624V22.8127H265.296V0.259277Z" fill="#E6F85E"/>
<path d="M266.968 0.259277H265.853V22.8127H266.968V0.259277Z" fill="#E6F85E"/>
<path d="M268.64 0.259277H268.083V22.8127H268.64V0.259277Z" fill="#E6F85E"/>
<path d="M270.869 0.259277H269.755V22.8127H270.869V0.259277Z" fill="#E6F85E"/>
<path d="M274.213 0.259277H272.541V22.8127H274.213V0.259277Z" fill="#E6F85E"/>
<path d="M275.328 0.259277H274.771V22.8127H275.328V0.259277Z" fill="#E6F85E"/>
<path d="M277 0.259277H275.885V22.8127H277V0.259277Z" fill="#E6F85E"/>
</svg>
