<svg width="42" height="43" viewBox="0 0 42 43" fill="none" xmlns="http://www.w3.org/2000/svg">
<path d="M1.27273 0.259277H0V1.532H1.27273V0.259277Z" fill="#E6F85E"/>
<path d="M2.54545 0.259277H1.27273V1.532H2.54545V0.259277Z" fill="#E6F85E"/>
<path d="M3.81818 0.259277H2.54545V1.532H3.81818V0.259277Z" fill="#E6F85E"/>
<path d="M5.09091 0.259277H3.81818V1.532H5.09091V0.259277Z" fill="#E6F85E"/>
<path d="M6.36364 0.259277H5.09091V1.532H6.36364V0.259277Z" fill="#E6F85E"/>
<path d="M7.63636 0.259277H6.36364V1.532H7.63636V0.259277Z" fill="#E6F85E"/>
<path d="M8.90909 0.259277H7.63636V1.532H8.90909V0.259277Z" fill="#E6F85E"/>
<path d="M11.4545 0.259277H10.1818V1.532H11.4545V0.259277Z" fill="#E6F85E"/>
<path d="M12.7273 0.259277H11.4545V1.532H12.7273V0.259277Z" fill="#E6F85E"/>
<path d="M19.0909 0.259277H17.8182V1.532H19.0909V0.259277Z" fill="#E6F85E"/>
<path d="M20.3636 0.259277H19.0909V1.532H20.3636V0.259277Z" fill="#E6F85E"/>
<path d="M21.6364 0.259277H20.3636V1.532H21.6364V0.259277Z" fill="#E6F85E"/>
<path d="M22.9091 0.259277H21.6364V1.532H22.9091V0.259277Z" fill="#E6F85E"/>
<path d="M24.1818 0.259277H22.9091V1.532H24.1818V0.259277Z" fill="#E6F85E"/>
<path d="M26.7273 0.259277H25.4545V1.532H26.7273V0.259277Z" fill="#E6F85E"/>
<path d="M28 0.259277H26.7273V1.532H28V0.259277Z" fill="#E6F85E"/>
<path d="M29.2727 0.259277H28V1.532H29.2727V0.259277Z" fill="#E6F85E"/>
<path d="M30.5455 0.259277H29.2727V1.532H30.5455V0.259277Z" fill="#E6F85E"/>
<path d="M31.8182 0.259277H30.5455V1.532H31.8182V0.259277Z" fill="#E6F85E"/>
<path d="M34.3636 0.259277H33.0909V1.532H34.3636V0.259277Z" fill="#E6F85E"/>
<path d="M35.6364 0.259277H34.3636V1.532H35.6364V0.259277Z" fill="#E6F85E"/>
<path d="M36.9091 0.259277H35.6364V1.532H36.9091V0.259277Z" fill="#E6F85E"/>
<path d="M38.1818 0.259277H36.9091V1.532H38.1818V0.259277Z" fill="#E6F85E"/>
<path d="M39.4545 0.259277H38.1818V1.532H39.4545V0.259277Z" fill="#E6F85E"/>
<path d="M40.7273 0.259277H39.4545V1.532H40.7273V0.259277Z" fill="#E6F85E"/>
<path d="M42 0.259277H40.7273V1.532H42V0.259277Z" fill="#E6F85E"/>
<path d="M1.27273 1.532H0V2.80473H1.27273V1.532Z" fill="#E6F85E"/>
<path d="M8.90909 1.532H7.63636V2.80473H8.90909V1.532Z" fill="#E6F85E"/>
<path d="M12.7273 1.532H11.4545V2.80473H12.7273V1.532Z" fill="#E6F85E"/>
<path d="M14 1.532H12.7273V2.80473H14V1.532Z" fill="#E6F85E"/>
<path d="M16.5455 1.532H15.2727V2.80473H16.5455V1.532Z" fill="#E6F85E"/>
<path d="M22.9091 1.532H21.6364V2.80473H22.9091V1.532Z" fill="#E6F85E"/>
<path d="M26.7273 1.532H25.4545V2.80473H26.7273V1.532Z" fill="#E6F85E"/>
<path d="M31.8182 1.532H30.5455V2.80473H31.8182V1.532Z" fill="#E6F85E"/>
<path d="M34.3636 1.532H33.0909V2.80473H34.3636V1.532Z" fill="#E6F85E"/>
<path d="M42 1.532H40.7273V2.80473H42V1.532Z" fill="#E6F85E"/>
<path d="M1.27273 2.80473H0V4.07746H1.27273V2.80473Z" fill="#E6F85E"/>
<path d="M3.81818 2.80473H2.54545V4.07746H3.81818V2.80473Z" fill="#E6F85E"/>
<path d="M5.09091 2.80473H3.81818V4.07746H5.09091V2.80473Z" fill="#E6F85E"/>
<path d="M6.36364 2.80473H5.09091V4.07746H6.36364V2.80473Z" fill="#E6F85E"/>
<path d="M8.90909 2.80473H7.63636V4.07746H8.90909V2.80473Z" fill="#E6F85E"/>
<path d="M14 2.80473H12.7273V4.07746H14V2.80473Z" fill="#E6F85E"/>
<path d="M20.3636 2.80473H19.0909V4.07746H20.3636V2.80473Z" fill="#E6F85E"/>
<path d="M25.4545 2.80473H24.1818V4.07746H25.4545V2.80473Z" fill="#E6F85E"/>
<path d="M28 2.80473H26.7273V4.07746H28V2.80473Z" fill="#E6F85E"/>
<path d="M29.2727 2.80473H28V4.07746H29.2727V2.80473Z" fill="#E6F85E"/>
<path d="M34.3636 2.80473H33.0909V4.07746H34.3636V2.80473Z" fill="#E6F85E"/>
<path d="M36.9091 2.80473H35.6364V4.07746H36.9091V2.80473Z" fill="#E6F85E"/>
<path d="M38.1818 2.80473H36.9091V4.07746H38.1818V2.80473Z" fill="#E6F85E"/>
<path d="M39.4545 2.80473H38.1818V4.07746H39.4545V2.80473Z" fill="#E6F85E"/>
<path d="M42 2.80473H40.7273V4.07746H42V2.80473Z" fill="#E6F85E"/>
<path d="M1.27273 4.07746H0V5.35019H1.27273V4.07746Z" fill="#E6F85E"/>
<path d="M3.81818 4.07746H2.54545V5.35019H3.81818V4.07746Z" fill="#E6F85E"/>
<path d="M5.09091 4.07746H3.81818V5.35019H5.09091V4.07746Z" fill="#E6F85E"/>
<path d="M6.36364 4.07746H5.09091V5.35019H6.36364V4.07746Z" fill="#E6F85E"/>
<path d="M8.90909 4.07746H7.63636V5.35019H8.90909V4.07746Z" fill="#E6F85E"/>
<path d="M11.4545 4.07746H10.1818V5.35019H11.4545V4.07746Z" fill="#E6F85E"/>
<path d="M12.7273 4.07746H11.4545V5.35019H12.7273V4.07746Z" fill="#E6F85E"/>
<path d="M15.2727 4.07746H14V5.35019H15.2727V4.07746Z" fill="#E6F85E"/>
<path d="M16.5455 4.07746H15.2727V5.35019H16.5455V4.07746Z" fill="#E6F85E"/>
<path d="M17.8182 4.07746H16.5455V5.35019H17.8182V4.07746Z" fill="#E6F85E"/>
<path d="M22.9091 4.07746H21.6364V5.35019H22.9091V4.07746Z" fill="#E6F85E"/>
<path d="M24.1818 4.07746H22.9091V5.35019H24.1818L24.1818 4.07746Z" fill="#E6F85E"/>
<path d="M28 4.07746H26.7273V5.35019H28V4.07746Z" fill="#E6F85E"/>
<path d="M34.3636 4.07746H33.0909V5.35019H34.3636V4.07746Z" fill="#E6F85E"/>
<path d="M36.9091 4.07746H35.6364V5.35019H36.9091V4.07746Z" fill="#E6F85E"/>
<path d="M38.1818 4.07746H36.9091V5.35019H38.1818V4.07746Z" fill="#E6F85E"/>
<path d="M39.4545 4.07746H38.1818V5.35019H39.4545V4.07746Z" fill="#E6F85E"/>
<path d="M42 4.07746H40.7273V5.35019H42V4.07746Z" fill="#E6F85E"/>
<path d="M1.27273 5.35019H0V6.62291H1.27273V5.35019Z" fill="#E6F85E"/>
<path d="M3.81818 5.35019H2.54545V6.62291H3.81818V5.35019Z" fill="#E6F85E"/>
<path d="M5.09091 5.35019H3.81818V6.62291H5.09091V5.35019Z" fill="#E6F85E"/>
<path d="M6.36364 5.35019H5.09091V6.62291H6.36364V5.35019Z" fill="#E6F85E"/>
<path d="M8.90909 5.35019H7.63636V6.62291H8.90909V5.35019Z" fill="#E6F85E"/>
<path d="M11.4545 5.35019H10.1818V6.62291H11.4545V5.35019Z" fill="#E6F85E"/>
<path d="M12.7273 5.35019H11.4545V6.62291H12.7273V5.35019Z" fill="#E6F85E"/>
<path d="M14 5.35019H12.7273V6.62291H14V5.35019Z" fill="#E6F85E"/>
<path d="M16.5455 5.35019H15.2727V6.62291H16.5455V5.35019Z" fill="#E6F85E"/>
<path d="M17.8182 5.35019H16.5455V6.62291H17.8182V5.35019Z" fill="#E6F85E"/>
<path d="M19.0909 5.35019H17.8182V6.62291H19.0909V5.35019Z" fill="#E6F85E"/>
<path d="M26.7273 5.35019H25.4545V6.62291H26.7273V5.35019Z" fill="#E6F85E"/>
<path d="M28 5.35019H26.7273V6.62291H28V5.35019Z" fill="#E6F85E"/>
<path d="M29.2727 5.35019H28V6.62291H29.2727V5.35019Z" fill="#E6F85E"/>
<path d="M34.3636 5.35019H33.0909V6.62291H34.3636V5.35019Z" fill="#E6F85E"/>
<path d="M36.9091 5.35019H35.6364V6.62291H36.9091V5.35019Z" fill="#E6F85E"/>
<path d="M38.1818 5.35019H36.9091V6.62291H38.1818V5.35019Z" fill="#E6F85E"/>
<path d="M39.4545 5.35019H38.1818V6.62291H39.4545V5.35019Z" fill="#E6F85E"/>
<path d="M42 5.35019H40.7273V6.62291H42V5.35019Z" fill="#E6F85E"/>
<path d="M1.27273 6.62291H0V7.89564H1.27273V6.62291Z" fill="#E6F85E"/>
<path d="M8.90909 6.62291H7.63636V7.89564H8.90909V6.62291Z" fill="#E6F85E"/>
<path d="M11.4545 6.62291H10.1818V7.89564H11.4545V6.62291Z" fill="#E6F85E"/>
<path d="M15.2727 6.62291H14V7.89564H15.2727V6.62291Z" fill="#E6F85E"/>
<path d="M19.0909 6.62291H17.8182V7.89564H19.0909V6.62291Z" fill="#E6F85E"/>
<path d="M21.6364 6.62291H20.3636V7.89564H21.6364V6.62291Z" fill="#E6F85E"/>
<path d="M26.7273 6.62291H25.4545V7.89564H26.7273V6.62291Z" fill="#E6F85E"/>
<path d="M30.5455 6.62291H29.2727V7.89564H30.5455V6.62291Z" fill="#E6F85E"/>
<path d="M34.3636 6.62291H33.0909V7.89564H34.3636V6.62291Z" fill="#E6F85E"/>
<path d="M42 6.62291H40.7273V7.89564H42V6.62291Z" fill="#E6F85E"/>
<path d="M1.27273 7.89564H0V9.16837H1.27273V7.89564Z" fill="#E6F85E"/>
<path d="M2.54545 7.89564H1.27273V9.16837H2.54545V7.89564Z" fill="#E6F85E"/>
<path d="M3.81818 7.89564H2.54545V9.16837H3.81818V7.89564Z" fill="#E6F85E"/>
<path d="M5.09091 7.89564H3.81818V9.16837H5.09091V7.89564Z" fill="#E6F85E"/>
<path d="M6.36364 7.89564H5.09091V9.16837H6.36364V7.89564Z" fill="#E6F85E"/>
<path d="M7.63636 7.89564H6.36364V9.16837H7.63636V7.89564Z" fill="#E6F85E"/>
<path d="M8.90909 7.89564H7.63636V9.16837H8.90909V7.89564Z" fill="#E6F85E"/>
<path d="M11.4545 7.89564H10.1818V9.16837H11.4545V7.89564Z" fill="#E6F85E"/>
<path d="M14 7.89564H12.7273V9.16837H14V7.89564Z" fill="#E6F85E"/>
<path d="M16.5455 7.89564H15.2727V9.16837H16.5455V7.89564Z" fill="#E6F85E"/>
<path d="M19.0909 7.89564H17.8182V9.16837H19.0909V7.89564Z" fill="#E6F85E"/>
<path d="M21.6364 7.89564H20.3636V9.16837H21.6364V7.89564Z" fill="#E6F85E"/>
<path d="M24.1818 7.89564H22.9091V9.16837H24.1818V7.89564Z" fill="#E6F85E"/>
<path d="M26.7273 7.89564H25.4545V9.16837H26.7273V7.89564Z" fill="#E6F85E"/>
<path d="M29.2727 7.89564H28V9.16837H29.2727V7.89564Z" fill="#E6F85E"/>
<path d="M31.8182 7.89564H30.5455V9.16837H31.8182V7.89564Z" fill="#E6F85E"/>
<path d="M34.3636 7.89564H33.0909V9.16837H34.3636V7.89564Z" fill="#E6F85E"/>
<path d="M35.6364 7.89564H34.3636V9.16837H35.6364V7.89564Z" fill="#E6F85E"/>
<path d="M36.9091 7.89564H35.6364V9.16837H36.9091V7.89564Z" fill="#E6F85E"/>
<path d="M38.1818 7.89564H36.9091V9.16837H38.1818V7.89564Z" fill="#E6F85E"/>
<path d="M39.4545 7.89564H38.1818V9.16837H39.4545V7.89564Z" fill="#E6F85E"/>
<path d="M40.7273 7.89564H39.4545V9.16837H40.7273V7.89564Z" fill="#E6F85E"/>
<path d="M42 7.89564H40.7273V9.16837H42V7.89564Z" fill="#E6F85E"/>
<path d="M11.4545 9.16837H10.1818V10.4411H11.4545V9.16837Z" fill="#E6F85E"/>
<path d="M12.7273 9.16837H11.4545V10.4411H12.7273V9.16837Z" fill="#E6F85E"/>
<path d="M15.2727 9.16837H14V10.4411H15.2727V9.16837Z" fill="#E6F85E"/>
<path d="M16.5455 9.16837H15.2727V10.4411H16.5455V9.16837Z" fill="#E6F85E"/>
<path d="M20.3636 9.16837H19.0909V10.4411H20.3636V9.16837Z" fill="#E6F85E"/>
<path d="M24.1818 9.16837H22.9091V10.4411H24.1818V9.16837Z" fill="#E6F85E"/>
<path d="M26.7273 9.16837H25.4545V10.4411H26.7273V9.16837Z" fill="#E6F85E"/>
<path d="M28 9.16837H26.7273V10.4411H28V9.16837Z" fill="#E6F85E"/>
<path d="M31.8182 9.16837H30.5455V10.4411H31.8182V9.16837Z" fill="#E6F85E"/>
<path d="M1.27273 10.4411H0V11.7138H1.27273V10.4411Z" fill="#E6F85E"/>
<path d="M2.54545 10.4411H1.27273V11.7138H2.54545V10.4411Z" fill="#E6F85E"/>
<path d="M3.81818 10.4411H2.54545V11.7138H3.81818V10.4411Z" fill="#E6F85E"/>
<path d="M6.36364 10.4411H5.09091V11.7138H6.36364V10.4411Z" fill="#E6F85E"/>
<path d="M8.90909 10.4411H7.63636V11.7138H8.90909V10.4411Z" fill="#E6F85E"/>
<path d="M11.4545 10.4411H10.1818V11.7138H11.4545V10.4411Z" fill="#E6F85E"/>
<path d="M12.7273 10.4411H11.4545V11.7138H12.7273V10.4411Z" fill="#E6F85E"/>
<path d="M14 10.4411H12.7273V11.7138H14V10.4411Z" fill="#E6F85E"/>
<path d="M15.2727 10.4411H14V11.7138H15.2727V10.4411Z" fill="#E6F85E"/>
<path d="M17.8182 10.4411H16.5455V11.7138H17.8182V10.4411Z" fill="#E6F85E"/>
<path d="M19.0909 10.4411H17.8182V11.7138H19.0909V10.4411Z" fill="#E6F85E"/>
<path d="M21.6364 10.4411H20.3636V11.7138H21.6364V10.4411Z" fill="#E6F85E"/>
<path d="M26.7273 10.4411H25.4545V11.7138H26.7273V10.4411Z" fill="#E6F85E"/>
<path d="M33.0909 10.4411H31.8182V11.7138H33.0909V10.4411Z" fill="#E6F85E"/>
<path d="M34.3636 10.4411H33.0909V11.7138H34.3636V10.4411Z" fill="#E6F85E"/>
<path d="M35.6364 10.4411H34.3636V11.7138H35.6364V10.4411Z" fill="#E6F85E"/>
<path d="M36.9091 10.4411H35.6364V11.7138H36.9091V10.4411Z" fill="#E6F85E"/>
<path d="M38.1818 10.4411H36.9091V11.7138H38.1818V10.4411Z" fill="#E6F85E"/>
<path d="M42 10.4411H40.7273V11.7138H42V10.4411Z" fill="#E6F85E"/>
<path d="M1.27273 11.7138H0V12.9866H1.27273V11.7138Z" fill="#E6F85E"/>
<path d="M5.09091 11.7138H3.81818V12.9866H5.09091V11.7138Z" fill="#E6F85E"/>
<path d="M7.63636 11.7138H6.36364V12.9866H7.63636V11.7138Z" fill="#E6F85E"/>
<path d="M10.1818 11.7138H8.90909V12.9866H10.1818V11.7138Z" fill="#E6F85E"/>
<path d="M11.4545 11.7138H10.1818V12.9866H11.4545V11.7138Z" fill="#E6F85E"/>
<path d="M14 11.7138H12.7273V12.9866H14V11.7138Z" fill="#E6F85E"/>
<path d="M16.5455 11.7138H15.2727V12.9866H16.5455V11.7138Z" fill="#E6F85E"/>
<path d="M20.3636 11.7138H19.0909V12.9866H20.3636V11.7138Z" fill="#E6F85E"/>
<path d="M21.6364 11.7138H20.3636V12.9866H21.6364V11.7138Z" fill="#E6F85E"/>
<path d="M22.9091 11.7138H21.6364V12.9866H22.9091V11.7138Z" fill="#E6F85E"/>
<path d="M25.4545 11.7138H24.1818V12.9866H25.4545V11.7138Z" fill="#E6F85E"/>
<path d="M26.7273 11.7138H25.4545V12.9866H26.7273V11.7138Z" fill="#E6F85E"/>
<path d="M28 11.7138H26.7273V12.9866H28V11.7138Z" fill="#E6F85E"/>
<path d="M29.2727 11.7138H28V12.9866H29.2727V11.7138Z" fill="#E6F85E"/>
<path d="M30.5455 11.7138H29.2727V12.9866H30.5455V11.7138Z" fill="#E6F85E"/>
<path d="M31.8182 11.7138H30.5455V12.9866H31.8182V11.7138Z" fill="#E6F85E"/>
<path d="M34.3636 11.7138H33.0909V12.9866H34.3636V11.7138Z" fill="#E6F85E"/>
<path d="M35.6364 11.7138H34.3636V12.9866H35.6364V11.7138Z" fill="#E6F85E"/>
<path d="M36.9091 11.7138H35.6364V12.9866H36.9091V11.7138Z" fill="#E6F85E"/>
<path d="M38.1818 11.7138H36.9091V12.9866H38.1818V11.7138Z" fill="#E6F85E"/>
<path d="M42 11.7138H40.7273V12.9866H42V11.7138Z" fill="#E6F85E"/>
<path d="M2.54545 12.9866H1.27273V14.2593H2.54545V12.9866Z" fill="#E6F85E"/>
<path d="M7.63636 12.9866H6.36364V14.2593H7.63636V12.9866Z" fill="#E6F85E"/>
<path d="M8.90909 12.9866H7.63636V14.2593H8.90909V12.9866Z" fill="#E6F85E"/>
<path d="M11.4545 12.9866H10.1818V14.2593H11.4545V12.9866Z" fill="#E6F85E"/>
<path d="M17.8182 12.9866H16.5455V14.2593H17.8182V12.9866Z" fill="#E6F85E"/>
<path d="M24.1818 12.9866H22.9091V14.2593H24.1818L24.1818 12.9866Z" fill="#E6F85E"/>
<path d="M25.4545 12.9866H24.1818L24.1818 14.2593H25.4545V12.9866Z" fill="#E6F85E"/>
<path d="M26.7273 12.9866H25.4545V14.2593H26.7273V12.9866Z" fill="#E6F85E"/>
<path d="M28 12.9866H26.7273V14.2593H28V12.9866Z" fill="#E6F85E"/>
<path d="M34.3636 12.9866H33.0909V14.2593H34.3636V12.9866Z" fill="#E6F85E"/>
<path d="M35.6364 12.9866H34.3636V14.2593H35.6364V12.9866Z" fill="#E6F85E"/>
<path d="M36.9091 12.9866H35.6364V14.2593H36.9091V12.9866Z" fill="#E6F85E"/>
<path d="M40.7273 12.9866H39.4545V14.2593H40.7273V12.9866Z" fill="#E6F85E"/>
<path d="M42 12.9866H40.7273V14.2593H42V12.9866Z" fill="#E6F85E"/>
<path d="M1.27273 14.2593H0V15.532H1.27273V14.2593Z" fill="#E6F85E"/>
<path d="M2.54545 14.2593H1.27273V15.532H2.54545V14.2593Z" fill="#E6F85E"/>
<path d="M6.36364 14.2593H5.09091V15.532H6.36364V14.2593Z" fill="#E6F85E"/>
<path d="M7.63636 14.2593H6.36364V15.532H7.63636V14.2593Z" fill="#E6F85E"/>
<path d="M10.1818 14.2593H8.90909V15.532H10.1818V14.2593Z" fill="#E6F85E"/>
<path d="M11.4545 14.2593H10.1818V15.532H11.4545V14.2593Z" fill="#E6F85E"/>
<path d="M12.7273 14.2593H11.4545V15.532H12.7273V14.2593Z" fill="#E6F85E"/>
<path d="M22.9091 14.2593H21.6364V15.532H22.9091V14.2593Z" fill="#E6F85E"/>
<path d="M25.4545 14.2593H24.1818L24.1818 15.532H25.4545V14.2593Z" fill="#E6F85E"/>
<path d="M31.8182 14.2593H30.5455V15.532H31.8182V14.2593Z" fill="#E6F85E"/>
<path d="M35.6364 14.2593H34.3636V15.532H35.6364V14.2593Z" fill="#E6F85E"/>
<path d="M39.4545 14.2593H38.1818V15.532H39.4545V14.2593Z" fill="#E6F85E"/>
<path d="M1.27273 15.532H0V16.8047H1.27273V15.532Z" fill="#E6F85E"/>
<path d="M3.81818 15.532H2.54545V16.8047H3.81818V15.532Z" fill="#E6F85E"/>
<path d="M5.09091 15.532H3.81818V16.8047H5.09091V15.532Z" fill="#E6F85E"/>
<path d="M6.36364 15.532H5.09091V16.8047H6.36364V15.532Z" fill="#E6F85E"/>
<path d="M8.90909 15.532H7.63636V16.8047H8.90909V15.532Z" fill="#E6F85E"/>
<path d="M10.1818 15.532H8.90909V16.8047H10.1818V15.532Z" fill="#E6F85E"/>
<path d="M11.4545 15.532H10.1818V16.8047H11.4545V15.532Z" fill="#E6F85E"/>
<path d="M15.2727 15.532H14V16.8047H15.2727V15.532Z" fill="#E6F85E"/>
<path d="M16.5455 15.532H15.2727V16.8047H16.5455V15.532Z" fill="#E6F85E"/>
<path d="M19.0909 15.532H17.8182V16.8047H19.0909V15.532Z" fill="#E6F85E"/>
<path d="M20.3636 15.532H19.0909V16.8047H20.3636V15.532Z" fill="#E6F85E"/>
<path d="M22.9091 15.532H21.6364V16.8047H22.9091V15.532Z" fill="#E6F85E"/>
<path d="M24.1818 15.532H22.9091V16.8047H24.1818L24.1818 15.532Z" fill="#E6F85E"/>
<path d="M25.4545 15.532H24.1818L24.1818 16.8047H25.4545V15.532Z" fill="#E6F85E"/>
<path d="M31.8182 15.532H30.5455V16.8047H31.8182V15.532Z" fill="#E6F85E"/>
<path d="M36.9091 15.532H35.6364V16.8047H36.9091V15.532Z" fill="#E6F85E"/>
<path d="M40.7273 15.532H39.4545V16.8047H40.7273V15.532Z" fill="#E6F85E"/>
<path d="M10.1818 16.8047H8.90909V18.0775H10.1818V16.8047Z" fill="#E6F85E"/>
<path d="M16.5455 16.8047H15.2727V18.0775H16.5455V16.8047Z" fill="#E6F85E"/>
<path d="M19.0909 16.8047H17.8182V18.0775H19.0909V16.8047Z" fill="#E6F85E"/>
<path d="M20.3636 16.8047H19.0909V18.0775H20.3636V16.8047Z" fill="#E6F85E"/>
<path d="M28 16.8047H26.7273V18.0775H28V16.8047Z" fill="#E6F85E"/>
<path d="M34.3636 16.8047H33.0909V18.0775H34.3636V16.8047Z" fill="#E6F85E"/>
<path d="M35.6364 16.8047H34.3636V18.0775H35.6364V16.8047Z" fill="#E6F85E"/>
<path d="M38.1818 16.8047H36.9091V18.0775H38.1818V16.8047Z" fill="#E6F85E"/>
<path d="M40.7273 16.8047H39.4545V18.0775H40.7273V16.8047Z" fill="#E6F85E"/>
<path d="M6.36364 18.0775H5.09091V19.3502H6.36364V18.0775Z" fill="#E6F85E"/>
<path d="M8.90909 18.0775H7.63636V19.3502H8.90909V18.0775Z" fill="#E6F85E"/>
<path d="M14 18.0775H12.7273V19.3502H14V18.0775Z" fill="#E6F85E"/>
<path d="M15.2727 18.0775H14V19.3502H15.2727V18.0775Z" fill="#E6F85E"/>
<path d="M16.5455 18.0775H15.2727V19.3502H16.5455V18.0775Z" fill="#E6F85E"/>
<path d="M19.0909 18.0775H17.8182V19.3502H19.0909V18.0775Z" fill="#E6F85E"/>
<path d="M21.6364 18.0775H20.3636V19.3502H21.6364V18.0775Z" fill="#E6F85E"/>
<path d="M24.1818 18.0775H22.9091V19.3502H24.1818V18.0775Z" fill="#E6F85E"/>
<path d="M26.7273 18.0775H25.4545V19.3502H26.7273V18.0775Z" fill="#E6F85E"/>
<path d="M28 18.0775H26.7273V19.3502H28V18.0775Z" fill="#E6F85E"/>
<path d="M29.2727 18.0775H28V19.3502H29.2727V18.0775Z" fill="#E6F85E"/>
<path d="M34.3636 18.0775H33.0909V19.3502H34.3636V18.0775Z" fill="#E6F85E"/>
<path d="M35.6364 18.0775H34.3636V19.3502H35.6364V18.0775Z" fill="#E6F85E"/>
<path d="M38.1818 18.0775H36.9091V19.3502H38.1818V18.0775Z" fill="#E6F85E"/>
<path d="M39.4545 18.0775H38.1818V19.3502H39.4545V18.0775Z" fill="#E6F85E"/>
<path d="M42 18.0775H40.7273V19.3502H42V18.0775Z" fill="#E6F85E"/>
<path d="M3.81818 19.3502H2.54545V20.6229H3.81818V19.3502Z" fill="#E6F85E"/>
<path d="M6.36364 19.3502H5.09091V20.6229H6.36364V19.3502Z" fill="#E6F85E"/>
<path d="M11.4545 19.3502H10.1818V20.6229H11.4545V19.3502Z" fill="#E6F85E"/>
<path d="M14 19.3502H12.7273V20.6229H14V19.3502Z" fill="#E6F85E"/>
<path d="M15.2727 19.3502H14V20.6229H15.2727V19.3502Z" fill="#E6F85E"/>
<path d="M16.5455 19.3502H15.2727V20.6229H16.5455V19.3502Z" fill="#E6F85E"/>
<path d="M20.3636 19.3502H19.0909V20.6229H20.3636V19.3502Z" fill="#E6F85E"/>
<path d="M22.9091 19.3502H21.6364V20.6229H22.9091V19.3502Z" fill="#E6F85E"/>
<path d="M24.1818 19.3502H22.9091V20.6229H24.1818V19.3502Z" fill="#E6F85E"/>
<path d="M29.2727 19.3502H28V20.6229H29.2727V19.3502Z" fill="#E6F85E"/>
<path d="M31.8182 19.3502H30.5455V20.6229H31.8182V19.3502Z" fill="#E6F85E"/>
<path d="M33.0909 19.3502H31.8182V20.6229H33.0909V19.3502Z" fill="#E6F85E"/>
<path d="M34.3636 19.3502H33.0909V20.6229H34.3636V19.3502Z" fill="#E6F85E"/>
<path d="M36.9091 19.3502H35.6364V20.6229H36.9091V19.3502Z" fill="#E6F85E"/>
<path d="M40.7273 19.3502H39.4545V20.6229H40.7273V19.3502Z" fill="#E6F85E"/>
<path d="M1.27273 20.6229H0V21.8956H1.27273V20.6229Z" fill="#E6F85E"/>
<path d="M8.90909 20.6229H7.63636V21.8956H8.90909V20.6229Z" fill="#E6F85E"/>
<path d="M11.4545 20.6229H10.1818V21.8956H11.4545V20.6229Z" fill="#E6F85E"/>
<path d="M16.5455 20.6229H15.2727V21.8956H16.5455V20.6229Z" fill="#E6F85E"/>
<path d="M17.8182 20.6229H16.5455V21.8956H17.8182V20.6229Z" fill="#E6F85E"/>
<path d="M19.0909 20.6229H17.8182V21.8956H19.0909V20.6229Z" fill="#E6F85E"/>
<path d="M21.6364 20.6229H20.3636V21.8956H21.6364V20.6229Z" fill="#E6F85E"/>
<path d="M22.9091 20.6229H21.6364V21.8956H22.9091V20.6229Z" fill="#E6F85E"/>
<path d="M28 20.6229H26.7273V21.8956H28V20.6229Z" fill="#E6F85E"/>
<path d="M29.2727 20.6229H28V21.8956H29.2727V20.6229Z" fill="#E6F85E"/>
<path d="M30.5455 20.6229H29.2727V21.8956H30.5455V20.6229Z" fill="#E6F85E"/>
<path d="M35.6364 20.6229H34.3636V21.8956H35.6364V20.6229Z" fill="#E6F85E"/>
<path d="M39.4545 20.6229H38.1818V21.8956H39.4545V20.6229Z" fill="#E6F85E"/>
<path d="M40.7273 20.6229H39.4545V21.8956H40.7273V20.6229Z" fill="#E6F85E"/>
<path d="M2.54545 21.8956H1.27273V23.1684H2.54545V21.8956Z" fill="#E6F85E"/>
<path d="M3.81818 21.8956H2.54545V23.1684H3.81818V21.8956Z" fill="#E6F85E"/>
<path d="M6.36364 21.8956H5.09091V23.1684H6.36364V21.8956Z" fill="#E6F85E"/>
<path d="M11.4545 21.8956H10.1818V23.1684H11.4545V21.8956Z" fill="#E6F85E"/>
<path d="M14 21.8956H12.7273V23.1684H14V21.8956Z" fill="#E6F85E"/>
<path d="M15.2727 21.8956H14V23.1684H15.2727V21.8956Z" fill="#E6F85E"/>
<path d="M16.5455 21.8956H15.2727V23.1684H16.5455V21.8956Z" fill="#E6F85E"/>
<path d="M19.0909 21.8956H17.8182V23.1684H19.0909V21.8956Z" fill="#E6F85E"/>
<path d="M21.6364 21.8956H20.3636V23.1684H21.6364V21.8956Z" fill="#E6F85E"/>
<path d="M25.4545 21.8956H24.1818V23.1684H25.4545V21.8956Z" fill="#E6F85E"/>
<path d="M29.2727 21.8956H28V23.1684H29.2727V21.8956Z" fill="#E6F85E"/>
<path d="M30.5455 21.8956H29.2727V23.1684H30.5455V21.8956Z" fill="#E6F85E"/>
<path d="M36.9091 21.8956H35.6364V23.1684H36.9091V21.8956Z" fill="#E6F85E"/>
<path d="M39.4545 21.8956H38.1818V23.1684H39.4545V21.8956Z" fill="#E6F85E"/>
<path d="M42 21.8956H40.7273V23.1684H42V21.8956Z" fill="#E6F85E"/>
<path d="M1.27273 23.1684H0V24.4411H1.27273V23.1684Z" fill="#E6F85E"/>
<path d="M3.81818 23.1684H2.54545V24.4411H3.81818V23.1684Z" fill="#E6F85E"/>
<path d="M6.36364 23.1684H5.09091V24.4411H6.36364V23.1684Z" fill="#E6F85E"/>
<path d="M7.63636 23.1684H6.36364V24.4411H7.63636V23.1684Z" fill="#E6F85E"/>
<path d="M8.90909 23.1684H7.63636V24.4411H8.90909V23.1684Z" fill="#E6F85E"/>
<path d="M10.1818 23.1684H8.90909V24.4411H10.1818V23.1684Z" fill="#E6F85E"/>
<path d="M12.7273 23.1684H11.4545V24.4411H12.7273V23.1684Z" fill="#E6F85E"/>
<path d="M14 23.1684H12.7273V24.4411H14V23.1684Z" fill="#E6F85E"/>
<path d="M16.5455 23.1684H15.2727V24.4411H16.5455V23.1684Z" fill="#E6F85E"/>
<path d="M19.0909 23.1684H17.8182V24.4411H19.0909V23.1684Z" fill="#E6F85E"/>
<path d="M20.3636 23.1684H19.0909V24.4411H20.3636V23.1684Z" fill="#E6F85E"/>
<path d="M22.9091 23.1684H21.6364V24.4411H22.9091V23.1684Z" fill="#E6F85E"/>
<path d="M25.4545 23.1684H24.1818V24.4411H25.4545V23.1684Z" fill="#E6F85E"/>
<path d="M28 23.1684H26.7273V24.4411H28V23.1684Z" fill="#E6F85E"/>
<path d="M30.5455 23.1684H29.2727V24.4411H30.5455V23.1684Z" fill="#E6F85E"/>
<path d="M31.8182 23.1684H30.5455V24.4411H31.8182V23.1684Z" fill="#E6F85E"/>
<path d="M34.3636 23.1684H33.0909V24.4411H34.3636V23.1684Z" fill="#E6F85E"/>
<path d="M36.9091 23.1684H35.6364V24.4411H36.9091V23.1684Z" fill="#E6F85E"/>
<path d="M39.4545 23.1684H38.1818V24.4411H39.4545V23.1684Z" fill="#E6F85E"/>
<path d="M40.7273 23.1684H39.4545V24.4411H40.7273V23.1684Z" fill="#E6F85E"/>
<path d="M42 23.1684H40.7273V24.4411H42V23.1684Z" fill="#E6F85E"/>
<path d="M2.54545 24.4411H1.27273V25.7138H2.54545V24.4411Z" fill="#E6F85E"/>
<path d="M10.1818 24.4411H8.90909V25.7138H10.1818V24.4411Z" fill="#E6F85E"/>
<path d="M11.4545 24.4411H10.1818V25.7138H11.4545V24.4411Z" fill="#E6F85E"/>
<path d="M16.5455 24.4411H15.2727V25.7138H16.5455V24.4411Z" fill="#E6F85E"/>
<path d="M17.8182 24.4411H16.5455V25.7138H17.8182V24.4411Z" fill="#E6F85E"/>
<path d="M20.3636 24.4411H19.0909V25.7138H20.3636V24.4411Z" fill="#E6F85E"/>
<path d="M21.6364 24.4411H20.3636V25.7138H21.6364V24.4411Z" fill="#E6F85E"/>
<path d="M22.9091 24.4411H21.6364V25.7138H22.9091V24.4411Z" fill="#E6F85E"/>
<path d="M24.1818 24.4411H22.9091V25.7138H24.1818L24.1818 24.4411Z" fill="#E6F85E"/>
<path d="M25.4545 24.4411H24.1818L24.1818 25.7138H25.4545V24.4411Z" fill="#E6F85E"/>
<path d="M26.7273 24.4411H25.4545V25.7138H26.7273V24.4411Z" fill="#E6F85E"/>
<path d="M31.8182 24.4411H30.5455V25.7138H31.8182V24.4411Z" fill="#E6F85E"/>
<path d="M34.3636 24.4411H33.0909V25.7138H34.3636V24.4411Z" fill="#E6F85E"/>
<path d="M36.9091 24.4411H35.6364V25.7138H36.9091V24.4411Z" fill="#E6F85E"/>
<path d="M2.54545 25.7138H1.27273V26.9865H2.54545V25.7138Z" fill="#E6F85E"/>
<path d="M6.36364 25.7138H5.09091V26.9865H6.36364V25.7138Z" fill="#E6F85E"/>
<path d="M7.63636 25.7138H6.36364V26.9865H7.63636V25.7138Z" fill="#E6F85E"/>
<path d="M8.90909 25.7138H7.63636V26.9865H8.90909V25.7138Z" fill="#E6F85E"/>
<path d="M10.1818 25.7138H8.90909V26.9865H10.1818V25.7138Z" fill="#E6F85E"/>
<path d="M16.5455 25.7138H15.2727V26.9865H16.5455V25.7138Z" fill="#E6F85E"/>
<path d="M24.1818 25.7138H22.9091V26.9865H24.1818V25.7138Z" fill="#E6F85E"/>
<path d="M25.4545 25.7138H24.1818V26.9865H25.4545V25.7138Z" fill="#E6F85E"/>
<path d="M26.7273 25.7138H25.4545V26.9865H26.7273V25.7138Z" fill="#E6F85E"/>
<path d="M28 25.7138H26.7273V26.9865H28V25.7138Z" fill="#E6F85E"/>
<path d="M33.0909 25.7138H31.8182V26.9865H33.0909V25.7138Z" fill="#E6F85E"/>
<path d="M35.6364 25.7138H34.3636V26.9865H35.6364V25.7138Z" fill="#E6F85E"/>
<path d="M36.9091 25.7138H35.6364V26.9865H36.9091V25.7138Z" fill="#E6F85E"/>
<path d="M38.1818 25.7138H36.9091V26.9865H38.1818V25.7138Z" fill="#E6F85E"/>
<path d="M39.4545 25.7138H38.1818V26.9865H39.4545V25.7138Z" fill="#E6F85E"/>
<path d="M42 25.7138H40.7273V26.9865H42V25.7138Z" fill="#E6F85E"/>
<path d="M2.54545 26.9865H1.27273V28.2593H2.54545V26.9865Z" fill="#E6F85E"/>
<path d="M6.36364 26.9865H5.09091V28.2593H6.36364V26.9865Z" fill="#E6F85E"/>
<path d="M14 26.9865H12.7273V28.2593H14V26.9865Z" fill="#E6F85E"/>
<path d="M16.5455 26.9865H15.2727V28.2593H16.5455V26.9865Z" fill="#E6F85E"/>
<path d="M22.9091 26.9865H21.6364V28.2593H22.9091V26.9865Z" fill="#E6F85E"/>
<path d="M25.4545 26.9865H24.1818L24.1818 28.2593H25.4545V26.9865Z" fill="#E6F85E"/>
<path d="M26.7273 26.9865H25.4545V28.2593H26.7273V26.9865Z" fill="#E6F85E"/>
<path d="M34.3636 26.9865H33.0909V28.2593H34.3636V26.9865Z" fill="#E6F85E"/>
<path d="M36.9091 26.9865H35.6364V28.2593H36.9091V26.9865Z" fill="#E6F85E"/>
<path d="M1.27273 28.2593H0V29.532H1.27273V28.2593Z" fill="#E6F85E"/>
<path d="M2.54545 28.2593H1.27273V29.532H2.54545V28.2593Z" fill="#E6F85E"/>
<path d="M3.81818 28.2593H2.54545V29.532H3.81818V28.2593Z" fill="#E6F85E"/>
<path d="M8.90909 28.2593H7.63636V29.532H8.90909V28.2593Z" fill="#E6F85E"/>
<path d="M11.4545 28.2593H10.1818V29.532H11.4545V28.2593Z" fill="#E6F85E"/>
<path d="M16.5455 28.2593H15.2727V29.532H16.5455V28.2593Z" fill="#E6F85E"/>
<path d="M17.8182 28.2593H16.5455V29.532H17.8182V28.2593Z" fill="#E6F85E"/>
<path d="M20.3636 28.2593H19.0909V29.532H20.3636V28.2593Z" fill="#E6F85E"/>
<path d="M21.6364 28.2593H20.3636V29.532H21.6364V28.2593Z" fill="#E6F85E"/>
<path d="M22.9091 28.2593H21.6364V29.532H22.9091V28.2593Z" fill="#E6F85E"/>
<path d="M28 28.2593H26.7273V29.532H28V28.2593Z" fill="#E6F85E"/>
<path d="M31.8182 28.2593H30.5455V29.532H31.8182V28.2593Z" fill="#E6F85E"/>
<path d="M33.0909 28.2593H31.8182V29.532H33.0909V28.2593Z" fill="#E6F85E"/>
<path d="M34.3636 28.2593H33.0909V29.532H34.3636V28.2593Z" fill="#E6F85E"/>
<path d="M39.4545 28.2593H38.1818V29.532H39.4545V28.2593Z" fill="#E6F85E"/>
<path d="M40.7273 28.2593H39.4545V29.532H40.7273V28.2593Z" fill="#E6F85E"/>
<path d="M42 28.2593H40.7273V29.532H42V28.2593Z" fill="#E6F85E"/>
<path d="M6.36364 29.532H5.09091V30.8047H6.36364V29.532Z" fill="#E6F85E"/>
<path d="M7.63636 29.532H6.36364V30.8047H7.63636V29.532Z" fill="#E6F85E"/>
<path d="M14 29.532H12.7273V30.8047H14V29.532Z" fill="#E6F85E"/>
<path d="M15.2727 29.532H14V30.8047H15.2727V29.532Z" fill="#E6F85E"/>
<path d="M16.5455 29.532H15.2727V30.8047H16.5455V29.532Z" fill="#E6F85E"/>
<path d="M19.0909 29.532H17.8182V30.8047H19.0909V29.532Z" fill="#E6F85E"/>
<path d="M20.3636 29.532H19.0909V30.8047H20.3636V29.532Z" fill="#E6F85E"/>
<path d="M24.1818 29.532H22.9091V30.8047H24.1818V29.532Z" fill="#E6F85E"/>
<path d="M29.2727 29.532H28V30.8047H29.2727V29.532Z" fill="#E6F85E"/>
<path d="M30.5455 29.532H29.2727V30.8047H30.5455V29.532Z" fill="#E6F85E"/>
<path d="M31.8182 29.532H30.5455V30.8047H31.8182V29.532Z" fill="#E6F85E"/>
<path d="M34.3636 29.532H33.0909V30.8047H34.3636V29.532Z" fill="#E6F85E"/>
<path d="M35.6364 29.532H34.3636V30.8047H35.6364V29.532Z" fill="#E6F85E"/>
<path d="M36.9091 29.532H35.6364V30.8047H36.9091V29.532Z" fill="#E6F85E"/>
<path d="M38.1818 29.532H36.9091V30.8047H38.1818V29.532Z" fill="#E6F85E"/>
<path d="M42 29.532H40.7273V30.8047H42V29.532Z" fill="#E6F85E"/>
<path d="M6.36364 30.8047H5.09091V32.0775H6.36364V30.8047Z" fill="#E6F85E"/>
<path d="M8.90909 30.8047H7.63636V32.0775H8.90909V30.8047Z" fill="#E6F85E"/>
<path d="M10.1818 30.8047H8.90909V32.0775H10.1818V30.8047Z" fill="#E6F85E"/>
<path d="M11.4545 30.8047H10.1818V32.0775H11.4545V30.8047Z" fill="#E6F85E"/>
<path d="M14 30.8047H12.7273V32.0775H14V30.8047Z" fill="#E6F85E"/>
<path d="M15.2727 30.8047H14V32.0775H15.2727V30.8047Z" fill="#E6F85E"/>
<path d="M16.5455 30.8047H15.2727V32.0775H16.5455V30.8047Z" fill="#E6F85E"/>
<path d="M19.0909 30.8047H17.8182V32.0775H19.0909V30.8047Z" fill="#E6F85E"/>
<path d="M22.9091 30.8047H21.6364V32.0775H22.9091V30.8047Z" fill="#E6F85E"/>
<path d="M26.7273 30.8047H25.4545V32.0775H26.7273V30.8047Z" fill="#E6F85E"/>
<path d="M28 30.8047H26.7273V32.0775H28V30.8047Z" fill="#E6F85E"/>
<path d="M30.5455 30.8047H29.2727V32.0775H30.5455V30.8047Z" fill="#E6F85E"/>
<path d="M31.8182 30.8047H30.5455V32.0775H31.8182V30.8047Z" fill="#E6F85E"/>
<path d="M33.0909 30.8047H31.8182V32.0775H33.0909V30.8047Z" fill="#E6F85E"/>
<path d="M34.3636 30.8047H33.0909V32.0775H34.3636V30.8047Z" fill="#E6F85E"/>
<path d="M35.6364 30.8047H34.3636V32.0775H35.6364V30.8047Z" fill="#E6F85E"/>
<path d="M36.9091 30.8047H35.6364V32.0775H36.9091V30.8047Z" fill="#E6F85E"/>
<path d="M39.4545 30.8047H38.1818V32.0775H39.4545V30.8047Z" fill="#E6F85E"/>
<path d="M42 30.8047H40.7273V32.0775H42V30.8047Z" fill="#E6F85E"/>
<path d="M11.4545 32.0775H10.1818V33.3502H11.4545V32.0775Z" fill="#E6F85E"/>
<path d="M15.2727 32.0775H14V33.3502H15.2727V32.0775Z" fill="#E6F85E"/>
<path d="M16.5455 32.0775H15.2727V33.3502H16.5455V32.0775Z" fill="#E6F85E"/>
<path d="M21.6364 32.0775H20.3636V33.3502H21.6364V32.0775Z" fill="#E6F85E"/>
<path d="M26.7273 32.0775H25.4545V33.3502H26.7273V32.0775Z" fill="#E6F85E"/>
<path d="M28 32.0775H26.7273V33.3502H28V32.0775Z" fill="#E6F85E"/>
<path d="M30.5455 32.0775H29.2727V33.3502H30.5455V32.0775Z" fill="#E6F85E"/>
<path d="M31.8182 32.0775H30.5455V33.3502H31.8182V32.0775Z" fill="#E6F85E"/>
<path d="M36.9091 32.0775H35.6364V33.3502H36.9091V32.0775Z" fill="#E6F85E"/>
<path d="M38.1818 32.0775H36.9091V33.3502H38.1818V32.0775Z" fill="#E6F85E"/>
<path d="M39.4545 32.0775H38.1818V33.3502H39.4545V32.0775Z" fill="#E6F85E"/>
<path d="M40.7273 32.0775H39.4545V33.3502H40.7273V32.0775Z" fill="#E6F85E"/>
<path d="M1.27273 33.3502H0V34.6229H1.27273V33.3502Z" fill="#E6F85E"/>
<path d="M2.54545 33.3502H1.27273V34.6229H2.54545V33.3502Z" fill="#E6F85E"/>
<path d="M3.81818 33.3502H2.54545V34.6229H3.81818V33.3502Z" fill="#E6F85E"/>
<path d="M5.09091 33.3502H3.81818V34.6229H5.09091V33.3502Z" fill="#E6F85E"/>
<path d="M6.36364 33.3502H5.09091V34.6229H6.36364V33.3502Z" fill="#E6F85E"/>
<path d="M7.63636 33.3502H6.36364V34.6229H7.63636V33.3502Z" fill="#E6F85E"/>
<path d="M8.90909 33.3502H7.63636V34.6229H8.90909V33.3502Z" fill="#E6F85E"/>
<path d="M12.7273 33.3502H11.4545V34.6229H12.7273V33.3502Z" fill="#E6F85E"/>
<path d="M14 33.3502H12.7273V34.6229H14V33.3502Z" fill="#E6F85E"/>
<path d="M15.2727 33.3502H14V34.6229H15.2727V33.3502Z" fill="#E6F85E"/>
<path d="M16.5455 33.3502H15.2727V34.6229H16.5455V33.3502Z" fill="#E6F85E"/>
<path d="M21.6364 33.3502H20.3636V34.6229H21.6364V33.3502Z" fill="#E6F85E"/>
<path d="M22.9091 33.3502H21.6364V34.6229H22.9091V33.3502Z" fill="#E6F85E"/>
<path d="M24.1818 33.3502H22.9091V34.6229H24.1818V33.3502Z" fill="#E6F85E"/>
<path d="M25.4545 33.3502H24.1818V34.6229H25.4545V33.3502Z" fill="#E6F85E"/>
<path d="M29.2727 33.3502H28V34.6229H29.2727V33.3502Z" fill="#E6F85E"/>
<path d="M31.8182 33.3502H30.5455V34.6229H31.8182V33.3502Z" fill="#E6F85E"/>
<path d="M34.3636 33.3502H33.0909V34.6229H34.3636V33.3502Z" fill="#E6F85E"/>
<path d="M36.9091 33.3502H35.6364V34.6229H36.9091V33.3502Z" fill="#E6F85E"/>
<path d="M40.7273 33.3502H39.4545V34.6229H40.7273V33.3502Z" fill="#E6F85E"/>
<path d="M1.27273 34.6229H0V35.8956H1.27273V34.6229Z" fill="#E6F85E"/>
<path d="M8.90909 34.6229H7.63636V35.8956H8.90909V34.6229Z" fill="#E6F85E"/>
<path d="M12.7273 34.6229H11.4545V35.8956H12.7273V34.6229Z" fill="#E6F85E"/>
<path d="M14 34.6229H12.7273V35.8956H14V34.6229Z" fill="#E6F85E"/>
<path d="M15.2727 34.6229H14V35.8956H15.2727V34.6229Z" fill="#E6F85E"/>
<path d="M20.3636 34.6229H19.0909V35.8956H20.3636V34.6229Z" fill="#E6F85E"/>
<path d="M21.6364 34.6229H20.3636V35.8956H21.6364V34.6229Z" fill="#E6F85E"/>
<path d="M22.9091 34.6229H21.6364V35.8956H22.9091V34.6229Z" fill="#E6F85E"/>
<path d="M24.1818 34.6229H22.9091V35.8956H24.1818V34.6229Z" fill="#E6F85E"/>
<path d="M31.8182 34.6229H30.5455V35.8956H31.8182V34.6229Z" fill="#E6F85E"/>
<path d="M36.9091 34.6229H35.6364V35.8956H36.9091V34.6229Z" fill="#E6F85E"/>
<path d="M38.1818 34.6229H36.9091V35.8956H38.1818V34.6229Z" fill="#E6F85E"/>
<path d="M39.4545 34.6229H38.1818V35.8956H39.4545V34.6229Z" fill="#E6F85E"/>
<path d="M1.27273 35.8956H0V37.1684H1.27273V35.8956Z" fill="#E6F85E"/>
<path d="M3.81818 35.8956H2.54545V37.1684H3.81818V35.8956Z" fill="#E6F85E"/>
<path d="M5.09091 35.8956H3.81818V37.1684H5.09091V35.8956Z" fill="#E6F85E"/>
<path d="M6.36364 35.8956H5.09091V37.1684H6.36364V35.8956Z" fill="#E6F85E"/>
<path d="M8.90909 35.8956H7.63636V37.1684H8.90909V35.8956Z" fill="#E6F85E"/>
<path d="M11.4545 35.8956H10.1818V37.1684H11.4545V35.8956Z" fill="#E6F85E"/>
<path d="M12.7273 35.8956H11.4545V37.1684H12.7273V35.8956Z" fill="#E6F85E"/>
<path d="M15.2727 35.8956H14V37.1684H15.2727V35.8956Z" fill="#E6F85E"/>
<path d="M20.3636 35.8956H19.0909V37.1684H20.3636V35.8956Z" fill="#E6F85E"/>
<path d="M22.9091 35.8956H21.6364V37.1684H22.9091V35.8956Z" fill="#E6F85E"/>
<path d="M28 35.8956H26.7273V37.1684H28V35.8956Z" fill="#E6F85E"/>
<path d="M31.8182 35.8956H30.5455V37.1684H31.8182V35.8956Z" fill="#E6F85E"/>
<path d="M33.0909 35.8956H31.8182V37.1684H33.0909V35.8956Z" fill="#E6F85E"/>
<path d="M34.3636 35.8956H33.0909V37.1684H34.3636V35.8956Z" fill="#E6F85E"/>
<path d="M35.6364 35.8956H34.3636V37.1684H35.6364V35.8956Z" fill="#E6F85E"/>
<path d="M36.9091 35.8956H35.6364V37.1684H36.9091V35.8956Z" fill="#E6F85E"/>
<path d="M39.4545 35.8956H38.1818V37.1684H39.4545V35.8956Z" fill="#E6F85E"/>
<path d="M40.7273 35.8956H39.4545V37.1684H40.7273V35.8956Z" fill="#E6F85E"/>
<path d="M42 35.8956H40.7273V37.1684H42V35.8956Z" fill="#E6F85E"/>
<path d="M1.27273 37.1684H0V38.4411H1.27273V37.1684Z" fill="#E6F85E"/>
<path d="M3.81818 37.1684H2.54545V38.4411H3.81818V37.1684Z" fill="#E6F85E"/>
<path d="M5.09091 37.1684H3.81818V38.4411H5.09091V37.1684Z" fill="#E6F85E"/>
<path d="M6.36364 37.1684H5.09091V38.4411H6.36364V37.1684Z" fill="#E6F85E"/>
<path d="M8.90909 37.1684H7.63636V38.4411H8.90909V37.1684Z" fill="#E6F85E"/>
<path d="M14 37.1684H12.7273V38.4411H14V37.1684Z" fill="#E6F85E"/>
<path d="M15.2727 37.1684H14V38.4411H15.2727V37.1684Z" fill="#E6F85E"/>
<path d="M22.9091 37.1684H21.6364V38.4411H22.9091V37.1684Z" fill="#E6F85E"/>
<path d="M24.1818 37.1684H22.9091V38.4411H24.1818V37.1684Z" fill="#E6F85E"/>
<path d="M26.7273 37.1684H25.4545V38.4411H26.7273V37.1684Z" fill="#E6F85E"/>
<path d="M28 37.1684H26.7273V38.4411H28V37.1684Z" fill="#E6F85E"/>
<path d="M31.8182 37.1684H30.5455V38.4411H31.8182V37.1684Z" fill="#E6F85E"/>
<path d="M34.3636 37.1684H33.0909V38.4411H34.3636V37.1684Z" fill="#E6F85E"/>
<path d="M42 37.1684H40.7273V38.4411H42V37.1684Z" fill="#E6F85E"/>
<path d="M1.27273 38.4411H0V39.7138H1.27273V38.4411Z" fill="#E6F85E"/>
<path d="M3.81818 38.4411H2.54545V39.7138H3.81818V38.4411Z" fill="#E6F85E"/>
<path d="M5.09091 38.4411H3.81818V39.7138H5.09091V38.4411Z" fill="#E6F85E"/>
<path d="M6.36364 38.4411H5.09091V39.7138H6.36364V38.4411Z" fill="#E6F85E"/>
<path d="M8.90909 38.4411H7.63636V39.7138H8.90909V38.4411Z" fill="#E6F85E"/>
<path d="M11.4545 38.4411H10.1818V39.7138H11.4545V38.4411Z" fill="#E6F85E"/>
<path d="M14 38.4411H12.7273V39.7138H14V38.4411Z" fill="#E6F85E"/>
<path d="M15.2727 38.4411H14V39.7138H15.2727V38.4411Z" fill="#E6F85E"/>
<path d="M17.8182 38.4411H16.5455V39.7138H17.8182V38.4411Z" fill="#E6F85E"/>
<path d="M20.3636 38.4411H19.0909V39.7138H20.3636V38.4411Z" fill="#E6F85E"/>
<path d="M24.1818 38.4411H22.9091V39.7138H24.1818V38.4411Z" fill="#E6F85E"/>
<path d="M25.4545 38.4411H24.1818V39.7138H25.4545V38.4411Z" fill="#E6F85E"/>
<path d="M28 38.4411H26.7273V39.7138H28V38.4411Z" fill="#E6F85E"/>
<path d="M29.2727 38.4411H28V39.7138H29.2727V38.4411Z" fill="#E6F85E"/>
<path d="M30.5455 38.4411H29.2727V39.7138H30.5455V38.4411Z" fill="#E6F85E"/>
<path d="M34.3636 38.4411H33.0909V39.7138H34.3636V38.4411Z" fill="#E6F85E"/>
<path d="M35.6364 38.4411H34.3636V39.7138H35.6364V38.4411Z" fill="#E6F85E"/>
<path d="M38.1818 38.4411H36.9091V39.7138H38.1818V38.4411Z" fill="#E6F85E"/>
<path d="M39.4545 38.4411H38.1818V39.7138H39.4545V38.4411Z" fill="#E6F85E"/>
<path d="M40.7273 38.4411H39.4545V39.7138H40.7273V38.4411Z" fill="#E6F85E"/>
<path d="M1.27273 39.7138H0V40.9865H1.27273V39.7138Z" fill="#E6F85E"/>
<path d="M8.90909 39.7138H7.63636V40.9865H8.90909V39.7138Z" fill="#E6F85E"/>
<path d="M11.4545 39.7138H10.1818V40.9865H11.4545V39.7138Z" fill="#E6F85E"/>
<path d="M14 39.7138H12.7273V40.9865H14V39.7138Z" fill="#E6F85E"/>
<path d="M22.9091 39.7138H21.6364V40.9865H22.9091V39.7138Z" fill="#E6F85E"/>
<path d="M24.1818 39.7138H22.9091V40.9865H24.1818V39.7138Z" fill="#E6F85E"/>
<path d="M28 39.7138H26.7273V40.9865H28V39.7138Z" fill="#E6F85E"/>
<path d="M31.8182 39.7138H30.5455V40.9865H31.8182V39.7138Z" fill="#E6F85E"/>
<path d="M34.3636 39.7138H33.0909V40.9865H34.3636V39.7138Z" fill="#E6F85E"/>
<path d="M35.6364 39.7138H34.3636V40.9865H35.6364V39.7138Z" fill="#E6F85E"/>
<path d="M39.4545 39.7138H38.1818V40.9865H39.4545V39.7138Z" fill="#E6F85E"/>
<path d="M40.7273 39.7138H39.4545V40.9865H40.7273V39.7138Z" fill="#E6F85E"/>
<path d="M1.27273 40.9865H0V42.2593H1.27273V40.9865Z" fill="#E6F85E"/>
<path d="M2.54545 40.9865H1.27273V42.2593H2.54545V40.9865Z" fill="#E6F85E"/>
<path d="M3.81818 40.9865H2.54545V42.2593H3.81818V40.9865Z" fill="#E6F85E"/>
<path d="M5.09091 40.9865H3.81818V42.2593H5.09091V40.9865Z" fill="#E6F85E"/>
<path d="M6.36364 40.9865H5.09091V42.2593H6.36364V40.9865Z" fill="#E6F85E"/>
<path d="M7.63636 40.9865H6.36364V42.2593H7.63636V40.9865Z" fill="#E6F85E"/>
<path d="M8.90909 40.9865H7.63636V42.2593H8.90909V40.9865Z" fill="#E6F85E"/>
<path d="M11.4545 40.9865H10.1818V42.2593H11.4545V40.9865Z" fill="#E6F85E"/>
<path d="M14 40.9865H12.7273V42.2593H14V40.9865Z" fill="#E6F85E"/>
<path d="M15.2727 40.9865H14V42.2593H15.2727V40.9865Z" fill="#E6F85E"/>
<path d="M16.5455 40.9865H15.2727V42.2593H16.5455V40.9865Z" fill="#E6F85E"/>
<path d="M20.3636 40.9865H19.0909V42.2593H20.3636V40.9865Z" fill="#E6F85E"/>
<path d="M21.6364 40.9865H20.3636V42.2593H21.6364V40.9865Z" fill="#E6F85E"/>
<path d="M22.9091 40.9865H21.6364V42.2593H22.9091V40.9865Z" fill="#E6F85E"/>
<path d="M24.1818 40.9865H22.9091V42.2593H24.1818V40.9865Z" fill="#E6F85E"/>
<path d="M25.4545 40.9865H24.1818V42.2593H25.4545V40.9865Z" fill="#E6F85E"/>
<path d="M29.2727 40.9865H28V42.2593H29.2727V40.9865Z" fill="#E6F85E"/>
<path d="M30.5455 40.9865H29.2727V42.2593H30.5455V40.9865Z" fill="#E6F85E"/>
<path d="M35.6364 40.9865H34.3636V42.2593H35.6364V40.9865Z" fill="#E6F85E"/>
<path d="M36.9091 40.9865H35.6364V42.2593H36.9091V40.9865Z" fill="#E6F85E"/>
<path d="M38.1818 40.9865H36.9091V42.2593H38.1818V40.9865Z" fill="#E6F85E"/>
<path d="M39.4545 40.9865H38.1818V42.2593H39.4545V40.9865Z" fill="#E6F85E"/>
<path d="M40.7273 40.9865H39.4545V42.2593H40.7273V40.9865Z" fill="#E6F85E"/>
</svg>
