<svg width="361" height="20" viewBox="0 0 361 20" fill="none" xmlns="http://www.w3.org/2000/svg">
<rect width="361" height="19.6296" fill="#E6F85E"/>
<path d="M12 14.6296L14.6963 5" stroke="black" stroke-width="3" stroke-linecap="round"/>
<path d="M19.429 14.6296L22.1253 5" stroke="black" stroke-width="3" stroke-linecap="round"/>
<path d="M26.8579 14.6296L29.5542 5" stroke="black" stroke-width="3" stroke-linecap="round"/>
<path d="M34.2869 14.6296L36.9832 5" stroke="black" stroke-width="3" stroke-linecap="round"/>
<path d="M41.7158 14.6296L44.4121 5" stroke="black" stroke-width="3" stroke-linecap="round"/>
<path d="M49.1449 14.6296L51.8412 5" stroke="black" stroke-width="3" stroke-linecap="round"/>
<path d="M56.5739 14.6296L59.2702 5" stroke="black" stroke-width="3" stroke-linecap="round"/>
<path d="M64.0028 14.6296L66.6991 5" stroke="black" stroke-width="3" stroke-linecap="round"/>
<path d="M71.4318 14.6296L74.1281 5" stroke="black" stroke-width="3" stroke-linecap="round"/>
<path d="M78.8607 14.6296L81.557 5" stroke="black" stroke-width="3" stroke-linecap="round"/>
<path d="M86.2897 14.6296L88.986 5" stroke="black" stroke-width="3" stroke-linecap="round"/>
<path d="M93.7186 14.6296L96.4149 5" stroke="black" stroke-width="3" stroke-linecap="round"/>
<path d="M101.148 14.6296L103.844 5" stroke="black" stroke-width="3" stroke-linecap="round"/>
<path d="M108.577 14.6296L111.273 5" stroke="black" stroke-width="3" stroke-linecap="round"/>
<path d="M116.006 14.6296L118.702 5" stroke="black" stroke-width="3" stroke-linecap="round"/>
<path d="M123.435 14.6296L126.131 5" stroke="black" stroke-width="3" stroke-linecap="round"/>
<path d="M130.864 14.6296L133.56 5" stroke="black" stroke-width="3" stroke-linecap="round"/>
<path d="M138.292 14.6296L140.989 5" stroke="black" stroke-width="3" stroke-linecap="round"/>
<path d="M145.721 14.6296L148.418 5" stroke="black" stroke-width="3" stroke-linecap="round"/>
<path d="M153.15 14.6296L155.847 5" stroke="black" stroke-width="3" stroke-linecap="round"/>
<path d="M160.579 14.6296L163.276 5" stroke="black" stroke-width="3" stroke-linecap="round"/>
<path d="M168.008 14.6296L170.705 5" stroke="black" stroke-width="3" stroke-linecap="round"/>
<path d="M175.437 14.6296L178.134 5" stroke="black" stroke-width="3" stroke-linecap="round"/>
<path d="M182.866 14.6296L185.563 5" stroke="black" stroke-width="3" stroke-linecap="round"/>
<path d="M190.295 14.6296L192.992 5" stroke="black" stroke-width="3" stroke-linecap="round"/>
<path d="M197.724 14.6296L200.421 5" stroke="black" stroke-width="3" stroke-linecap="round"/>
<path d="M205.153 14.6296L207.849 5" stroke="black" stroke-width="3" stroke-linecap="round"/>
<path d="M212.582 14.6296L215.278 5" stroke="black" stroke-width="3" stroke-linecap="round"/>
<path d="M220.011 14.6296L222.708 5" stroke="black" stroke-width="3" stroke-linecap="round"/>
<path d="M227.44 14.6296L230.136 5" stroke="black" stroke-width="3" stroke-linecap="round"/>
<path d="M234.869 14.6296L237.565 5" stroke="black" stroke-width="3" stroke-linecap="round"/>
<path d="M242.298 14.6296L244.994 5" stroke="black" stroke-width="3" stroke-linecap="round"/>
<path d="M249.727 14.6296L252.423 5" stroke="black" stroke-width="3" stroke-linecap="round"/>
<path d="M257.156 14.6296L259.852 5" stroke="black" stroke-width="3" stroke-linecap="round"/>
<path d="M264.585 14.6296L267.281 5" stroke="black" stroke-width="3" stroke-linecap="round"/>
<path d="M272.014 14.6296L274.71 5" stroke="black" stroke-width="3" stroke-linecap="round"/>
<path d="M279.443 14.6296L282.139 5" stroke="black" stroke-width="3" stroke-linecap="round"/>
<path d="M286.872 14.6296L289.568 5" stroke="black" stroke-width="3" stroke-linecap="round"/>
<path d="M294.301 14.6296L296.997 5" stroke="black" stroke-width="3" stroke-linecap="round"/>
<path d="M301.73 14.6296L304.426 5" stroke="black" stroke-width="3" stroke-linecap="round"/>
<path d="M309.159 14.6296L311.855 5" stroke="black" stroke-width="3" stroke-linecap="round"/>
<path d="M316.588 14.6296L319.284 5" stroke="black" stroke-width="3" stroke-linecap="round"/>
<path d="M324.017 14.6296L326.713 5" stroke="black" stroke-width="3" stroke-linecap="round"/>
<path d="M331.446 14.6296L334.142 5" stroke="black" stroke-width="3" stroke-linecap="round"/>
<path d="M338.875 14.6296L341.571 5" stroke="black" stroke-width="3" stroke-linecap="round"/>
<path d="M346.304 14.6296L349 5" stroke="black" stroke-width="3" stroke-linecap="round"/>
</svg>
