<svg width="129" height="128" viewBox="0 0 129 128" fill="none" xmlns="http://www.w3.org/2000/svg">
<path d="M48.9611 96.2083C48.2157 96.2083 47.5022 95.8318 47.0871 95.1778L36.5545 78.5835V93.9886C36.5545 95.2146 35.5611 96.208 34.3351 96.208C33.1091 96.208 32.1157 95.2146 32.1157 93.9886V70.9439C32.1157 69.9568 32.7687 69.0884 33.7158 68.8124C34.6672 68.536 35.6788 68.92 36.2091 69.755L46.7418 86.3493V70.9442C46.7418 69.7179 47.7352 68.7248 48.9611 68.7248C50.1871 68.7248 51.1805 69.7183 51.1805 70.9442V93.9889C51.1805 94.976 50.5276 95.8444 49.5805 96.1204C49.3748 96.1799 49.1668 96.2083 48.9611 96.2083Z" fill="#E6F85E"/>
<path d="M57.7076 96.2083C56.4817 96.2083 55.4883 95.2149 55.4883 93.9889V70.9443C55.4883 69.7179 56.4817 68.7249 57.7076 68.7249H72.3351C73.5611 68.7249 74.5544 69.7183 74.5544 70.9443C74.5544 72.1702 73.5611 73.1636 72.3351 73.1636H59.927V93.9886C59.927 95.2149 58.934 96.2083 57.7076 96.2083Z" fill="#E6F85E"/>
<path d="M68.2714 84.6861H57.7076C56.4817 84.6861 55.4883 83.6927 55.4883 82.4667C55.4883 81.2407 56.4817 80.2473 57.7076 80.2473H68.2714C69.4974 80.2473 70.4908 81.2407 70.4908 82.4667C70.4908 83.6927 69.4974 84.6861 68.2714 84.6861Z" fill="#E6F85E"/>
<path d="M90.3609 96.2083H84.3427C80.7461 96.2083 77.8191 93.2817 77.8191 89.685V75.2485C77.8191 71.6518 80.7457 68.7249 84.3427 68.7249H90.3609C93.9576 68.7249 96.8846 71.6515 96.8846 75.2485C96.8846 76.4745 95.8912 77.4679 94.6652 77.4679C93.4392 77.4679 92.4458 76.4745 92.4458 75.2485C92.4458 74.0992 91.5105 73.164 90.3612 73.164H84.3431C83.1938 73.164 82.2586 74.0992 82.2586 75.2485V89.685C82.2586 90.8343 83.1938 91.7696 84.3431 91.7696H90.3612C91.5105 91.7696 92.4458 90.8343 92.4458 89.685C92.4458 88.4587 93.4392 87.4657 94.6652 87.4657C95.8912 87.4657 96.8846 88.459 96.8846 89.685C96.8846 93.2817 93.9579 96.2083 90.3609 96.2083Z" fill="#E6F85E"/>
<path d="M86.8297 37.1863C86.2612 37.1863 85.6941 36.9695 85.2605 36.5362C73.8136 25.0893 55.186 25.0893 43.7392 36.5362C42.8722 37.4031 41.4676 37.4031 40.6006 36.5362C39.7337 35.6692 39.7337 34.2646 40.6006 33.3976C53.7789 20.2193 75.2207 20.2193 88.399 33.3976C89.2659 34.2646 89.2659 35.6692 88.399 36.5362C87.9657 36.9695 87.3982 37.1863 86.8297 37.1863Z" fill="#E6F85E"/>
<path d="M77.6671 46.3494C77.0986 46.3494 76.5315 46.1326 76.0979 45.6993C73.0003 42.6017 68.8807 40.8948 64.5001 40.8948C60.1195 40.8948 55.9998 42.6014 52.9022 45.6993C52.0353 46.5662 50.6307 46.5662 49.7637 45.6993C48.8968 44.8323 48.8968 43.4277 49.7637 42.5608C53.6999 38.6236 58.9327 36.4561 64.5001 36.4561C70.0675 36.4561 75.3003 38.6236 79.2364 42.5608C80.1033 43.4277 80.1033 44.8323 79.2364 45.6993C78.8028 46.1326 78.2357 46.3494 77.6671 46.3494Z" fill="#E6F85E"/>
<path d="M68.8436 55.1727C68.2751 55.1727 67.708 54.9559 67.2743 54.5226C65.7436 52.9943 63.2566 52.9943 61.7255 54.5226C60.8585 55.3895 59.4539 55.3895 58.587 54.5226C57.72 53.6556 57.72 52.251 58.587 51.384C61.8467 48.1239 67.1528 48.1239 70.4128 51.384C71.2798 52.251 71.2798 53.6556 70.4128 54.5226C69.9795 54.9559 69.4121 55.1727 68.8436 55.1727Z" fill="#E6F85E"/>
<path d="M64.5 128.001C29.2099 128.001 0.5 99.2912 0.5 64.001C0.5 28.7108 29.2099 0 64.5 0C99.7902 0 128.5 28.7108 128.5 64.001C128.5 99.2912 99.7902 128.001 64.5 128.001ZM64.5 4.43877C31.6583 4.43877 4.93915 31.1583 4.93915 64.001C4.93915 96.8427 31.6587 123.562 64.5 123.562C97.3414 123.562 124.061 96.8424 124.061 64.001C124.061 31.1583 97.3414 4.43877 64.5 4.43877Z" fill="white"/>
</svg>
