<svg width="24" height="16" viewBox="0 0 24 16" fill="none" xmlns="http://www.w3.org/2000/svg">
  <path d="M18.1868 6.8153C18.1868 6.8153 18.1834 6.82966 18.1771 6.85322C18.1948 6.94437 18.2041 7.03818 18.2041 7.1344C18.2041 7.94959 17.5423 8.61052 16.7273 8.61052C15.912 8.61052 15.2494 7.94959 15.2494 7.1344C15.2494 6.63507 15.4946 6.19457 15.8741 5.9273C15.8876 5.91273 15.889 5.90415 15.889 5.90415C15.889 5.90415 16.0821 5.0295 14.6607 2.80632C13.2392 0.582928 11.9727 0.437256 11.9727 0.437256C11.9727 0.437256 10.7335 0.582928 9.31203 2.80632C7.89063 5.02954 8.09742 5.90415 8.09742 5.90415C8.09742 5.90415 8.10572 5.91273 8.11924 5.9273C8.49854 6.19453 8.74723 6.63507 8.74723 7.1344C8.74723 7.94959 8.08634 8.61052 7.27107 8.61052C6.45584 8.61052 5.79491 7.94959 5.79491 7.1344C5.79491 7.03818 5.80495 6.94437 5.82262 6.85322C5.8164 6.82966 5.81312 6.8153 5.81312 6.8153C5.81312 6.8153 3.44414 4.66535 0 5.10248L3.6993 15.0888C3.6993 15.0888 6.15935 15.5627 11.9727 15.5627C17.5672 15.5627 20.3006 15.0888 20.3006 15.0888L23.9999 5.10248C20.5558 4.66535 18.1868 6.8153 18.1868 6.8153Z" fill="url(#paint0_linear_4178_42800)"/>
  <path opacity="0.25" d="M20.5435 5.48945C19.0713 6.01442 18.1868 6.81554 18.1868 6.81554C18.1868 6.81554 18.1834 6.8299 18.1771 6.85346C18.1948 6.94462 18.2041 7.03843 18.2041 7.13464C18.2041 7.94983 17.5423 8.61076 16.7273 8.61076C15.912 8.61076 15.2494 7.94983 15.2494 7.13464C15.2494 6.63531 15.4946 6.19482 15.8741 5.92754C15.8876 5.91298 15.889 5.90439 15.889 5.90439C15.889 5.90439 16.0821 5.02974 14.6607 2.80656C13.2392 0.583169 11.9727 0.4375 11.9727 0.4375C11.9727 0.4375 10.7335 0.583169 9.31203 2.80656C7.89063 5.02979 8.09742 5.90439 8.09742 5.90439C8.09742 5.90439 8.10572 5.91298 8.11924 5.92754C8.49854 6.19478 8.74723 6.63531 8.74723 7.13464C8.74723 7.94983 8.08634 8.61076 7.27107 8.61076C6.45584 8.61076 5.79491 7.94983 5.79491 7.13464C5.79491 7.03843 5.80495 6.94462 5.82262 6.85346C5.8164 6.8299 5.81312 6.81554 5.81312 6.81554C5.81312 6.81554 3.44414 4.66559 0 5.10273L3.6993 15.089C3.6993 15.089 6.15935 15.5629 11.9727 15.5629C12.4898 15.5629 12.9822 15.5588 13.4508 15.5515C17.6371 13.9162 20.5559 10.2368 20.5559 5.95928C20.5559 5.80187 20.5511 5.64541 20.5435 5.48945Z" fill="#FFFFD9"/>
  <path opacity="0.25" d="M17.4731 8.40659C17.2541 8.53538 16.9996 8.61052 16.7272 8.61052C15.912 8.61052 15.2493 7.94959 15.2493 7.1344C15.2493 6.63507 15.4945 6.19457 15.874 5.9273C15.8875 5.91273 15.8889 5.90414 15.8889 5.90414C15.8889 5.90414 16.082 5.0295 14.6606 2.80632C13.2392 0.582925 11.9726 0.437256 11.9726 0.437256C11.9726 0.437256 10.7334 0.582925 9.31196 2.80632C7.89056 5.02954 8.09734 5.90414 8.09734 5.90414C8.09734 5.90414 8.10564 5.91273 8.11917 5.9273C8.49847 6.19453 8.74716 6.63507 8.74716 7.1344C8.74716 7.94959 8.08627 8.61052 7.27099 8.61052C6.45576 8.61052 5.79483 7.94959 5.79483 7.1344C5.79483 7.03818 5.80487 6.94437 5.82255 6.85322C5.81632 6.82965 5.81305 6.8153 5.81305 6.8153C5.81305 6.8153 4.4843 5.60961 2.37061 5.1877C2.64668 9.46537 6.11646 12.8479 10.3591 12.8479C13.4564 12.8479 16.1409 11.0442 17.4731 8.40659Z" fill="#FFFFD9"/>
  <path opacity="0.25" d="M15.5324 4.40828C15.3474 3.97944 15.072 3.4497 14.6607 2.80632C13.2392 0.582925 11.9727 0.437256 11.9727 0.437256C11.9727 0.437256 10.7335 0.582925 9.31203 2.80632C7.89063 5.02954 8.09742 5.90414 8.09742 5.90414C8.09742 5.90414 8.10572 5.91273 8.11924 5.9273C8.49854 6.19453 8.74723 6.63507 8.74723 7.1344C8.74723 7.44864 8.64815 7.73944 8.4807 7.97888C9.22702 9.09113 10.2804 9.78575 11.4487 9.78575C13.6094 9.78575 15.3779 7.41445 15.5324 4.40828Z" fill="#FFFFD9"/>
  <path opacity="0.25" d="M8.73113 8.31992C10.3727 8.05883 11.9266 5.46394 12 4.02719C12.0821 2.42357 11.9727 0.811286 11.9727 0.811286C11.9353 0.685863 11.9486 0.560231 11.9727 0.437256C11.6341 0.532101 10.4768 0.984382 9.31203 2.80632C7.89063 5.02954 8.09742 5.90415 8.09742 5.90415C8.09742 5.90415 8.10571 5.91273 8.11924 5.9273C8.49854 6.19453 8.74723 6.63507 8.74723 7.1344C8.74723 7.44864 8.64815 7.73944 8.4807 7.97888C8.56053 8.09783 8.64454 8.21093 8.73113 8.31992Z" fill="#FFFFD9"/>
  <g opacity="0.65">
  <path d="M20.0775 14.5559C20.0775 14.5559 17.5672 15.3622 11.9727 15.3622C6.15935 15.3622 3.93621 14.5969 3.93621 14.5969L0.847261 5.64925C0.745404 5.6578 0.104056 5.08948 0 5.10255L3.6993 15.0888C3.6993 15.0888 6.15935 15.5628 11.9727 15.5628C17.5672 15.5628 20.3006 15.0888 20.3006 15.0888L23.9999 5.10255C23.896 5.08948 23.3555 5.59275 23.2534 5.5842L20.0775 14.5559Z" fill="url(#paint1_linear_4178_42800)"/>
  </g>
  <path d="M7.35324 9.31201C8.45529 9.31201 9.3486 8.41853 9.3486 7.31652C9.3486 6.48366 8.83786 5.77061 8.11304 5.47168C8.06595 5.76904 8.09748 5.90421 8.09748 5.90421C8.09748 5.90421 8.10578 5.9128 8.1193 5.92736C8.4986 6.1946 8.74729 6.63513 8.74729 7.13446C8.74729 7.94965 8.0864 8.61058 7.27113 8.61058C6.4559 8.61058 5.79497 7.94965 5.79497 7.13446C5.79497 7.03825 5.80501 6.94444 5.82268 6.85329C5.81646 6.82972 5.81318 6.81536 5.81318 6.81536C5.81318 6.81536 5.70543 6.71787 5.50383 6.56925C5.41032 6.80026 5.35767 7.05219 5.35767 7.31656C5.35771 8.41853 6.25119 9.31201 7.35324 9.31201Z" fill="url(#paint2_linear_4178_42800)"/>
  <path d="M9.31937 2.80632C8.01402 4.84811 8.07833 5.75184 8.09787 5.88581C8.27972 5.89473 8.53214 5.91145 8.74697 5.94186C8.73129 5.69333 8.78593 4.77762 9.97636 2.91568C10.7585 1.6919 11.5308 1.09835 11.9872 0.811283V0.437256C11.9872 0.437256 10.7409 0.582925 9.31937 2.80632Z" fill="url(#paint3_linear_4178_42800)"/>
  <path d="M5.81323 6.81536C5.81323 6.81536 3.44479 4.66565 0.000976562 5.10254L0.862095 5.60195C3.58838 5.74214 5.37592 7.36223 5.37592 7.36223C5.50877 7.19831 5.66465 7.02284 5.8226 6.85278C5.8165 6.82963 5.81323 6.81536 5.81323 6.81536Z" fill="#FFE800"/>
  <path d="M10.2257 1.6137C10.2144 1.62635 10.1991 1.63909 10.1887 1.6505C10.1585 1.68394 10.1263 1.71779 10.0954 1.75302C10.089 1.76011 10.0839 1.76505 10.0839 1.76505C10.0839 1.76505 10.8115 1.07981 11.1326 0.94982C11.4537 0.82004 11.2351 1.10022 10.9959 1.29153C10.7567 1.483 9.61523 3.17773 9.19158 4.1139C8.98392 4.5727 8.87281 5.02004 8.81323 5.35797C8.92945 4.86479 9.22825 4.07312 9.96814 2.91572C10.098 2.71243 10.2263 2.52838 10.3522 2.35819C10.4561 2.21384 10.5704 2.06386 10.6955 1.91445C10.8223 1.76302 10.9609 1.62834 11.0892 1.5084C11.4289 1.17353 11.8212 0.954342 11.9872 0.811286V0.437256C11.9871 0.437339 11.2291 0.525918 10.2257 1.6137Z" fill="white"/>
  <path d="M8.50604 8.41928C8.35016 8.43052 8.22806 8.36447 8.15773 8.31286C8.00513 8.42782 7.82971 8.51367 7.63886 8.56263C7.68404 8.59934 7.72823 8.64075 7.75889 8.68369C7.84967 8.81057 7.69516 9.03893 7.18492 9.1573C7.00673 9.19866 6.77845 9.18281 6.5564 9.14543C6.80044 9.25218 7.06991 9.31222 7.35345 9.31222C8.36423 9.31222 9.19746 8.55976 9.32874 7.58496C9.18581 8.14362 8.7544 8.40115 8.50604 8.41928Z" fill="white"/>
  <path d="M5.818 6.8795C5.818 6.8795 5.39456 7.34402 5.39887 7.42605C5.40335 7.50816 5.47318 7.98632 5.47318 7.98632C5.47318 7.98632 5.39456 7.80759 5.35784 7.58487C5.32145 7.36232 5.01439 7.02829 4.52078 6.75143C4.02718 6.47457 2.7583 5.94897 2.7583 5.94897C2.7583 5.94897 3.80442 6.25546 4.32367 6.54692C4.84307 6.83847 5.16661 7.18006 5.40804 7.07542C5.6493 6.97066 5.16557 6.33474 5.16557 6.33474C5.16557 6.33474 5.55857 6.55169 5.68602 6.68355C5.81331 6.81544 5.86372 6.85208 5.818 6.8795Z" fill="white"/>
  <path d="M2.10492 5.65824C1.24845 5.53066 1.02071 5.53983 0.756255 5.40303C0.492132 5.26641 0.81098 5.157 1.29388 5.148C1.77674 5.13883 2.51558 5.21795 2.51558 5.21795C2.51558 5.21795 1.36503 4.88466 0.000976562 5.10236L0.847366 5.64907C0.847366 5.64907 2.2142 5.73097 2.97056 6.02264C3.72671 6.31432 3.79463 6.30407 3.79463 6.30407C3.79463 6.30407 2.96135 5.7859 2.10492 5.65824Z" fill="white"/>
  <path d="M16.6468 9.31201C15.5449 9.31201 14.6516 8.41853 14.6516 7.31652C14.6516 6.48366 15.1622 5.77061 15.8872 5.47168C15.9343 5.76904 15.9028 5.90421 15.9028 5.90421C15.9028 5.90421 15.8945 5.9128 15.881 5.92736C15.5017 6.1946 15.253 6.63513 15.253 7.13446C15.253 7.94965 15.9137 8.61058 16.7291 8.61058C17.5442 8.61058 18.2053 7.94965 18.2053 7.13446C18.2053 7.03825 18.1952 6.94444 18.1776 6.85329C18.1838 6.82972 18.1869 6.81536 18.1869 6.81536C18.1869 6.81536 18.2949 6.71787 18.4965 6.56925C18.5898 6.80026 18.6425 7.05219 18.6425 7.31656C18.6424 8.41853 17.7491 9.31201 16.6468 9.31201Z" fill="url(#paint4_linear_4178_42800)"/>
  <path d="M14.6679 2.80632C15.9733 4.84811 15.9156 5.75184 15.896 5.88581C15.7136 5.89473 15.4648 5.91145 15.25 5.94186C15.2658 5.69333 15.1998 4.77762 14.0093 2.91568C13.2271 1.6919 12.6094 1.09835 11.9871 0.811283V0.437256C11.9871 0.437256 13.2466 0.582925 14.6679 2.80632Z" fill="url(#paint5_linear_4178_42800)"/>
  <path d="M18.1869 6.81536C18.1869 6.81536 20.5555 4.66565 23.9994 5.10254L23.1381 5.60195C20.412 5.74214 18.6244 7.36223 18.6244 7.36223C18.4916 7.19831 18.3357 7.02284 18.1777 6.85278C18.1838 6.82963 18.1869 6.81536 18.1869 6.81536Z" fill="#FFE800"/>
  <path d="M15.4945 8.41928C15.6502 8.43052 15.7724 8.36447 15.8428 8.31286C15.9954 8.42782 16.1708 8.51367 16.3615 8.56263C16.3165 8.59934 16.2721 8.64075 16.2416 8.68369C16.1509 8.81057 16.3054 9.03893 16.8156 9.1573C16.9938 9.19866 17.2219 9.18281 17.4441 9.14543C17.1999 9.25218 16.9306 9.31222 16.6469 9.31222C15.6361 9.31222 14.8031 8.55976 14.6716 7.58496C14.8146 8.14362 15.2461 8.40115 15.4945 8.41928Z" fill="white"/>
  <path d="M23.9993 5.10236C22.6352 4.88466 21.4847 5.21795 21.4847 5.21795C21.4847 5.21795 22.2234 5.13883 22.7062 5.148C23.1893 5.157 23.3988 5.26637 23.1345 5.40303C22.8703 5.53987 22.6402 5.53319 21.795 5.7218C20.811 5.94178 19.8527 6.45642 19.8527 6.45642C19.8527 6.45642 19.7307 6.51633 19.6765 6.54666C19.1573 6.83821 18.6881 7.11606 18.5878 6.99748C18.4177 6.79684 18.8348 6.33452 18.8348 6.33452C18.8348 6.33452 18.4418 6.55147 18.3143 6.68332C18.1869 6.81522 18.1367 6.85185 18.1824 6.87928C18.1824 6.87928 18.6058 7.3438 18.6015 7.42582C18.5968 7.50793 18.5272 7.9861 18.5272 7.9861C18.5272 7.9861 18.6058 7.80736 18.6424 7.58465C18.6789 7.3621 18.9858 7.02806 19.4794 6.7512C19.9384 6.49392 21.0749 6.06206 21.2348 6.00447C21.9963 5.72952 23.1528 5.64907 23.1528 5.64907L23.9993 5.10236Z" fill="white"/>
  <path d="M3.94417 14.5995L3.69946 15.0888C3.69946 15.0888 6.15951 15.5628 11.9728 15.5628C17.5674 15.5628 20.3008 15.0888 20.3008 15.0888L20.307 15.0764L20.0777 14.5559C20.0777 14.5559 17.5674 15.3622 11.9728 15.3622C6.3526 15.3622 4.0886 14.6471 3.94417 14.5995Z" fill="#D45900"/>
  <path opacity="0.48" d="M20.0776 14.5559C20.0776 14.5559 23.1938 5.88383 23.3304 5.69929C23.4671 5.51482 23.9993 5.10254 23.9993 5.10254L23.1527 5.64925L20.0776 14.5559Z" fill="#FFE800"/>
  <path opacity="0.48" d="M3.88061 14.5559C3.88061 14.5559 0.764489 5.88383 0.627822 5.69929C0.491155 5.51482 0 5.10254 0 5.10254L0.847261 5.64925L3.88061 14.5559Z" fill="#FFE800"/>
  <path d="M9.72266 8.76704L10.3803 10.2685L11.2065 9.96605V14.4631H13.3128V7.98633H11.6149L9.72266 8.76704Z" fill="url(#paint6_linear_4178_42800)"/>
  <path d="M11.5112 14.1545V9.59311L10.5488 9.92798L10.1304 8.96546L11.6787 8.2959H13.0178V14.1544L11.5112 14.1545Z" fill="url(#paint7_linear_4178_42800)"/>
  <path d="M11.5225 14.1999H11.6278V9.53711L11.5225 9.59188V14.1999Z" fill="white"/>
  <path d="M11.6785 8.30249L10.1301 8.97724L10.5486 9.94237L10.6022 9.92515L10.2874 9.19165L11.8356 8.51309H12.9442V8.30249H11.6785Z" fill="white"/>
  <path opacity="0.35" d="M10.1301 8.96849L10.5542 9.92927L11.5224 9.59274V12.3173C12.1014 12.2262 12.5754 11.9886 12.9969 11.6444V8.30225H11.6785L10.1301 8.96849Z" fill="white"/>
  <defs>
  <linearGradient id="paint0_linear_4178_42800" x1="1.47616" y1="8.00001" x2="22.2532" y2="8.00001" gradientUnits="userSpaceOnUse">
  <stop stop-color="#DC7100"/>
  <stop offset="0.1158" stop-color="#E89B00"/>
  <stop offset="0.4403" stop-color="#FFE800"/>
  <stop offset="0.5403" stop-color="#F1B800"/>
  <stop offset="1" stop-color="#D65E00"/>
  </linearGradient>
  <linearGradient id="paint1_linear_4178_42800" x1="11.9999" y1="7.15324" x2="11.9999" y2="14.5768" gradientUnits="userSpaceOnUse">
  <stop stop-color="#FFE800"/>
  <stop offset="1" stop-color="#D45900"/>
  </linearGradient>
  <linearGradient id="paint2_linear_4178_42800" x1="6.79138" y1="9.84635" x2="8.10345" y2="3.94202" gradientUnits="userSpaceOnUse">
  <stop stop-color="#D45900"/>
  <stop offset="1" stop-color="#FFE800"/>
  </linearGradient>
  <linearGradient id="paint3_linear_4178_42800" x1="8.09083" y1="3.18955" x2="11.9872" y2="3.18955" gradientUnits="userSpaceOnUse">
  <stop stop-color="#FFE800"/>
  <stop offset="1" stop-color="#D45900"/>
  </linearGradient>
  <linearGradient id="paint4_linear_4178_42800" x1="17.2088" y1="9.84634" x2="15.8967" y2="3.94205" gradientUnits="userSpaceOnUse">
  <stop stop-color="#D45900"/>
  <stop offset="1" stop-color="#FFE800"/>
  </linearGradient>
  <linearGradient id="paint5_linear_4178_42800" x1="15.9026" y1="3.18955" x2="11.987" y2="3.18955" gradientUnits="userSpaceOnUse">
  <stop stop-color="#D45900"/>
  <stop offset="1" stop-color="#F2BE00"/>
  </linearGradient>
  <linearGradient id="paint6_linear_4178_42800" x1="12.2325" y1="14.9071" x2="11.4602" y2="7.85115" gradientUnits="userSpaceOnUse">
  <stop stop-color="#CE7C1D"/>
  <stop offset="1" stop-color="#F7E436"/>
  </linearGradient>
  <linearGradient id="paint7_linear_4178_42800" x1="11.5741" y1="8.1531" x2="11.5741" y2="14.5539" gradientUnits="userSpaceOnUse">
  <stop stop-color="#F7E436"/>
  <stop offset="1" stop-color="#D58D21"/>
  </linearGradient>
  </defs>
  </svg>
