<svg width="25" height="24" viewBox="0 0 25 24" fill="none" xmlns="http://www.w3.org/2000/svg">
<path opacity="0.4" d="M18.825 7.71001L18.685 7.63001L17.295 6.83001L14.425 5.17001C13.545 4.66001 12.205 4.66001 11.325 5.17001L8.455 6.83001L7.065 7.64001L6.885 7.74001C5.095 8.94001 4.975 9.16001 4.975 11.09V15.7C4.975 17.63 5.095 17.85 6.925 19.08L11.325 21.62C11.765 21.88 12.315 22 12.875 22C13.425 22 13.985 21.88 14.425 21.62L18.865 19.05C20.655 17.85 20.775 17.63 20.775 15.7V11.09C20.775 9.16001 20.655 8.94001 18.825 7.71001Z" fill="#E6F85E"/>
<path d="M7.065 7.64L8.455 6.83L11.195 5.25L11.325 5.17C12.205 4.66 13.545 4.66 14.425 5.17L14.555 5.25L17.295 6.83L18.685 7.63V5.49C18.685 3.24 17.445 2 15.195 2H10.545C8.295 2 7.065 3.24 7.065 5.49V7.64Z" fill="#E6F85E"/>
<path d="M15.715 13.34L15.095 14.1C14.995 14.21 14.925 14.43 14.935 14.58L14.995 15.56C15.035 16.16 14.605 16.47 14.045 16.25L13.135 15.89C12.995 15.84 12.755 15.84 12.615 15.89L11.705 16.25C11.145 16.47 10.715 16.16 10.755 15.56L10.815 14.58C10.825 14.43 10.755 14.21 10.655 14.1L10.035 13.34C9.645 12.88 9.815 12.37 10.395 12.22L11.345 11.98C11.495 11.94 11.675 11.8 11.755 11.67L12.285 10.85C12.615 10.34 13.135 10.34 13.465 10.85L13.995 11.67C14.075 11.8 14.255 11.94 14.405 11.98L15.355 12.22C15.935 12.37 16.105 12.88 15.715 13.34Z" fill="#E6F85E"/>
</svg>
