<svg width="25" height="24" viewBox="0 0 25 24" fill="none" xmlns="http://www.w3.org/2000/svg">
<path opacity="0.4" d="M18.375 20.5H17.375V20.25C17.375 19.15 16.475 18.25 15.375 18.25H13.125V15.96C12.875 15.99 12.625 16 12.375 16C12.125 16 11.875 15.99 11.625 15.96V18.25H9.375C8.275 18.25 7.375 19.15 7.375 20.25V20.5H6.375C5.965 20.5 5.625 20.84 5.625 21.25C5.625 21.66 5.965 22 6.375 22H18.375C18.785 22 19.125 21.66 19.125 21.25C19.125 20.84 18.785 20.5 18.375 20.5Z" fill="#919EAB"/>
<path opacity="0.4" d="M5.895 11.64C5.235 11.39 4.655 10.98 4.195 10.52C3.265 9.49 2.655 8.26 2.655 6.82C2.655 5.38 3.785 4.25 5.225 4.25H5.785C5.525 4.78 5.375 5.37 5.375 6V9C5.375 9.94 5.555 10.83 5.895 11.64Z" fill="#E6F85E"/>
<path opacity="0.4" d="M22.095 6.82C22.095 8.26 21.485 9.49 20.555 10.52C20.095 10.98 19.515 11.39 18.855 11.64C19.195 10.83 19.375 9.94 19.375 9V6C19.375 5.37 19.225 4.78 18.965 4.25H19.525C20.965 4.25 22.095 5.38 22.095 6.82Z" fill="#E6F85E"/>
<path d="M15.375 2H9.375C7.165 2 5.375 3.79 5.375 6V9C5.375 12.87 8.505 16 12.375 16C16.245 16 19.375 12.87 19.375 9V6C19.375 3.79 17.585 2 15.375 2ZM15.215 8.45L14.595 9.21C14.495 9.32 14.425 9.54 14.435 9.69L14.495 10.67C14.535 11.27 14.105 11.58 13.545 11.36L12.635 11C12.495 10.95 12.255 10.95 12.115 11L11.205 11.36C10.645 11.58 10.215 11.27 10.255 10.67L10.315 9.69C10.325 9.54 10.255 9.32 10.155 9.21L9.535 8.45C9.145 7.99 9.315 7.48 9.895 7.33L10.845 7.09C10.995 7.05 11.175 6.91 11.255 6.78L11.785 5.96C12.115 5.45 12.635 5.45 12.965 5.96L13.495 6.78C13.575 6.91 13.755 7.05 13.905 7.09L14.855 7.33C15.435 7.48 15.605 7.99 15.215 8.45Z" fill="#E6F85E"/>
<path opacity="0.4" d="M15.215 8.45001L14.595 9.21001C14.495 9.32001 14.425 9.54001 14.435 9.69001L14.495 10.67C14.535 11.27 14.105 11.58 13.545 11.36L12.635 11C12.495 10.95 12.255 10.95 12.115 11L11.205 11.36C10.645 11.58 10.215 11.27 10.255 10.67L10.315 9.69001C10.325 9.54001 10.255 9.32001 10.155 9.21001L9.535 8.45001C9.145 7.99001 9.315 7.48001 9.895 7.33001L10.845 7.09001C10.995 7.05001 11.175 6.91001 11.255 6.78001L11.785 5.96001C12.115 5.45001 12.635 5.45001 12.965 5.96001L13.495 6.78001C13.575 6.91001 13.755 7.05001 13.905 7.09001L14.855 7.33001C15.435 7.48001 15.605 7.99001 15.215 8.45001Z" fill="#E6F85E"/>
</svg>
