<svg width="15" height="17" viewBox="0 0 15 17" fill="none" xmlns="http://www.w3.org/2000/svg">
<path d="M1.17139 8.50001C1.17139 5.82872 1.17139 4.49307 1.85757 3.66321C2.54376 2.83334 3.64816 2.83334 5.85696 2.83334H8.19974C10.4085 2.83334 11.5129 2.83334 12.1991 3.66321C12.8853 4.49307 12.8853 5.82872 12.8853 8.50001V9.91668C12.8853 12.588 12.8853 13.9236 12.1991 14.7535C11.5129 15.5833 10.4085 15.5833 8.19974 15.5833H5.85696C3.64816 15.5833 2.54376 15.5833 1.85757 14.7535C1.17139 13.9236 1.17139 12.588 1.17139 9.91668V8.50001Z" stroke="white" stroke-opacity="0.5" stroke-width="1.5"/>
<path d="M4.09985 2.83334V1.77084" stroke="white" stroke-opacity="0.5" stroke-width="1.5" stroke-linecap="round"/>
<path d="M9.95679 2.83334V1.77084" stroke="white" stroke-opacity="0.5" stroke-width="1.5" stroke-linecap="round"/>
<path d="M1.46423 6.375H12.5925" stroke="white" stroke-opacity="0.5" stroke-width="1.5" stroke-linecap="round"/>
</svg>
