<svg width="24" height="24" viewBox="0 0 24 24" fill="none" xmlns="http://www.w3.org/2000/svg">
<path d="M20.6479 2.67419L13.1526 8.24105L14.5387 4.95668L20.6479 2.67419Z" fill="#E2761B" stroke="#E2761B" stroke-linecap="round" stroke-linejoin="round"/>
<path d="M3.34467 2.67419L10.7797 8.29378L9.46143 4.95668L3.34467 2.67419ZM17.9511 15.5781L15.9548 18.6365L20.226 19.8117L21.4539 15.6459L17.9511 15.5781ZM2.55371 15.6459L3.77405 19.8117L8.04524 18.6365L6.049 15.5781L2.55371 15.6459Z" fill="#E4761B" stroke="#E4761B" stroke-linecap="round" stroke-linejoin="round"/>
<path d="M7.8041 10.4105L6.61389 12.2109L10.8549 12.3992L10.7043 7.84181L7.8041 10.4105ZM16.1883 10.4105L13.2504 7.78908L13.1525 12.3992L17.386 12.2109L16.1883 10.4105ZM8.04515 18.6365L10.5913 17.3936L8.39167 15.6761L8.04515 18.6365ZM13.4011 17.3936L15.9548 18.6365L15.6007 15.6761L13.4011 17.3936Z" fill="#E4761B" stroke="#E4761B" stroke-linecap="round" stroke-linejoin="round"/>
<path d="M15.9548 18.6365L13.4011 17.3936L13.6045 19.0584L13.5819 19.7589L15.9548 18.6365ZM8.04517 18.6365L10.418 19.7589L10.403 19.0584L10.5913 17.3936L8.04517 18.6365Z" fill="#D7C1B3" stroke="#D7C1B3" stroke-linecap="round" stroke-linejoin="round"/>
<path d="M10.4557 14.5763L8.33142 13.951L9.83048 13.2655L10.4557 14.5763ZM13.5367 14.5763L14.1619 13.2655L15.6685 13.951L13.5367 14.5763Z" fill="#233447" stroke="#233447" stroke-linecap="round" stroke-linejoin="round"/>
<path d="M8.04518 18.6365L8.40677 15.5782L6.04895 15.646L8.04518 18.6365ZM15.5932 15.5782L15.9548 18.6365L17.951 15.646L15.5932 15.5782ZM17.3861 12.2109L13.1525 12.3992L13.5442 14.5763L14.1695 13.2655L15.6761 13.951L17.3861 12.2109ZM8.33144 13.951L9.83803 13.2655L10.4557 14.5763L10.855 12.3992L6.61392 12.2109L8.33144 13.951Z" fill="#CD6116" stroke="#CD6116" stroke-linecap="round" stroke-linejoin="round"/>
<path d="M6.61389 12.2109L8.39167 15.6761L8.33141 13.951L6.61389 12.2109ZM15.676 13.951L15.6007 15.6761L17.386 12.2109L15.676 13.951ZM10.8549 12.3992L10.4557 14.5763L10.9529 17.145L11.0659 13.7627L10.8549 12.3992ZM13.1525 12.3992L12.9491 13.7552L13.0395 17.145L13.5442 14.5763L13.1525 12.3992Z" fill="#E4751F" stroke="#E4751F" stroke-linecap="round" stroke-linejoin="round"/>
<path d="M13.5442 14.5763L13.0395 17.145L13.4011 17.3936L15.6007 15.6761L15.6761 13.951L13.5442 14.5763ZM8.33142 13.951L8.39168 15.6761L10.5913 17.3936L10.9529 17.145L10.4557 14.5763L8.33142 13.951Z" fill="#F6851B" stroke="#F6851B" stroke-linecap="round" stroke-linejoin="round"/>
<path d="M13.5819 19.7589L13.6045 19.0584L13.4162 18.8927H10.5762L10.403 19.0584L10.418 19.7589L8.04517 18.6365L8.87379 19.3145L10.5536 20.4821H13.4388L15.1261 19.3145L15.9548 18.6365L13.5819 19.7589Z" fill="#C0AD9E" stroke="#C0AD9E" stroke-linecap="round" stroke-linejoin="round"/>
<path d="M13.4011 17.3936L13.0395 17.145H10.9529L10.5913 17.3936L10.403 19.0584L10.5762 18.8926H13.4161L13.6045 19.0584L13.4011 17.3936Z" fill="#161616" stroke="#161616" stroke-linecap="round" stroke-linejoin="round"/>
<path d="M20.9642 8.60263L21.6045 5.52919L20.6479 2.67419L13.4012 8.05273L16.1884 10.4105L20.1281 11.5631L21.0019 10.5461L20.6253 10.2749L21.2279 9.72504L20.7609 9.36346L21.3635 8.90395L20.9642 8.60263ZM2.39551 5.52919L3.03581 8.60263L2.62903 8.90395L3.23167 9.36346L2.77216 9.72504L3.37479 10.2749L2.99814 10.5461L3.86443 11.5631L7.80417 10.4105L10.5914 8.05273L3.34466 2.67419L2.39551 5.52919Z" fill="#763D16" stroke="#763D16" stroke-linecap="round" stroke-linejoin="round"/>
<path d="M20.1281 11.5631L16.1884 10.4105L17.3861 12.2109L15.6008 15.6761L17.9511 15.6459H21.4539L20.1281 11.5631ZM7.80418 10.4105L3.86445 11.5631L2.55371 15.6459H6.049L8.39175 15.6761L6.61398 12.2109L7.80418 10.4105ZM13.1526 12.3992L13.4012 8.05273L14.5462 4.95668H9.46143L10.5914 8.05273L10.855 12.3992L10.9454 13.7702L10.953 17.145H13.0396L13.0547 13.7702L13.1526 12.3992Z" fill="#F6851B" stroke="#F6851B" stroke-linecap="round" stroke-linejoin="round"/>
</svg>
