<svg width="25" height="25" viewBox="0 0 25 25" fill="none" xmlns="http://www.w3.org/2000/svg">
<path d="M13.054 17.1356C12.9837 17.2125 12.8982 17.2739 12.8029 17.3159C12.7076 17.3579 12.6046 17.3795 12.5005 17.3795C12.3964 17.3795 12.2934 17.3579 12.1981 17.3159C12.1028 17.2739 12.0173 17.2125 11.947 17.1356L7.947 12.7606C7.81594 12.6133 7.74815 12.4204 7.7583 12.2235C7.76846 12.0266 7.85574 11.8416 8.00126 11.7085C8.14678 11.5755 8.33883 11.5051 8.53586 11.5126C8.73288 11.5201 8.91902 11.6049 9.054 11.7486L11.75 14.6986V3.62964C11.75 3.43073 11.829 3.23996 11.9697 3.09931C12.1103 2.95866 12.3011 2.87964 12.5 2.87964C12.6989 2.87964 12.8897 2.95866 13.0303 3.09931C13.171 3.23996 13.25 3.43073 13.25 3.62964V14.6976L15.947 11.7476C16.0813 11.6008 16.2685 11.5134 16.4673 11.5046C16.6661 11.4958 16.8602 11.5663 17.007 11.7006C17.1538 11.835 17.2412 12.0221 17.25 12.2209C17.2588 12.4197 17.1883 12.6138 17.054 12.7606L13.054 17.1356Z" fill="#E6F85E"/>
<path d="M4.25 15.6296C4.25 15.4307 4.17098 15.24 4.03033 15.0993C3.88968 14.9587 3.69891 14.8796 3.5 14.8796C3.30109 14.8796 3.11032 14.9587 2.96967 15.0993C2.82902 15.24 2.75 15.4307 2.75 15.6296V15.6846C2.75 17.0516 2.75 18.1546 2.867 19.0216C2.987 19.9216 3.247 20.6796 3.848 21.2816C4.45 21.8836 5.208 22.1416 6.108 22.2636C6.975 22.3796 8.078 22.3796 9.445 22.3796H15.555C16.922 22.3796 18.025 22.3796 18.892 22.2636C19.792 22.1416 20.55 21.8836 21.152 21.2816C21.754 20.6796 22.012 19.9216 22.134 19.0216C22.25 18.1546 22.25 17.0516 22.25 15.6846V15.6296C22.25 15.4307 22.171 15.24 22.0303 15.0993C21.8897 14.9587 21.6989 14.8796 21.5 14.8796C21.3011 14.8796 21.1103 14.9587 20.9697 15.0993C20.829 15.24 20.75 15.4307 20.75 15.6296C20.75 17.0646 20.748 18.0656 20.647 18.8216C20.548 19.5556 20.367 19.9436 20.091 20.2206C19.814 20.4976 19.426 20.6776 18.691 20.7766C17.936 20.8776 16.935 20.8796 15.5 20.8796H9.5C8.065 20.8796 7.063 20.8776 6.308 20.7766C5.574 20.6776 5.186 20.4966 4.909 20.2206C4.632 19.9436 4.452 19.5556 4.353 18.8206C4.252 18.0656 4.25 17.0646 4.25 15.6296Z" fill="#E6F85E"/>
</svg>
