<svg width="25" height="24" viewBox="0 0 25 24" fill="none" xmlns="http://www.w3.org/2000/svg">
<path opacity="0.4" d="M17.625 22H7.625C5.425 22 3.625 20.2 3.625 18V6C3.625 3.8 5.425 2 7.625 2H17.625C19.825 2 21.625 3.8 21.625 6V18C21.625 20.2 19.825 22 17.625 22Z" fill="#E6F85E"/>
<path d="M16.875 11H8.375C7.415 11 6.625 10.21 6.625 9.25V6.75C6.625 5.79 7.415 5 8.375 5H16.875C17.835 5 18.625 5.79 18.625 6.75V9.25C18.625 10.21 17.835 11 16.875 11Z" fill="#E6F85E"/>
<path d="M11.485 17.08L10.835 16.43L11.455 15.81C11.745 15.52 11.745 15.04 11.455 14.75C11.165 14.46 10.685 14.46 10.395 14.75L9.775 15.37L9.185 14.78C8.895 14.49 8.415 14.49 8.125 14.78C7.835 15.07 7.835 15.55 8.125 15.84L8.715 16.43L8.095 17.05C7.805 17.34 7.805 17.82 8.095 18.11C8.245 18.26 8.435 18.33 8.625 18.33C8.815 18.33 9.005 18.26 9.155 18.11L9.775 17.49L10.425 18.14C10.575 18.29 10.765 18.36 10.955 18.36C11.145 18.36 11.335 18.29 11.485 18.14C11.775 17.85 11.775 17.37 11.485 17.08Z" fill="#E6F85E"/>
<path d="M17.135 16.33C16.585 16.33 16.125 15.88 16.125 15.33C16.125 14.78 16.565 14.33 17.115 14.33H17.135C17.685 14.33 18.135 14.78 18.135 15.33C18.135 15.88 17.685 16.33 17.135 16.33Z" fill="#E6F85E"/>
<path d="M15.115 18.49C14.565 18.49 14.115 18.05 14.115 17.5V17.48C14.115 16.93 14.565 16.48 15.115 16.48C15.665 16.48 16.115 16.93 16.115 17.48C16.115 18.03 15.665 18.49 15.115 18.49Z" fill="#E6F85E"/>
</svg>
