<svg width="25" height="24" viewBox="0 0 25 24" fill="none" xmlns="http://www.w3.org/2000/svg">
<path d="M11.005 15.01L9.975 13.98L10.965 12.99C11.255 12.7 11.255 12.22 10.965 11.93C10.675 11.64 10.195 11.64 9.905 11.93L8.915 12.92L7.955 11.96C7.665 11.67 7.185 11.67 6.895 11.96C6.605 12.25 6.605 12.73 6.895 13.02L7.855 13.98L6.865 14.97C6.575 15.26 6.575 15.74 6.865 16.03C7.015 16.18 7.205 16.25 7.395 16.25C7.585 16.25 7.775 16.18 7.925 16.03L8.915 15.04L9.945 16.07C10.095 16.22 10.285 16.29 10.475 16.29C10.665 16.29 10.855 16.22 11.005 16.07C11.295 15.78 11.295 15.3 11.005 15.01Z" fill="#E6F85E"/>
<path d="M14.415 15C13.865 15 13.405 14.55 13.405 14C13.405 13.45 13.845 13 14.395 13H14.415C14.965 13 15.415 13.45 15.415 14C15.415 14.55 14.975 15 14.415 15Z" fill="#E6F85E"/>
<path d="M18.355 15C17.805 15 17.345 14.55 17.345 14C17.345 13.45 17.785 13 18.335 13H18.355C18.905 13 19.355 13.45 19.355 14C19.355 14.55 18.915 15 18.355 15Z" fill="#E6F85E"/>
<path d="M16.375 16.97C15.825 16.97 15.375 16.53 15.375 15.98V15.96C15.375 15.41 15.825 14.96 16.375 14.96C16.925 14.96 17.375 15.41 17.375 15.96C17.375 16.51 16.935 16.97 16.375 16.97Z" fill="#E6F85E"/>
<path d="M16.375 13.03C15.825 13.03 15.375 12.59 15.375 12.04V12.02C15.375 11.47 15.825 11.02 16.375 11.02C16.925 11.02 17.375 11.47 17.375 12.02C17.375 12.57 16.935 13.03 16.375 13.03Z" fill="#E6F85E"/>
<path opacity="0.4" d="M22.875 11.07V16.65C22.875 19.6 20.475 22 17.525 22H8.225C5.275 22 2.875 19.6 2.875 16.65V11.07C2.875 8.12 5.275 5.72 8.225 5.72H17.525C20.475 5.72 22.875 8.12 22.875 11.07Z" fill="#E6F85E"/>
<path d="M14.515 2.71L14.505 3.65C14.495 4.53 13.765 5.26 12.875 5.26C12.725 5.26 12.635 5.36 12.635 5.49C12.635 5.62 12.735 5.72 12.865 5.72H11.255C11.245 5.65 11.235 5.57 11.235 5.49C11.235 4.59 11.965 3.86 12.855 3.86C13.005 3.86 13.105 3.76 13.105 3.63L13.115 2.69C13.125 2.31 13.435 2 13.815 2H13.825C14.215 2 14.515 2.32 14.515 2.71Z" fill="#E6F85E"/>
</svg>
