<svg width="25" height="24" viewBox="0 0 25 24" fill="none" xmlns="http://www.w3.org/2000/svg">
<path opacity="0.4" d="M16.315 2H7.94501C4.30501 2 2.13499 4.17 2.13499 7.81V16.18C2.13499 19.82 4.30501 21.99 7.94501 21.99H16.315C19.955 21.99 22.125 19.82 22.125 16.18V7.81C22.125 4.17 19.955 2 16.315 2Z" fill="#E6F85E"/>
<path d="M8.305 16.77C8.285 16.77 8.255 16.77 8.235 16.77C7.265 16.68 6.35501 16.23 5.67501 15.51C4.07501 13.83 4.07501 11.1 5.67501 9.42001L7.86501 7.12C8.64501 6.3 9.69501 5.84 10.815 5.84C11.935 5.84 12.985 6.29 13.765 7.12C15.365 8.79999 15.365 11.53 13.765 13.21L12.675 14.36C12.385 14.66 11.915 14.67 11.615 14.39C11.315 14.1 11.305 13.63 11.585 13.33L12.675 12.18C13.735 11.07 13.735 9.26 12.675 8.16C11.685 7.12 9.94501 7.12 8.94501 8.16L6.75501 10.46C5.69501 11.57 5.69501 13.38 6.75501 14.48C7.18501 14.94 7.765 15.22 8.375 15.28C8.785 15.32 9.085 15.69 9.045 16.1C9.015 16.48 8.685 16.77 8.305 16.77Z" fill="#E6F85E"/>
<path d="M13.435 18.16C12.315 18.16 11.265 17.71 10.485 16.88C8.885 15.2 8.885 12.47 10.485 10.79L11.575 9.64C11.865 9.34 12.335 9.32997 12.635 9.60997C12.935 9.89997 12.945 10.37 12.665 10.67L11.575 11.82C10.515 12.93 10.515 14.74 11.575 15.84C12.565 16.88 14.305 16.89 15.305 15.84L17.495 13.54C18.555 12.43 18.555 10.62 17.495 9.51998C17.065 9.05998 16.485 8.77999 15.875 8.71999C15.465 8.67999 15.165 8.30998 15.205 7.89998C15.245 7.48998 15.605 7.18 16.025 7.23C16.995 7.33 17.905 7.76998 18.585 8.48998C20.185 10.17 20.185 12.9 18.585 14.58L16.395 16.88C15.605 17.71 14.555 18.16 13.435 18.16Z" fill="#E6F85E"/>
</svg>
