<svg width="25" height="24" viewBox="0 0 25 24" fill="none" xmlns="http://www.w3.org/2000/svg">
<path opacity="0.4" d="M16.315 2H7.94501C4.30501 2 2.13501 4.17 2.13501 7.81V16.18C2.13501 19.82 4.30501 21.99 7.94501 21.99H16.315C19.955 21.99 22.125 19.82 22.125 16.18V7.81C22.125 4.17 19.955 2 16.315 2Z" fill="#E6F85E"/>
<path d="M17.125 17.5H14.025C13.725 17.5 13.455 17.33 13.335 17.05C13.215 16.77 13.265 16.46 13.465 16.24L15.085 14.45C15.755 13.7 16.135 12.75 16.135 11.77C16.135 10.77 15.725 9.83 14.975 9.12C14.225 8.41 13.185 8 12.125 8C11.065 8 10.025 8.41 9.27502 9.12C8.52502 9.83 8.11499 10.77 8.11499 11.77C8.11499 12.75 8.48498 13.7 9.16498 14.45L10.785 16.24C10.985 16.46 11.035 16.78 10.915 17.05C10.795 17.32 10.525 17.5 10.225 17.5H7.125C6.715 17.5 6.375 17.16 6.375 16.75C6.375 16.34 6.715 16 7.125 16H8.53497L8.04498 15.46C7.12498 14.44 6.61499 13.13 6.61499 11.77C6.61499 10.38 7.205 9.01003 8.245 8.03003C9.285 7.04003 10.665 6.5 12.125 6.5C13.585 6.5 14.965 7.04003 16.005 8.03003C17.035 9.01003 17.635 10.38 17.635 11.77C17.635 13.12 17.125 14.43 16.205 15.46L15.715 16H17.125C17.535 16 17.875 16.34 17.875 16.75C17.875 17.16 17.535 17.5 17.125 17.5Z" fill="#E6F85E"/>
</svg>
