<svg width="15" height="15" viewBox="0 0 15 15" fill="none" xmlns="http://www.w3.org/2000/svg">
<path d="M9.83341 8.15472V10.6047C9.83341 12.6464 9.01675 13.4631 6.97508 13.4631H4.52508C2.48341 13.4631 1.66675 12.6464 1.66675 10.6047V8.15472C1.66675 6.11305 2.48341 5.29639 4.52508 5.29639H6.97508C9.01675 5.29639 9.83341 6.11305 9.83341 8.15472Z" stroke="#E6F85E" stroke-width="1.5" stroke-linecap="round" stroke-linejoin="round"/>
<path d="M13.3334 4.65472V7.10472C13.3334 9.14639 12.5167 9.96305 10.4751 9.96305H9.83341V8.15472C9.83341 6.11305 9.01675 5.29639 6.97508 5.29639H5.16675V4.65472C5.16675 2.61305 5.98341 1.79639 8.02508 1.79639H10.4751C12.5167 1.79639 13.3334 2.61305 13.3334 4.65472Z" stroke="#E6F85E" stroke-width="1.5" stroke-linecap="round" stroke-linejoin="round"/>
</svg>
