<svg width="25" height="24" viewBox="0 0 25 24" fill="none" xmlns="http://www.w3.org/2000/svg">
<path opacity="0.4" d="M2.375 12.88V11.12C2.375 10.08 3.225 9.22 4.275 9.22C6.085 9.22 6.825 7.94 5.915 6.37C5.395 5.47 5.705 4.3 6.615 3.78L8.345 2.79C9.135 2.32 10.155 2.6 10.625 3.39L10.735 3.58C11.635 5.15 13.115 5.15 14.025 3.58L14.135 3.39C14.605 2.6 15.625 2.32 16.415 2.79L18.145 3.78C19.055 4.3 19.365 5.47 18.845 6.37C17.935 7.94 18.675 9.22 20.485 9.22C21.525 9.22 22.385 10.07 22.385 11.12V12.88C22.385 13.92 21.535 14.78 20.485 14.78C18.675 14.78 17.935 16.06 18.845 17.63C19.365 18.54 19.055 19.7 18.145 20.22L16.415 21.21C15.625 21.68 14.605 21.4 14.135 20.61L14.025 20.42C13.125 18.85 11.645 18.85 10.735 20.42L10.625 20.61C10.155 21.4 9.135 21.68 8.345 21.21L6.615 20.22C5.705 19.7 5.395 18.53 5.915 17.63C6.825 16.06 6.085 14.78 4.275 14.78C3.225 14.78 2.375 13.92 2.375 12.88Z" fill="#919EAB"/>
<path d="M12.375 15.25C14.1699 15.25 15.625 13.7949 15.625 12C15.625 10.2051 14.1699 8.75 12.375 8.75C10.5801 8.75 9.125 10.2051 9.125 12C9.125 13.7949 10.5801 15.25 12.375 15.25Z" fill="#E6F85E"/>
</svg>
