<svg width="18" height="16" viewBox="0 0 18 16" fill="none" xmlns="http://www.w3.org/2000/svg">
<path fill-rule="evenodd" clip-rule="evenodd" d="M11.8932 0.930475C11.9051 0.941022 11.917 0.951597 11.9289 0.962195L15.634 4.25559C16.3253 4.87007 16.8984 5.37946 17.2919 5.84188C17.7055 6.32789 17.9999 6.85113 17.9999 7.49862C17.9999 8.1461 17.7055 8.66934 17.2919 9.15535C16.8984 9.61777 16.3253 10.1272 15.634 10.7416L11.9289 14.035C11.917 14.0456 11.9051 14.0562 11.8932 14.0668C11.5937 14.333 11.3143 14.5816 11.0728 14.741C10.8357 14.8975 10.4045 15.125 9.92147 14.908C9.43846 14.6911 9.32197 14.2178 9.28144 13.9366C9.24018 13.6502 9.24024 13.2762 9.2403 12.8754C9.24031 12.8595 9.24031 12.8436 9.24031 12.8277V11.3798C7.90047 11.4721 6.54273 11.828 5.3551 12.4067C3.95853 13.0872 2.8432 14.0521 2.23789 15.205C2.08983 15.4871 1.76846 15.6317 1.4592 15.5554C1.14995 15.4792 0.932617 15.2017 0.932617 14.8832C0.932617 10.5254 2.20773 7.6879 4.03093 5.94345C5.62009 4.42292 7.55695 3.79898 9.24031 3.66841V2.16955C9.24031 2.1536 9.24031 2.13768 9.2403 2.12181C9.24024 1.72107 9.24018 1.34707 9.28144 1.06068C9.32197 0.779444 9.43846 0.306097 9.92148 0.0891894C10.4045 -0.127719 10.8357 0.0996913 11.0728 0.256247C11.3143 0.41567 11.5937 0.664192 11.8932 0.930475ZM10.6278 1.66196C10.7321 1.7514 10.8567 1.86172 11.009 1.99707L14.6757 5.25639C15.4152 5.91369 15.9142 6.35935 16.2374 6.73921C16.5478 7.104 16.6153 7.31706 16.6153 7.49862C16.6153 7.68018 16.5478 7.89323 16.2374 8.25803C15.9142 8.63788 15.4152 9.08353 14.6757 9.74084L11.009 13.0002C10.8567 13.1355 10.7321 13.2458 10.6278 13.3353C10.6253 13.1978 10.6249 13.0314 10.6249 12.8277V10.6635C10.6249 10.2811 10.315 9.97114 9.93262 9.97114C8.16717 9.97114 6.33257 10.3902 4.7486 11.162C3.90045 11.5752 3.11089 12.0965 2.44086 12.7203C2.78126 9.90768 3.78716 8.09302 4.98815 6.94389C6.48358 5.51305 8.37301 5.02609 9.93262 5.02609C10.315 5.02609 10.6249 4.71613 10.6249 4.33378V2.16955C10.6249 1.96582 10.6253 1.79939 10.6278 1.66196Z" fill="white"/>
</svg>
