<svg width="25" height="24" viewBox="0 0 25 24" fill="none" xmlns="http://www.w3.org/2000/svg">
<path opacity="0.4" d="M6.365 16C6.475 15.51 6.275 14.81 5.925 14.46L3.495 12.03C2.735 11.27 2.435 10.46 2.655 9.76C2.885 9.06 3.595 8.58 4.655 8.4L7.775 7.88C8.225 7.8 8.775 7.4 8.985 6.99L10.705 3.54C11.205 2.55 11.885 2 12.625 2C13.365 2 14.045 2.55 14.545 3.54L16.265 6.99C16.395 7.25 16.665 7.5 16.955 7.67L6.185 18.44C6.045 18.58 5.805 18.45 5.845 18.25L6.365 16Z" fill="#919EAB"/>
<path d="M19.325 14.46C18.965 14.82 18.765 15.51 18.885 16L19.575 19.01C19.865 20.26 19.685 21.2 19.065 21.65C18.815 21.83 18.515 21.92 18.165 21.92C17.655 21.92 17.055 21.73 16.395 21.34L13.465 19.6C13.005 19.33 12.245 19.33 11.785 19.6L8.855 21.34C7.745 21.99 6.795 22.1 6.185 21.65C5.955 21.48 5.785 21.25 5.675 20.95L17.835 8.79C18.295 8.33 18.945 8.12 19.575 8.23L20.585 8.4C21.645 8.58 22.355 9.06 22.585 9.76C22.805 10.46 22.505 11.27 21.745 12.03L19.325 14.46Z" fill="#E6F85E"/>
</svg>
