<svg width="24" height="16" viewBox="0 0 24 16" fill="none" xmlns="http://www.w3.org/2000/svg">
  <path d="M18.1869 6.8155C18.1869 6.8155 18.1834 6.82986 18.1772 6.85342C18.1949 6.94457 18.2044 7.03838 18.2044 7.13459C18.2044 7.94978 17.5426 8.6107 16.7276 8.6107C15.9123 8.6107 15.2497 7.94978 15.2497 7.13459C15.2497 6.63527 15.4948 6.19478 15.8744 5.9275C15.8877 5.91294 15.8893 5.90435 15.8893 5.90435C15.8893 5.90435 16.0824 5.02971 14.6609 2.80655C13.2396 0.583171 11.973 0.4375 11.973 0.4375C11.973 0.4375 10.7338 0.583171 9.31225 2.80655C7.89095 5.02976 8.09765 5.90435 8.09765 5.90435C8.09765 5.90435 8.10599 5.91294 8.11947 5.9275C8.49877 6.19474 8.74745 6.63527 8.74745 7.13459C8.74745 7.94978 8.08653 8.6107 7.2713 8.6107C6.45616 8.6107 5.79523 7.94978 5.79523 7.13459C5.79523 7.03838 5.80519 6.94457 5.82287 6.85342C5.81664 6.82986 5.81336 6.8155 5.81336 6.8155C5.81336 6.8155 3.4444 4.66556 0.000244141 5.10269L3.69952 15.0889C3.69952 15.0889 6.15968 15.5628 11.973 15.5628C17.5674 15.5628 20.3009 15.0889 20.3009 15.0889L24.0002 5.10269C20.5559 4.66556 18.1869 6.8155 18.1869 6.8155Z" fill="url(#paint0_linear_4178_42899)"/>
  <path opacity="0.25" d="M20.5433 5.48941C19.0712 6.01438 18.1866 6.8155 18.1866 6.8155C18.1866 6.8155 18.1832 6.82985 18.177 6.85342C18.1946 6.94457 18.2041 7.03838 18.2041 7.13459C18.2041 7.94978 17.5424 8.6107 16.7273 8.6107C15.9121 8.6107 15.2494 7.94978 15.2494 7.13459C15.2494 6.63527 15.4945 6.19478 15.8742 5.9275C15.8875 5.91294 15.889 5.90435 15.889 5.90435C15.889 5.90435 16.0822 5.02971 14.6606 2.80654C13.2394 0.583168 11.9727 0.4375 11.9727 0.4375C11.9727 0.4375 10.7335 0.583168 9.31201 2.80654C7.8907 5.02975 8.0974 5.90435 8.0974 5.90435C8.0974 5.90435 8.10574 5.91294 8.11923 5.9275C8.49852 6.19474 8.74721 6.63527 8.74721 7.13459C8.74721 7.94978 8.08628 8.6107 7.27106 8.6107C6.45592 8.6107 5.79499 7.94978 5.79499 7.13459C5.79499 7.03838 5.80495 6.94457 5.82262 6.85342C5.8164 6.82985 5.81312 6.8155 5.81312 6.8155C5.81312 6.8155 3.44416 4.66556 0 5.10269L3.69928 15.0889C3.69928 15.0889 6.15943 15.5628 11.9727 15.5628C12.49 15.5628 12.9822 15.5587 13.4507 15.5514C17.6369 13.9161 20.5558 10.2368 20.5558 5.95924C20.5558 5.80183 20.5511 5.64537 20.5433 5.48941Z" fill="#FFFFD9"/>
  <path opacity="0.25" d="M17.4734 8.40654C17.2542 8.53532 16.9997 8.61046 16.7275 8.61046C15.9122 8.61046 15.2496 7.94953 15.2496 7.13435C15.2496 6.63503 15.4947 6.19453 15.8743 5.92726C15.8876 5.9127 15.8892 5.90411 15.8892 5.90411C15.8892 5.90411 16.0823 5.02947 14.6608 2.8063C13.2395 0.582924 11.9729 0.437256 11.9729 0.437256C11.9729 0.437256 10.7337 0.582924 9.31215 2.8063C7.89085 5.02951 8.09755 5.90411 8.09755 5.90411C8.09755 5.90411 8.10589 5.9127 8.11937 5.92726C8.49867 6.19449 8.74735 6.63503 8.74735 7.13435C8.74735 7.94953 8.08643 8.61046 7.2712 8.61046C6.45606 8.61046 5.79513 7.94953 5.79513 7.13435C5.79513 7.03814 5.80509 6.94433 5.82277 6.85318C5.81654 6.82961 5.81326 6.81525 5.81326 6.81525C5.81326 6.81525 4.48453 5.60957 2.37085 5.18767C2.64692 9.46531 6.1168 12.8478 10.3593 12.8478C13.4565 12.8478 16.1412 11.0441 17.4734 8.40654Z" fill="#FFFFD9"/>
  <path opacity="0.25" d="M15.5323 4.40825C15.3475 3.97941 15.0721 3.44968 14.6606 2.8063C13.2394 0.582924 11.9727 0.437256 11.9727 0.437256C11.9727 0.437256 10.7335 0.582924 9.31201 2.8063C7.89071 5.02951 8.09741 5.90411 8.09741 5.90411C8.09741 5.90411 8.10575 5.9127 8.11923 5.92726C8.49853 6.19449 8.74721 6.63503 8.74721 7.13435C8.74721 7.44859 8.64822 7.73939 8.48077 7.97883C9.22708 9.09107 10.2804 9.78569 11.4488 9.78569C13.6094 9.78569 15.378 7.4144 15.5323 4.40825Z" fill="#FFFFD9"/>
  <path opacity="0.25" d="M8.73112 8.31987C10.3727 8.05878 11.9266 5.46391 12 4.02717C12.0821 2.42356 11.9727 0.811283 11.9727 0.811283C11.9353 0.685861 11.9487 0.56023 11.9727 0.437256C11.634 0.532101 10.4768 0.984378 9.31201 2.8063C7.89071 5.02951 8.09741 5.90411 8.09741 5.90411C8.09741 5.90411 8.10575 5.9127 8.11923 5.92726C8.49853 6.19449 8.74721 6.63503 8.74721 7.13435C8.74721 7.44859 8.64822 7.73939 8.48077 7.97883C8.56051 8.09778 8.64449 8.21088 8.73112 8.31987Z" fill="#FFFFD9"/>
  <path d="M20.0774 14.5558C20.0774 14.5558 17.5672 15.3621 11.9727 15.3621C6.15943 15.3621 3.93622 14.5968 3.93622 14.5968L0.847378 5.64925C0.745438 5.6578 0.104138 5.08948 0 5.10255L3.69928 15.0888C3.69928 15.0888 6.15943 15.5627 11.9727 15.5627C17.5672 15.5627 20.3007 15.0888 20.3007 15.0888L24 5.10255C23.896 5.08948 23.3555 5.59274 23.2535 5.5842L20.0774 14.5558Z" fill="url(#paint1_linear_4178_42899)"/>
  <path d="M7.35338 9.31198C8.45551 9.31198 9.34877 8.41851 9.34877 7.31651C9.34877 6.48365 8.83808 5.77061 8.11322 5.47168C8.06621 5.76903 8.09762 5.90421 8.09762 5.90421C8.09762 5.90421 8.10596 5.9128 8.11944 5.92736C8.49874 6.19459 8.74743 6.63513 8.74743 7.13445C8.74743 7.94964 8.0865 8.61056 7.27127 8.61056C6.45613 8.61056 5.79521 7.94964 5.79521 7.13445C5.79521 7.03824 5.80516 6.94443 5.82284 6.85328C5.81661 6.82971 5.81334 6.81536 5.81334 6.81536C5.81334 6.81536 5.70559 6.71786 5.50399 6.56924C5.41048 6.80026 5.35791 7.05218 5.35791 7.31655C5.35791 8.41851 6.25134 9.31198 7.35338 9.31198Z" fill="url(#paint2_linear_4178_42899)"/>
  <path d="M9.28546 2.8063C7.98008 4.84808 8.0614 5.7518 8.08098 5.88577C8.26283 5.89469 8.52363 5.91141 8.73838 5.94182C8.72282 5.6933 8.7478 4.77759 9.93826 2.91567C10.7204 1.69189 11.4632 1.09835 11.9196 0.811281V0.437256C11.9196 0.437256 10.7068 0.582924 9.28546 2.8063Z" fill="url(#paint3_linear_4178_42899)"/>
  <path d="M5.81323 6.8151C5.81323 6.8151 3.4448 4.66541 0.000976562 5.10229L0.862089 5.6017C3.58832 5.74189 5.37589 7.36197 5.37589 7.36197C5.50882 7.19805 5.6647 7.02259 5.82257 6.85252C5.81651 6.82937 5.81323 6.8151 5.81323 6.8151Z" fill="#E5E5E3"/>
  <path d="M10.1918 1.61369C10.1804 1.62634 10.1823 1.63908 10.1718 1.65049C10.1416 1.68393 10.1178 1.71779 10.087 1.75301C10.0805 1.7601 10.0796 1.76504 10.0796 1.76504C10.0796 1.76504 10.8092 1.0798 11.1305 0.949816C11.4516 0.820037 11.2339 1.10021 10.9947 1.29152C10.7556 1.48299 9.6146 3.17771 9.19096 4.11388C8.9833 4.57267 8.87257 5.02001 8.81299 5.35794C8.9292 4.86476 9.22809 4.0731 9.96797 2.91571C10.0978 2.71241 10.2261 2.52836 10.3521 2.35817C10.4559 2.21383 10.5704 2.06385 10.6955 1.91444C10.8222 1.76301 10.927 1.62833 11.0553 1.50839C11.395 1.17353 11.7535 0.954339 11.9195 0.811283V0.437256C11.9194 0.437339 11.1951 0.525918 10.1918 1.61369Z" fill="white"/>
  <path d="M8.50578 8.41927C8.3499 8.43052 8.2278 8.36446 8.15756 8.31285C8.00488 8.42782 7.82946 8.51366 7.63869 8.56262C7.68379 8.59934 7.72798 8.64074 7.75864 8.68368C7.84946 8.81056 7.69491 9.03892 7.18467 9.15729C7.00656 9.19865 6.7782 9.1828 6.55615 9.14542C6.80028 9.25217 7.06967 9.31221 7.35316 9.31221C8.36401 9.31221 9.19716 8.55975 9.32851 7.58496C9.18558 8.14362 8.75418 8.40114 8.50578 8.41927Z" fill="white"/>
  <path d="M5.81786 6.8793C5.81786 6.8793 5.39442 7.34381 5.39881 7.42584C5.40321 7.50794 5.47304 7.98611 5.47304 7.98611C5.47304 7.98611 5.39441 7.80737 5.35778 7.58466C5.32135 7.36211 5.01425 7.02808 4.52065 6.75122C4.02713 6.47436 2.7583 5.94873 2.7583 5.94873C2.7583 5.94873 3.80429 6.25521 4.32357 6.54668C4.84298 6.83822 5.16651 7.17981 5.40794 7.07517C5.64928 6.97041 5.16548 6.3345 5.16548 6.3345C5.16548 6.3345 5.55846 6.55145 5.68592 6.6833C5.81321 6.81524 5.86358 6.85187 5.81786 6.8793Z" fill="white"/>
  <path d="M2.10495 5.65823C1.24848 5.53065 1.02075 5.53982 0.756375 5.40303C0.492171 5.26641 0.811015 5.157 1.29387 5.148C1.77685 5.13883 2.51557 5.21795 2.51557 5.21795C2.51557 5.21795 1.36511 4.88466 0.000976562 5.10236L0.847486 5.64906C0.847486 5.64906 2.21423 5.73097 2.97058 6.02264C3.72676 6.31431 3.79464 6.30406 3.79464 6.30406C3.79464 6.30406 2.96141 5.7859 2.10495 5.65823Z" fill="white"/>
  <path d="M16.647 9.31198C15.5449 9.31198 14.6516 8.41851 14.6516 7.31651C14.6516 6.48365 15.1624 5.77061 15.8873 5.47168C15.9343 5.76903 15.9029 5.90421 15.9029 5.90421C15.9029 5.90421 15.8946 5.9128 15.8811 5.92736C15.5016 6.19459 15.2531 6.63513 15.2531 7.13445C15.2531 7.94964 15.9138 8.61056 16.7292 8.61056C17.5443 8.61056 18.2052 7.94964 18.2052 7.13445C18.2052 7.03824 18.1953 6.94443 18.1777 6.85328C18.1839 6.82971 18.187 6.81536 18.187 6.81536C18.187 6.81536 18.295 6.71786 18.4964 6.56924C18.5899 6.80026 18.6424 7.05218 18.6424 7.31655C18.6424 8.41851 17.749 9.31198 16.647 9.31198Z" fill="url(#paint4_linear_4178_42899)"/>
  <path d="M14.6341 2.8063C15.9397 4.84808 15.8988 5.7518 15.8792 5.88577C15.6969 5.89469 15.4565 5.91141 15.2417 5.94182C15.2575 5.6933 15.162 4.77759 13.9715 2.91567C13.1893 1.69189 12.542 1.09835 11.9197 0.811281V0.437256C11.9197 0.437256 13.2129 0.582924 14.6341 2.8063Z" fill="url(#paint5_linear_4178_42899)"/>
  <path d="M18.1869 6.8151C18.1869 6.8151 20.5555 4.66541 23.9992 5.10229L23.1379 5.6017C20.412 5.74189 18.6244 7.36197 18.6244 7.36197C18.4914 7.19805 18.3355 7.02259 18.1777 6.85252C18.1838 6.82937 18.1869 6.8151 18.1869 6.8151Z" fill="#E5E5E3"/>
  <path d="M15.4942 8.41927C15.6501 8.43052 15.7724 8.36446 15.8425 8.31285C15.9954 8.42782 16.1708 8.51366 16.3615 8.56262C16.3164 8.59934 16.2721 8.64074 16.2416 8.68368C16.1507 8.81056 16.3053 9.03892 16.8156 9.15729C16.9936 9.19865 17.2219 9.1828 17.444 9.14542C17.1997 9.25217 16.9306 9.31221 16.6469 9.31221C15.636 9.31221 14.8031 8.55975 14.6716 7.58496C14.8146 8.14362 15.2459 8.40114 15.4942 8.41927Z" fill="white"/>
  <path d="M23.9992 5.10236C22.6351 4.88466 21.4847 5.21795 21.4847 5.21795C21.4847 5.21795 22.2232 5.13883 22.7063 5.148C23.1892 5.157 23.3987 5.26637 23.1346 5.40303C22.8701 5.53986 22.6401 5.53318 21.7949 5.72179C20.811 5.94177 19.8526 6.45641 19.8526 6.45641C19.8526 6.45641 19.7306 6.51632 19.6766 6.54665C19.1573 6.83819 18.6882 7.11605 18.5877 6.99747C18.4178 6.79683 18.8349 6.33451 18.8349 6.33451C18.8349 6.33451 18.4419 6.55146 18.3144 6.68331C18.187 6.81521 18.1367 6.85184 18.1823 6.87927C18.1823 6.87927 18.6059 7.34378 18.6014 7.42581C18.5969 7.50792 18.5271 7.98608 18.5271 7.98608C18.5271 7.98608 18.6059 7.80734 18.6423 7.58463C18.679 7.36208 18.9859 7.02805 19.4795 6.75119C19.9383 6.49391 21.075 6.06205 21.2347 6.00446C21.9962 5.72951 23.1528 5.64906 23.1528 5.64906L23.9992 5.10236Z" fill="white"/>
  <path d="M3.94405 14.5992L3.69922 15.0886C3.69922 15.0886 6.15937 15.5625 11.9727 15.5625C17.5671 15.5625 20.3006 15.0886 20.3006 15.0886L20.3068 15.0762L20.0774 14.5557C20.0774 14.5557 17.5671 15.362 11.9727 15.362C6.35247 15.362 4.08839 14.6468 3.94405 14.5992Z" fill="url(#paint6_linear_4178_42899)"/>
  <path opacity="0.48" d="M20.0774 14.5556C20.0774 14.5556 23.1935 5.88358 23.3303 5.69904C23.467 5.51457 23.999 5.10229 23.999 5.10229L23.1526 5.649L20.0774 14.5556Z" fill="#E5E5E3"/>
  <path opacity="0.48" d="M3.88059 14.5556C3.88059 14.5556 0.764484 5.88358 0.627943 5.69904C0.491193 5.51457 0 5.10229 0 5.10229L0.84738 5.649L3.88059 14.5556Z" fill="#E5E5E3"/>
  <path d="M12.6156 7.98633H9.6042V9.77664H12.281C12.3981 9.77664 12.4527 9.77726 12.453 9.77726C12.4539 9.7783 12.5003 9.7861 12.5003 9.90023V10.1593L9.44629 12.3352V14.463H14.554V12.6727H12.4427L13.4688 11.9025C13.624 11.7891 13.7675 11.6569 13.8902 11.5509C14.0253 11.4342 14.1486 11.2949 14.2565 11.1465C14.3725 10.9872 14.4324 10.8102 14.4849 10.6592C14.5502 10.4702 14.554 10.2619 14.554 10.0675V9.90023C14.554 9.2218 14.4053 8.75637 14.0887 8.43952C13.7711 8.12225 13.293 7.98633 12.6156 7.98633Z" fill="url(#paint7_linear_4178_42899)"/>
  <path d="M12.6158 8.14453H9.81493V9.56621H12.2811C12.5468 9.56621 12.6585 9.67777 12.6585 9.94343V10.2965L9.65698 12.4724V14.3053H14.4488V12.8309H11.8826L13.3611 11.7639C13.5077 11.6567 13.6456 11.5471 13.7708 11.4388C13.9004 11.3269 14.0142 11.2038 14.1088 11.0736C14.2051 10.941 14.297 10.7945 14.3509 10.6383C14.4056 10.4805 14.4489 10.3028 14.4489 10.1107V9.94343C14.4489 9.32532 14.2872 8.86694 13.9983 8.57814C13.7095 8.28937 13.2339 8.14453 12.6158 8.14453Z" fill="#777C84"/>
  <path d="M14.2895 10.1369C14.2895 10.3155 14.2644 10.4773 14.2142 10.6223C14.1639 10.7676 14.0941 10.9013 14.0051 11.024C13.9157 11.1468 13.8097 11.2613 13.6867 11.3671C13.5641 11.4733 13.4301 11.5793 13.2853 11.6853L11.4858 12.9825H14.2895V14.1542H9.77002V12.564L12.783 10.388V9.96963C12.783 9.63468 12.6155 9.46731 12.2809 9.46731H9.93751V8.29565H12.6155C13.2014 8.29565 13.6268 8.4283 13.892 8.69321C14.157 8.95828 14.2895 9.38367 14.2895 9.96959V10.1369Z" fill="url(#paint8_linear_4178_42899)"/>
  <path d="M12.9217 10.2062C12.9217 10.0037 12.8598 9.86291 12.7371 9.78296C12.755 9.84212 12.7636 9.90983 12.7636 9.98671V10.4052L9.81494 12.5812V14.1997H9.92024V12.8006L12.9218 10.6247L12.9217 10.2062Z" fill="white"/>
  <path d="M11.5816 12.9363L11.2771 13.147H14.2908V12.9363H11.5816Z" fill="white"/>
  <path d="M10.0782 8.51276H12.7729C13.3587 8.51276 13.7842 8.6554 14.0494 8.92019C14.0588 8.92961 14.0677 8.94463 14.0768 8.95467C14.0248 8.86003 13.9634 8.77394 13.8922 8.70266C13.627 8.43767 13.2016 8.30225 12.6157 8.30225H9.9729V9.51328H10.0782V8.51276Z" fill="white"/>
  <path opacity="0.35" d="M10.3653 12.1643C10.7102 12.29 11.0869 12.3588 11.4753 12.3588C11.9383 12.3588 12.3803 12.2612 12.7782 12.0854L13.3348 11.6851C13.4798 11.5791 13.6141 11.4732 13.7371 11.3669C13.8595 11.2611 13.9661 11.1466 14.0555 11.0238C14.1445 10.9011 14.2425 10.7674 14.2926 10.6222C14.3428 10.4772 14.396 10.3154 14.396 10.1367V9.96946C14.396 9.38354 14.2354 8.96143 13.9706 8.69635C13.7054 8.43145 13.252 8.30225 12.6664 8.30225H9.9729V9.51328H12.3315C12.6664 9.51328 12.8163 9.63447 12.8163 9.96942V10.3878L10.3653 12.1643Z" fill="white"/>
  <defs>
  <linearGradient id="paint0_linear_4178_42899" x1="1.47634" y1="8.0002" x2="22.2534" y2="8.0002" gradientUnits="userSpaceOnUse">
  <stop stop-color="#91969F"/>
  <stop offset="0.623" stop-color="#B5C0C9"/>
  <stop offset="1" stop-color="#8F939C"/>
  </linearGradient>
  <linearGradient id="paint1_linear_4178_42899" x1="12" y1="7.15323" x2="12" y2="14.5767" gradientUnits="userSpaceOnUse">
  <stop stop-color="#D6D8DB"/>
  <stop offset="1" stop-color="#8F939C"/>
  </linearGradient>
  <linearGradient id="paint2_linear_4178_42899" x1="6.79154" y1="9.84633" x2="8.1036" y2="3.94203" gradientUnits="userSpaceOnUse">
  <stop stop-color="#8F939C"/>
  <stop offset="1" stop-color="#D6D8DB"/>
  </linearGradient>
  <linearGradient id="paint3_linear_4178_42899" x1="8.07274" y1="3.18953" x2="11.9195" y2="3.18953" gradientUnits="userSpaceOnUse">
  <stop stop-color="#8F939C"/>
  <stop offset="1" stop-color="#D6D8DB"/>
  </linearGradient>
  <linearGradient id="paint4_linear_4178_42899" x1="17.2088" y1="9.84632" x2="15.8967" y2="3.94208" gradientUnits="userSpaceOnUse">
  <stop stop-color="#D6D8DB"/>
  <stop offset="1" stop-color="#8F939C"/>
  </linearGradient>
  <linearGradient id="paint5_linear_4178_42899" x1="11.9196" y1="3.18953" x2="15.885" y2="3.18953" gradientUnits="userSpaceOnUse">
  <stop stop-color="#B5C0C9"/>
  <stop offset="1" stop-color="#8F939C"/>
  </linearGradient>
  <linearGradient id="paint6_linear_4178_42899" x1="12.003" y1="6.2221" x2="12.003" y2="14.6658" gradientUnits="userSpaceOnUse">
  <stop stop-color="#D6D8DB"/>
  <stop offset="1" stop-color="#8F939C"/>
  </linearGradient>
  <linearGradient id="paint7_linear_4178_42899" x1="11.8686" y1="15.1306" x2="12.1845" y2="9.2683" gradientUnits="userSpaceOnUse">
  <stop offset="0.4385" stop-color="#8F939C"/>
  <stop offset="1" stop-color="#B5C0C9"/>
  </linearGradient>
  <linearGradient id="paint8_linear_4178_42899" x1="11.7586" y1="9.3432" x2="12.1376" y2="13.0188" gradientUnits="userSpaceOnUse">
  <stop stop-color="#B5C0C9"/>
  <stop offset="1" stop-color="#8F939C"/>
  </linearGradient>
  </defs>
  </svg>
