<svg width="24" height="16" viewBox="0 0 24 16" fill="none" xmlns="http://www.w3.org/2000/svg">
  <path d="M18.1867 6.81532C18.1867 6.81532 18.1833 6.82968 18.1771 6.85324C18.1947 6.9444 18.2041 7.0382 18.2041 7.13442C18.2041 7.94961 17.5423 8.61055 16.7272 8.61055C15.912 8.61055 15.2493 7.94961 15.2493 7.13442C15.2493 6.63509 15.4946 6.19459 15.8741 5.92731C15.8876 5.91275 15.8889 5.90416 15.8889 5.90416C15.8889 5.90416 16.082 5.02952 14.6606 2.80633C13.2392 0.582928 11.9726 0.437256 11.9726 0.437256C11.9726 0.437256 10.7335 0.582928 9.31202 2.80633C7.89057 5.02956 8.09741 5.90416 8.09741 5.90416C8.09741 5.90416 8.1057 5.91275 8.11923 5.92731C8.49853 6.19455 8.74722 6.63509 8.74722 7.13442C8.74722 7.94961 8.08629 8.61055 7.27109 8.61055C6.45586 8.61055 5.79493 7.94961 5.79493 7.13442C5.79493 7.0382 5.80497 6.9444 5.82264 6.85324C5.81642 6.82968 5.81314 6.81532 5.81314 6.81532C5.81314 6.81532 3.44415 4.66536 0 5.1025L3.69928 15.0888C3.69928 15.0888 6.15937 15.5627 11.9727 15.5627C17.5673 15.5627 20.3007 15.0888 20.3007 15.0888L24 5.1025C20.5557 4.66536 18.1867 6.81532 18.1867 6.81532Z" fill="url(#paint0_linear_4178_42992)"/>
  <path opacity="0.25" d="M20.5434 5.48947C19.0713 6.01444 18.1867 6.81556 18.1867 6.81556C18.1867 6.81556 18.1833 6.82992 18.1771 6.85349C18.1947 6.94464 18.2041 7.03845 18.2041 7.13466C18.2041 7.94986 17.5423 8.61079 16.7272 8.61079C15.912 8.61079 15.2493 7.94986 15.2493 7.13466C15.2493 6.63533 15.4946 6.19484 15.8741 5.92756C15.8876 5.913 15.8889 5.90441 15.8889 5.90441C15.8889 5.90441 16.082 5.02976 14.6606 2.80657C13.2392 0.58317 11.9726 0.4375 11.9726 0.4375C11.9726 0.4375 10.7335 0.58317 9.31202 2.80657C7.89057 5.0298 8.09741 5.90441 8.09741 5.90441C8.09741 5.90441 8.1057 5.913 8.11923 5.92756C8.49853 6.1948 8.74722 6.63533 8.74722 7.13466C8.74722 7.94986 8.08629 8.61079 7.27109 8.61079C6.45586 8.61079 5.79493 7.94986 5.79493 7.13466C5.79493 7.03845 5.80497 6.94464 5.82264 6.85349C5.81642 6.82992 5.81314 6.81556 5.81314 6.81556C5.81314 6.81556 3.44415 4.6656 0 5.10274L3.69928 15.0891C3.69928 15.0891 6.15937 15.563 11.9727 15.563C12.4898 15.563 12.9822 15.5588 13.4507 15.5516C17.6371 13.9163 20.556 10.2369 20.556 5.9593C20.5559 5.80188 20.5511 5.64543 20.5434 5.48947Z" fill="#FFFFD9"/>
  <path opacity="0.25" d="M17.4733 8.40662C17.2542 8.53541 16.9998 8.61055 16.7274 8.61055C15.9121 8.61055 15.2495 7.94961 15.2495 7.13442C15.2495 6.63509 15.4947 6.19459 15.8742 5.92732C15.8877 5.91275 15.8891 5.90416 15.8891 5.90416C15.8891 5.90416 16.0822 5.02952 14.6608 2.80632C13.2394 0.582926 11.9728 0.437256 11.9728 0.437256C11.9728 0.437256 10.7336 0.582926 9.31218 2.80632C7.89074 5.02956 8.09757 5.90416 8.09757 5.90416C8.09757 5.90416 8.10586 5.91275 8.11939 5.92732C8.49869 6.19455 8.74738 6.63509 8.74738 7.13442C8.74738 7.94961 8.08645 8.61055 7.27125 8.61055C6.45602 8.61055 5.79509 7.94961 5.79509 7.13442C5.79509 7.03821 5.80513 6.9444 5.8228 6.85324C5.81658 6.82968 5.8133 6.81532 5.8133 6.81532C5.8133 6.81532 4.48455 5.60963 2.37085 5.18772C2.64692 9.4654 6.11671 12.8479 10.3593 12.8479C13.4566 12.8479 16.1411 11.0442 17.4733 8.40662Z" fill="#FFFFD9"/>
  <path opacity="0.25" d="M15.5324 4.40829C15.3474 3.97945 15.072 3.44971 14.6607 2.80632C13.2393 0.582926 11.9727 0.437256 11.9727 0.437256C11.9727 0.437256 10.7335 0.582926 9.31203 2.80632C7.89059 5.02956 8.09742 5.90416 8.09742 5.90416C8.09742 5.90416 8.10572 5.91275 8.11925 5.92731C8.49855 6.19455 8.74724 6.63509 8.74724 7.13442C8.74724 7.44866 8.64816 7.73947 8.4807 7.9789C9.22698 9.09116 10.2804 9.78579 11.4488 9.78579C13.6094 9.78579 15.3779 7.41448 15.5324 4.40829Z" fill="#FFFFD9"/>
  <path opacity="0.25" d="M8.73114 8.31995C10.3727 8.05886 11.9266 5.46396 12 4.02721C12.0821 2.42358 11.9727 0.811287 11.9727 0.811287C11.9353 0.685864 11.9486 0.560232 11.9727 0.437256C11.6341 0.532102 10.4768 0.984384 9.31203 2.80633C7.89059 5.02956 8.09742 5.90416 8.09742 5.90416C8.09742 5.90416 8.10572 5.91275 8.11925 5.92731C8.49855 6.19455 8.74724 6.63509 8.74724 7.13442C8.74724 7.44866 8.64816 7.73947 8.4807 7.9789C8.56053 8.09786 8.64455 8.21096 8.73114 8.31995Z" fill="#FFFFD9"/>
  <path d="M20.0776 14.5559C20.0776 14.5559 17.5673 15.3622 11.9727 15.3622C6.15937 15.3622 3.93623 14.5969 3.93623 14.5969L0.847265 5.64926C0.745449 5.6578 0.104098 5.08948 0 5.10255L3.69928 15.0889C3.69928 15.0889 6.15937 15.5628 11.9727 15.5628C17.5673 15.5628 20.3007 15.0889 20.3007 15.0889L24 5.10255C23.8961 5.08948 23.3555 5.59275 23.2535 5.5842L20.0776 14.5559Z" fill="url(#paint1_linear_4178_42992)"/>
  <path d="M7.35316 9.31202C8.45521 9.31202 9.34858 8.41854 9.34858 7.31653C9.34858 6.48366 8.83779 5.77061 8.11301 5.47168C8.06588 5.76904 8.09741 5.90421 8.09741 5.90421C8.09741 5.90421 8.10571 5.9128 8.11923 5.92736C8.49853 6.1946 8.74722 6.63514 8.74722 7.13447C8.74722 7.94966 8.08629 8.61059 7.2711 8.61059C6.45586 8.61059 5.79493 7.94966 5.79493 7.13447C5.79493 7.03825 5.80497 6.94444 5.82264 6.85329C5.81642 6.82972 5.81314 6.81537 5.81314 6.81537C5.81314 6.81537 5.70539 6.71787 5.50383 6.56925C5.41027 6.80027 5.35767 7.05219 5.35767 7.31657C5.35758 8.41854 6.25115 9.31202 7.35316 9.31202Z" fill="url(#paint2_linear_4178_42992)"/>
  <path d="M9.29923 2.80632C7.99384 4.84812 8.06823 5.75185 8.08781 5.88583C8.26966 5.89475 8.5269 5.91146 8.74181 5.94188C8.72609 5.69335 8.7636 4.77763 9.95398 2.91569C10.7362 1.69191 11.4914 1.09835 11.9478 0.811285V0.437256C11.9478 0.437256 10.7208 0.582926 9.29923 2.80632Z" fill="url(#paint3_linear_4178_42992)"/>
  <path d="M5.81305 6.81536C5.81305 6.81536 3.4446 4.66565 0.000732422 5.10254L0.861895 5.60195C3.58815 5.74215 5.37574 7.36224 5.37574 7.36224C5.50855 7.19831 5.66443 7.02285 5.82242 6.85278C5.81632 6.82963 5.81305 6.81536 5.81305 6.81536Z" fill="url(#paint4_linear_4178_42992)"/>
  <path d="M10.2057 1.6137C10.1945 1.62635 10.1892 1.63909 10.1788 1.6505C10.1485 1.68394 10.1212 1.7178 10.0903 1.75302C10.0839 1.76012 10.0811 1.76505 10.0811 1.76505C10.0811 1.76505 10.8098 1.07981 11.1309 0.949821C11.452 0.820041 11.2342 1.10022 10.995 1.29153C10.7558 1.48301 9.61462 3.17774 9.19096 4.11392C8.98331 4.57271 8.87232 5.02006 8.81274 5.35799C8.92896 4.8648 9.22805 4.07313 9.96794 2.91573C10.0977 2.71243 10.2259 2.52839 10.352 2.35819C10.4557 2.21385 10.5702 2.06386 10.6952 1.91446C10.822 1.76302 10.941 1.62835 11.0694 1.5084C11.409 1.17354 11.7404 0.954344 11.9478 0.811287V0.437256C11.9478 0.437339 11.2091 0.525919 10.2057 1.6137Z" fill="#FFFCDE"/>
  <path d="M8.50584 8.41928C8.34992 8.43052 8.22786 8.36447 8.15749 8.31286C8.00489 8.42783 7.82947 8.51367 7.63862 8.56263C7.6838 8.59935 7.72795 8.64075 7.75865 8.68369C7.84943 8.81057 7.69493 9.03893 7.18468 9.1573C7.00644 9.19867 6.77816 9.18282 6.55615 9.14544C6.8002 9.25219 7.06967 9.31222 7.35321 9.31222C8.36399 9.31222 9.19723 8.55976 9.3285 7.58496C9.18561 8.14362 8.7542 8.40115 8.50584 8.41928Z" fill="#FFFCDE"/>
  <path d="M5.81776 6.87931C5.81776 6.87931 5.39428 7.34383 5.3986 7.42585C5.40308 7.50796 5.4729 7.98613 5.4729 7.98613C5.4729 7.98613 5.39424 7.80739 5.35756 7.58467C5.32118 7.36212 5.01411 7.02809 4.5205 6.75123C4.0269 6.47437 2.75806 5.94873 2.75806 5.94873C2.75806 5.94873 3.80418 6.25522 4.32343 6.54668C4.84288 6.83823 5.16637 7.17982 5.40784 7.07518C5.64907 6.97042 5.16534 6.3345 5.16534 6.3345C5.16534 6.3345 5.55833 6.55145 5.68579 6.68331C5.81308 6.81525 5.86349 6.85188 5.81776 6.87931Z" fill="#FFFCDE"/>
  <path d="M2.10473 5.65824C1.24825 5.53066 1.02051 5.53983 0.756058 5.40304C0.491934 5.26641 0.810779 5.157 1.29364 5.148C1.77654 5.13883 2.51539 5.21795 2.51539 5.21795C2.51539 5.21795 1.36484 4.88466 0.000732422 5.10236L0.847126 5.64907C0.847126 5.64907 2.21401 5.73097 2.97037 6.02265C3.72656 6.31432 3.79444 6.30407 3.79444 6.30407C3.79444 6.30407 2.9612 5.7859 2.10473 5.65824Z" fill="#FFFCDE"/>
  <path d="M16.6466 9.31202C15.5447 9.31202 14.6514 8.41854 14.6514 7.31653C14.6514 6.48366 15.1619 5.77061 15.8869 5.47168C15.9341 5.76904 15.9025 5.90421 15.9025 5.90421C15.9025 5.90421 15.8942 5.9128 15.8807 5.92736C15.5014 6.1946 15.2527 6.63514 15.2527 7.13447C15.2527 7.94966 15.9134 8.61059 16.7288 8.61059C17.5439 8.61059 18.205 7.94966 18.205 7.13447C18.205 7.03825 18.1949 6.94444 18.1773 6.85329C18.1835 6.82972 18.1866 6.81537 18.1866 6.81537C18.1866 6.81537 18.2945 6.71787 18.4961 6.56925C18.5895 6.80027 18.6422 7.05219 18.6422 7.31657C18.6422 8.41854 17.7488 9.31202 16.6466 9.31202Z" fill="url(#paint5_linear_4178_42992)"/>
  <path d="M14.648 2.80632C15.9534 4.84812 15.9057 5.75185 15.8861 5.88583C15.7037 5.89475 15.4597 5.91146 15.2449 5.94188C15.2607 5.69335 15.1775 4.77763 13.9871 2.91569C13.205 1.69191 12.5701 1.09835 11.9478 0.811285V0.437256C11.9478 0.437256 13.2266 0.582926 14.648 2.80632Z" fill="url(#paint6_linear_4178_42992)"/>
  <path d="M18.1867 6.81536C18.1867 6.81536 20.5553 4.66565 23.9991 5.10254L23.1379 5.60195C20.4117 5.74215 18.6242 7.36224 18.6242 7.36224C18.4913 7.19831 18.3354 7.02285 18.1775 6.85278C18.1835 6.82963 18.1867 6.81536 18.1867 6.81536Z" fill="url(#paint7_linear_4178_42992)"/>
  <path d="M15.4943 8.41928C15.65 8.43052 15.7722 8.36447 15.8426 8.31286C15.9952 8.42783 16.1706 8.51367 16.3613 8.56263C16.3162 8.59935 16.2719 8.64075 16.2414 8.68369C16.1507 8.81057 16.3052 9.03893 16.8154 9.1573C16.9936 9.19867 17.2217 9.18282 17.4439 9.14544C17.1997 9.25219 16.9304 9.31222 16.6467 9.31222C15.6359 9.31222 14.8029 8.55976 14.6714 7.58496C14.8144 8.14362 15.2459 8.40115 15.4943 8.41928Z" fill="#FFFCDE"/>
  <path d="M23.9991 5.10236C22.635 4.88466 21.4845 5.21795 21.4845 5.21795C21.4845 5.21795 22.2231 5.13883 22.706 5.148C23.1891 5.157 23.3986 5.26637 23.1343 5.40304C22.87 5.53987 22.64 5.53319 21.7948 5.7218C20.8107 5.94178 19.8524 6.45642 19.8524 6.45642C19.8524 6.45642 19.7305 6.51633 19.6763 6.54666C19.157 6.83821 18.6879 7.11607 18.5876 6.99749C18.4175 6.79685 18.8345 6.33452 18.8345 6.33452C18.8345 6.33452 18.4416 6.55148 18.3141 6.68333C18.1866 6.81523 18.1364 6.85186 18.1821 6.87929C18.1821 6.87929 18.6056 7.34381 18.6013 7.42583C18.5966 7.50794 18.527 7.98611 18.527 7.98611C18.527 7.98611 18.6056 7.80737 18.6422 7.58466C18.6787 7.3621 18.9856 7.02807 19.4792 6.75121C19.9382 6.49393 21.0747 6.06206 21.2346 6.00447C21.9961 5.72952 23.1526 5.64907 23.1526 5.64907L23.9991 5.10236Z" fill="#FFFCDE"/>
  <path d="M3.94393 14.5995L3.69922 15.0888C3.69922 15.0888 6.15932 15.5628 11.9726 15.5628C17.5672 15.5628 20.3006 15.0888 20.3006 15.0888L20.3069 15.0764L20.0775 14.5559C20.0775 14.5559 17.5672 15.3622 11.9726 15.3622C6.35241 15.3622 4.08844 14.6471 3.94393 14.5995Z" fill="#572600"/>
  <path d="M20.0776 14.556C20.0776 14.556 23.1938 5.88383 23.3304 5.69929C23.4671 5.51482 23.9993 5.10254 23.9993 5.10254L23.1527 5.64925L20.0776 14.556Z" fill="#E38250"/>
  <path d="M3.88063 14.556C3.88063 14.556 0.764494 5.88383 0.627868 5.69929C0.4912 5.51482 0 5.10254 0 5.10254L0.847265 5.64925L3.88063 14.556Z" fill="#FFFCDE"/>
  <path d="M14.5565 11.7659C14.4805 11.5398 14.3987 11.3719 14.2971 11.2374C14.2116 11.1245 14.1206 11.0311 14.0196 10.9541C14.0956 10.8856 14.1647 10.8092 14.226 10.7253C14.4176 10.4641 14.5149 10.1304 14.5149 9.73334C14.5149 9.14854 14.3594 8.7246 14.0393 8.41455C13.7338 8.1191 13.2728 7.98633 12.6298 7.98633H9.46678V9.76222H12.2147C12.2984 9.76222 12.3229 9.76168 12.3331 9.76566C12.3376 9.77699 12.3395 9.80242 12.3395 9.89938V10.0655C12.3395 10.2878 12.3278 10.3368 12.2146 10.3368H10.3024V12.1127H12.3807C12.4803 12.1127 12.4944 12.1012 12.5035 12.1054C12.5068 12.1135 12.4963 12.1193 12.4963 12.1974V12.5118C12.4963 12.5718 12.5115 12.592 12.5086 12.6024C12.4712 12.6375 12.4819 12.635 12.4637 12.635H9.3623V14.2409L9.65722 14.2732C10.0175 14.3204 10.3737 14.3635 10.7229 14.3651C11.0203 14.4136 11.3776 14.4631 11.754 14.4631H12.7957C13.3915 14.4631 13.8583 14.2973 14.1867 13.9716C14.4871 13.6733 14.6377 13.1925 14.6377 12.5435V12.4611C14.6377 12.2286 14.6296 11.9833 14.5565 11.7659Z" fill="url(#paint8_linear_4178_42992)"/>
  <path d="M14.3732 12.5834C14.3732 13.1213 14.2459 13.5167 13.9913 13.7693C13.7365 14.022 13.3382 14.1482 12.7957 14.1482C12.4637 14.1482 12.1163 14.1482 11.754 14.1482C11.3913 14.1482 11.0609 14.1234 10.7619 14.0732C10.4078 14.0732 10.0617 14.0514 9.72412 14.0069V12.9445C10.0508 12.9445 10.377 12.9445 10.7039 12.9445C10.986 12.9445 11.2834 12.9445 11.5962 12.9445C11.9088 12.9445 12.1982 12.9445 12.4637 12.9445C12.591 12.9445 12.692 12.9091 12.7669 12.8383C12.8415 12.7676 12.8787 12.672 12.8787 12.5516V12.2371C12.8787 11.9227 12.7128 11.7656 12.3808 11.7656H10.6374V10.6034H12.2147C12.5467 10.6034 12.7128 10.4373 12.7128 10.1053V9.93915C12.7128 9.60706 12.5467 9.44106 12.2147 9.44106H9.80727V8.27881H12.6298C13.1721 8.27881 13.5706 8.40203 13.8253 8.64823C14.0798 8.8946 14.2071 9.26958 14.2071 9.77302C14.2071 10.1052 14.1309 10.3751 13.9789 10.5826C13.8265 10.7901 13.6261 10.9353 13.377 11.0183C13.4986 11.0512 13.6203 11.1036 13.7423 11.1749C13.8639 11.2463 13.9706 11.3424 14.0618 11.4631C14.1533 11.5841 14.2279 11.7308 14.2859 11.9037C14.3439 12.0769 14.3732 12.2757 14.3732 12.5009L14.3732 12.5834Z" fill="url(#paint9_linear_4178_42992)"/>
  <path d="M14.0617 11.4807C13.9704 11.36 13.8637 11.2465 13.7421 11.1752C13.7329 11.1698 13.386 11.0238 13.3768 11.0186C13.3193 11.048 13.2688 11.1747 13.5327 11.2536C13.6543 11.2867 13.7762 11.3388 13.898 11.4101C13.9922 11.4654 14.0773 11.5356 14.1533 11.6204C14.1247 11.5707 14.0944 11.5238 14.0617 11.4807Z" fill="white"/>
  <path d="M12.8659 12.0776C12.8805 12.1297 12.8617 12.1883 12.8617 12.2545V12.569C12.8617 12.6895 12.8329 12.7523 12.7581 12.8231C12.6835 12.8939 12.591 12.8965 12.4637 12.8965C12.1982 12.8965 11.9087 12.8965 11.5961 12.8965C11.2834 12.8965 10.986 12.8965 10.7038 12.8965C10.377 12.8965 9.98887 12.8965 9.67554 12.8965V14.0244C9.72786 14.0311 9.78001 14.0372 9.83229 14.0431V13.1054C10.2502 13.1054 10.5331 13.1054 10.8595 13.1054C11.1418 13.1054 11.4394 13.1054 11.752 13.1054C12.0646 13.1054 12.354 13.1054 12.6195 13.1054C12.7468 13.1054 12.866 13.1073 12.9406 13.0365C13.0153 12.9657 13.0707 12.9073 13.0707 12.7868V12.4724C13.0708 12.2844 12.9843 12.1531 12.8659 12.0776Z" fill="white"/>
  <path d="M9.88471 8.45646H12.7858C13.328 8.45646 13.7265 8.6084 13.9813 8.85472C13.9948 8.86787 14.008 8.89575 14.021 8.90978C13.9673 8.81194 13.9022 8.70851 13.8252 8.63391C13.5706 8.38779 13.1721 8.24756 12.6298 8.24756H9.78003V9.44894H9.88463V8.45646H9.88471Z" fill="white"/>
  <path d="M12.2146 10.5981H10.668V11.7473H10.8247V10.8071H12.3705C12.7027 10.8071 12.8617 10.6725 12.8617 10.3402V10.1743C12.8617 9.97338 12.7742 9.83372 12.6528 9.75439C12.6701 9.81319 12.653 9.88023 12.653 9.95645V10.1225C12.6529 10.4547 12.5466 10.5981 12.2146 10.5981Z" fill="white"/>
  <path opacity="0.35" d="M13.377 11.0183C13.6261 10.9352 13.8264 10.79 13.9788 10.5825C14.1309 10.375 14.2071 10.1052 14.2071 9.77297C14.2071 9.26949 14.0798 8.87891 13.8252 8.6325C13.5706 8.38634 13.1721 8.24756 12.6298 8.24756H9.78003V9.44894H12.2146C12.5467 9.44894 12.653 9.60701 12.653 9.93906V10.1052C12.653 10.4372 12.5467 10.5979 12.2146 10.5979H10.668V11.7471H12.3807C12.6089 11.7471 12.7587 11.8307 12.83 11.9791C13.21 11.7928 13.5474 11.5382 13.8243 11.2241C13.7978 11.2049 13.7705 11.189 13.7422 11.1726C13.6203 11.1013 13.4986 11.0512 13.377 11.0183Z" fill="#FFF6CC"/>
  <defs>
  <linearGradient id="paint0_linear_4178_42992" x1="1.47603" y1="8.00003" x2="22.2532" y2="8.00003" gradientUnits="userSpaceOnUse">
  <stop stop-color="#864725"/>
  <stop offset="0.4303" stop-color="#E38250"/>
  <stop offset="0.7131" stop-color="#BD6E50"/>
  <stop offset="1" stop-color="#572600"/>
  </linearGradient>
  <linearGradient id="paint1_linear_4178_42992" x1="12" y1="7.15325" x2="12" y2="14.5768" gradientUnits="userSpaceOnUse">
  <stop stop-color="#E38250"/>
  <stop offset="1" stop-color="#BD6E50"/>
  </linearGradient>
  <linearGradient id="paint2_linear_4178_42992" x1="6.79131" y1="9.84637" x2="8.10339" y2="3.94201" gradientUnits="userSpaceOnUse">
  <stop stop-color="#572600"/>
  <stop offset="0.4303" stop-color="#BD6E50"/>
  <stop offset="1" stop-color="#E38250"/>
  </linearGradient>
  <linearGradient id="paint3_linear_4178_42992" x1="8.08008" y1="3.18956" x2="11.9478" y2="3.18956" gradientUnits="userSpaceOnUse">
  <stop stop-color="#572600"/>
  <stop offset="0.4303" stop-color="#BD6E50"/>
  <stop offset="1" stop-color="#E38250"/>
  </linearGradient>
  <linearGradient id="paint4_linear_4178_42992" x1="0.000736571" y1="6.2031" x2="5.8224" y2="6.2031" gradientUnits="userSpaceOnUse">
  <stop stop-color="#E38250"/>
  <stop offset="0.5697" stop-color="#BD6E50"/>
  <stop offset="1" stop-color="#572600"/>
  </linearGradient>
  <linearGradient id="paint5_linear_4178_42992" x1="17.2086" y1="9.84635" x2="15.8965" y2="3.94204" gradientUnits="userSpaceOnUse">
  <stop stop-color="#E38250"/>
  <stop offset="0.5697" stop-color="#BD6E50"/>
  <stop offset="1" stop-color="#572600"/>
  </linearGradient>
  <linearGradient id="paint6_linear_4178_42992" x1="15.8922" y1="3.18956" x2="11.9477" y2="3.18956" gradientUnits="userSpaceOnUse">
  <stop stop-color="#572600"/>
  <stop offset="0.4303" stop-color="#BD6E50"/>
  <stop offset="1" stop-color="#E38250"/>
  </linearGradient>
  <linearGradient id="paint7_linear_4178_42992" x1="18.1775" y1="6.2031" x2="23.9991" y2="6.2031" gradientUnits="userSpaceOnUse">
  <stop stop-color="#E38250"/>
  <stop offset="0.5697" stop-color="#BD6E50"/>
  <stop offset="1" stop-color="#572600"/>
  </linearGradient>
  <linearGradient id="paint8_linear_4178_42992" x1="12.0001" y1="15.351" x2="12.0001" y2="9.25728" gradientUnits="userSpaceOnUse">
  <stop stop-color="#572600"/>
  <stop offset="1" stop-color="#BD6E50"/>
  </linearGradient>
  <linearGradient id="paint9_linear_4178_42992" x1="11.9933" y1="8.09613" x2="12.0601" y2="14.3109" gradientUnits="userSpaceOnUse">
  <stop offset="0.0615" stop-color="#E38250"/>
  <stop offset="0.4467" stop-color="#BD6E50"/>
  <stop offset="1" stop-color="#572600"/>
  </linearGradient>
  </defs>
  </svg>
