<svg width="173" height="40" viewBox="0 0 173 40" fill="none" xmlns="http://www.w3.org/2000/svg">
<path d="M7.968 28.336C5.888 28.336 4.24 27.76 3.024 26.608C1.808 25.44 1.2 23.776 1.2 21.616V17.584C1.2 15.424 1.808 13.768 3.024 12.616C4.24 11.448 5.888 10.864 7.968 10.864C10.032 10.864 11.624 11.432 12.744 12.568C13.88 13.688 14.448 15.232 14.448 17.2V17.344H11.328V17.104C11.328 16.112 11.048 15.296 10.488 14.656C9.944 14.016 9.104 13.696 7.968 13.696C6.848 13.696 5.968 14.04 5.328 14.728C4.688 15.416 4.368 16.352 4.368 17.536V21.664C4.368 22.832 4.688 23.768 5.328 24.472C5.968 25.16 6.848 25.504 7.968 25.504C9.104 25.504 9.944 25.184 10.488 24.544C11.048 23.888 11.328 23.072 11.328 22.096V21.664H14.448V22C14.448 23.968 13.88 25.52 12.744 26.656C11.624 27.776 10.032 28.336 7.968 28.336ZM15.6898 28L20.1058 11.2H25.6258L30.0418 28H26.7778L25.8658 24.304H19.8658L18.9538 28H15.6898ZM20.6098 21.376H25.1218L23.0818 13.192H22.6498L20.6098 21.376ZM32.0527 28V11.2H35.2208V25.12H42.9008V28H32.0527ZM45.0606 28V11.2H48.2286V25.12H55.9086V28H45.0606Z" fill="white"/>
<path d="M59.5009 28L55.2289 11.2H58.4929L62.0449 25.96H62.3809L65.9329 11.2H69.1969L64.9249 28H59.5009ZM71.2168 28V11.2H82.0168V14.08H74.3848V18.088H81.3448V20.968H74.3848V25.12H82.1608V28H71.2168ZM84.5059 28V11.2H91.8019C92.8579 11.2 93.7779 11.384 94.5619 11.752C95.3459 12.12 95.9539 12.64 96.3859 13.312C96.8179 13.984 97.0339 14.776 97.0339 15.688V15.976C97.0339 16.984 96.7939 17.8 96.3139 18.424C95.8339 19.048 95.2419 19.504 94.5379 19.792V20.224C95.1779 20.256 95.6739 20.48 96.0259 20.896C96.3779 21.296 96.5539 21.832 96.5539 22.504V28H93.3859V22.96C93.3859 22.576 93.2819 22.264 93.0739 22.024C92.8819 21.784 92.5539 21.664 92.0899 21.664H87.6739V28H84.5059ZM87.6739 18.784H91.4659C92.2179 18.784 92.8019 18.584 93.2179 18.184C93.6499 17.768 93.8659 17.224 93.8659 16.552V16.312C93.8659 15.64 93.6579 15.104 93.2419 14.704C92.8259 14.288 92.2339 14.08 91.4659 14.08H87.6739V18.784ZM99.1899 28V23.968L107.494 14.416V14.032H99.4299V11.2H110.806V15.232L102.502 24.784V25.168H110.854V28H99.1899Z" fill="#E6F85E"/>
</svg>
