<svg width="100" height="13" viewBox="0 0 100 13" fill="none" xmlns="http://www.w3.org/2000/svg">
  <path d="M99.0364 7.15297H92.2747V4.99517H99.0364V7.15297ZM100 11.9792H92.2747C91.9782 11.9792 91.6543 11.927 91.3029 11.8227C90.9515 11.7184 90.6248 11.5482 90.3228 11.3121C90.0263 11.0705 89.7765 10.7603 89.5733 10.3814C89.3757 9.99709 89.2769 9.52764 89.2769 8.97309V1.24784C89.2769 1.0996 89.3043 0.959589 89.3592 0.827815C89.4141 0.696041 89.4882 0.580739 89.5816 0.481908C89.6804 0.383078 89.7957 0.30621 89.9275 0.251304C90.0593 0.196398 90.202 0.168945 90.3558 0.168945H100V2.31027H91.4182V8.97309C91.4182 9.25311 91.4923 9.46725 91.6406 9.61549C91.7888 9.76374 92.0057 9.83786 92.2912 9.83786H100V11.9792Z" fill="white"/>
  <path d="M86.8311 11.9789H84.6733V4.94549L80.8766 11.6248C80.7832 11.795 80.6515 11.924 80.4813 12.0119C80.3165 12.0997 80.1381 12.1436 79.9459 12.1436C79.7593 12.1436 79.5836 12.0997 79.4188 12.0119C79.2596 11.924 79.1333 11.795 79.04 11.6248L75.2268 4.94549V11.9789H73.0854V1.08286C73.0854 0.835788 73.1568 0.616165 73.2996 0.423995C73.4478 0.231825 73.64 0.102796 73.8761 0.0369089C73.9914 0.009456 74.1067 0.00122013 74.222 0.0122013C74.3373 0.0176919 74.4471 0.0423995 74.5514 0.0863241C74.6612 0.124758 74.7601 0.182409 74.8479 0.259277C74.9358 0.330655 75.0099 0.418504 75.0703 0.522825L79.9459 8.99754L84.8216 0.522825C84.9479 0.314183 85.1208 0.165938 85.3404 0.0780883C85.5655 -0.00976104 85.7989 -0.0234875 86.0405 0.0369089C86.2711 0.102796 86.4605 0.231825 86.6088 0.423995C86.757 0.616165 86.8311 0.835788 86.8311 1.08286V11.9789Z" fill="white"/>
  <path d="M70.9687 7.20255C70.9687 7.92181 70.8452 8.58343 70.5981 9.18739C70.351 9.79136 70.0079 10.313 69.5686 10.7522C69.1294 11.1915 68.6078 11.5346 68.0038 11.7817C67.4053 12.0233 66.752 12.1441 66.0437 12.1441H63.1446C62.4364 12.1441 61.7802 12.0233 61.1763 11.7817C60.5723 11.5346 60.0507 11.1915 59.6115 10.7522C59.1722 10.313 58.8263 9.79136 58.5737 9.18739C58.3267 8.58343 58.2031 7.92181 58.2031 7.20255V4.94592C58.2031 4.23214 58.3267 3.57327 58.5737 2.96931C58.8263 2.35985 59.1722 1.83825 59.6115 1.40449C60.0507 0.965246 60.5723 0.622085 61.1763 0.375009C61.7802 0.127933 62.4364 0.00439453 63.1446 0.00439453H66.0437C66.752 0.00439453 67.4053 0.127933 68.0038 0.375009C68.6078 0.622085 69.1294 0.965246 69.5686 1.40449C70.0079 1.83825 70.351 2.35985 70.5981 2.96931C70.8452 3.57327 70.9687 4.23214 70.9687 4.94592V7.20255ZM68.8274 4.94592C68.8274 4.52314 68.7588 4.14155 68.6215 3.80113C68.4897 3.45523 68.3003 3.16148 68.0532 2.91989C67.8116 2.67282 67.5179 2.48339 67.172 2.35162C66.8316 2.21435 66.4555 2.14572 66.0437 2.14572H63.1446C62.7274 2.14572 62.3458 2.21435 61.9999 2.35162C61.6594 2.48339 61.3657 2.67282 61.1186 2.91989C60.8715 3.16148 60.6794 3.45523 60.5421 3.80113C60.4103 4.14155 60.3445 4.52314 60.3445 4.94592V7.20255C60.3445 7.62532 60.4103 8.00966 60.5421 8.35557C60.6794 8.69599 60.8715 8.98973 61.1186 9.23681C61.3657 9.47839 61.6594 9.66782 61.9999 9.80508C62.3458 9.93686 62.7274 10.0027 63.1446 10.0027H66.0272C66.4445 10.0027 66.8233 9.93686 67.1638 9.80508C67.5097 9.66782 67.8062 9.47839 68.0532 9.23681C68.3003 8.98973 68.4897 8.69599 68.6215 8.35557C68.7588 8.00966 68.8274 7.62532 68.8274 7.20255V4.94592Z" fill="url(#paint0_linear_4214_43785)"/>
  <path d="M57.1567 2.31027H52.4376V11.9792H50.2962V2.31027H45.5688V0.168945H57.1567V2.31027Z" fill="url(#paint1_linear_4214_43785)"/>
  <path d="M44.2512 10.9003C44.2512 11.054 44.2237 11.1968 44.1688 11.3286C44.1139 11.4603 44.037 11.5756 43.9382 11.6745C43.8449 11.7678 43.7323 11.8419 43.6005 11.8968C43.4688 11.9517 43.326 11.9792 43.1723 11.9792H35.447C35.2494 11.9792 35.0352 11.9572 34.8046 11.9133C34.5795 11.8639 34.3544 11.7898 34.1293 11.6909C33.9096 11.5921 33.6983 11.4658 33.4951 11.3121C33.292 11.1529 33.1108 10.9634 32.9515 10.7438C32.7978 10.5187 32.6743 10.2606 32.5809 9.96963C32.4876 9.67314 32.4409 9.34096 32.4409 8.97309V3.17504C32.4409 2.97738 32.4629 2.76599 32.5068 2.54088C32.5562 2.31027 32.6303 2.08516 32.7292 1.86554C32.828 1.64042 32.957 1.42629 33.1163 1.22314C33.2755 1.01999 33.4649 0.841542 33.6845 0.687805C33.9096 0.528578 34.1677 0.402295 34.4587 0.308955C34.7497 0.215615 35.0791 0.168945 35.447 0.168945H44.1523V2.31027H35.447C35.167 2.31027 34.9529 2.38439 34.8046 2.53264C34.6564 2.68089 34.5822 2.90051 34.5822 3.19151V8.97309C34.5822 9.24762 34.6564 9.46175 34.8046 9.61549C34.9583 9.76374 35.1725 9.83786 35.447 9.83786H42.1098V7.15297H36.4106V4.99517H43.1723C43.326 4.99517 43.4688 5.02536 43.6005 5.08576C43.7323 5.14067 43.8449 5.21754 43.9382 5.31637C44.037 5.4152 44.1139 5.5305 44.1688 5.66227C44.2237 5.78856 44.2512 5.92582 44.2512 6.07407V10.9003Z" fill="white"/>
  <path d="M30.1023 11.0648C30.1023 11.2186 30.0721 11.3613 30.0117 11.4931C29.9568 11.6249 29.8799 11.7402 29.7811 11.839C29.6878 11.9324 29.5752 12.0065 29.4434 12.0614C29.3117 12.1163 29.1716 12.1437 29.0234 12.1437C28.8916 12.1437 28.7571 12.119 28.6198 12.0696C28.4881 12.0202 28.37 11.9406 28.2657 11.8308L20.4416 3.6608V11.979H18.3003V1.08297C18.3003 0.863345 18.3607 0.665684 18.4815 0.489985C18.6078 0.308796 18.767 0.174277 18.9592 0.0864277C19.1623 0.00406897 19.371 -0.0151481 19.5851 0.0287766C19.7992 0.0672107 19.9832 0.166041 20.1369 0.325268L27.961 8.48702V0.168786H30.1023V11.0648Z" fill="white"/>
  <path d="M15.7966 11.9792H13.6553V0.168945H15.7966V11.9792Z" fill="white"/>
  <path d="M11.802 5.11047C11.802 5.59913 11.7416 6.03563 11.6208 6.41997C11.5 6.80431 11.3353 7.14473 11.1267 7.44122C10.9235 7.73222 10.6874 7.98204 10.4184 8.19069C10.1493 8.39933 9.86658 8.56954 9.57008 8.70131C9.27908 8.83308 8.98259 8.92917 8.68061 8.98956C8.38412 9.04996 8.1041 9.08016 7.84055 9.08016H2.99786V6.93883H7.84055C8.11508 6.91687 8.36216 6.86196 8.58178 6.77411C8.80689 6.68077 8.99906 6.55724 9.15829 6.4035C9.31752 6.24976 9.44105 6.06583 9.5289 5.8517C9.61675 5.63207 9.66068 5.385 9.66068 5.11047V4.13864C9.63323 3.8696 9.57557 3.62252 9.48772 3.39741C9.39988 3.17229 9.27908 2.98012 9.12535 2.8209C8.9771 2.66167 8.79591 2.53813 8.58178 2.45028C8.36765 2.35694 8.12057 2.31027 7.84055 2.31027H3.01433C2.72882 2.31027 2.51194 2.38439 2.3637 2.53264C2.21545 2.68089 2.14133 2.89502 2.14133 3.17504V11.9792H0V3.17504C0 2.62598 0.0988305 2.15928 0.296491 1.77494C0.499643 1.3906 0.749464 1.08038 1.04596 0.844287C1.34794 0.608192 1.67463 0.437984 2.02602 0.333663C2.37742 0.223851 2.70137 0.168945 2.99786 0.168945H7.84055C8.32372 0.168945 8.75748 0.232087 9.14182 0.35837C9.52616 0.479163 9.86383 0.643881 10.1548 0.852523C10.4513 1.05567 10.7011 1.29177 10.9043 1.56081C11.1129 1.82985 11.2831 2.11261 11.4149 2.4091C11.5522 2.7001 11.651 2.99659 11.7114 3.29858C11.7718 3.59507 11.802 3.87509 11.802 4.13864V5.11047Z" fill="white"/>
  <defs>
  <linearGradient id="paint0_linear_4214_43785" x1="48.186" y1="1.03584" x2="70.9766" y2="11.9794" gradientUnits="userSpaceOnUse">
  <stop stop-color="#2FEAA8"/>
  <stop offset="1" stop-color="#028CF3"/>
  </linearGradient>
  <linearGradient id="paint1_linear_4214_43785" x1="48.1855" y1="1.03567" x2="70.9761" y2="11.9792" gradientUnits="userSpaceOnUse">
  <stop stop-color="#2FEAA8"/>
  <stop offset="1" stop-color="#028CF3"/>
  </linearGradient>
  </defs>
  </svg>
