<svg width="132" height="16" viewBox="0 0 132 16" fill="none" xmlns="http://www.w3.org/2000/svg">
<path d="M130.484 9.42388H121.575V6.5809H130.484V9.42388ZM131.754 15.7826H121.575C121.185 15.7826 120.758 15.7139 120.295 15.5764C119.832 15.439 119.401 15.2147 119.004 14.9037C118.613 14.5854 118.284 14.1767 118.016 13.6775C117.756 13.1711 117.625 12.5526 117.625 11.822V1.64366C117.625 1.44834 117.662 1.26387 117.734 1.09025C117.806 0.916637 117.904 0.764722 118.027 0.634509C118.157 0.504296 118.309 0.403019 118.483 0.330679C118.656 0.258338 118.844 0.222168 119.047 0.222168H131.754V3.04345H120.447V11.822C120.447 12.1909 120.544 12.473 120.74 12.6684C120.935 12.8637 121.221 12.9613 121.597 12.9613H131.754V15.7826Z" fill="black"/>
<path d="M114.403 15.7827H111.56V6.51587L106.558 15.3161C106.435 15.5404 106.261 15.7104 106.037 15.8261C105.82 15.9418 105.585 15.9997 105.331 15.9997C105.085 15.9997 104.854 15.9418 104.637 15.8261C104.427 15.7104 104.261 15.5404 104.138 15.3161L99.1138 6.51587V15.7827H96.2925V1.42672C96.2925 1.10118 96.3865 0.811821 96.5746 0.55863C96.7699 0.305438 97.0231 0.135438 97.3342 0.0486289C97.4861 0.0124586 97.638 0.00160757 97.7899 0.0160757C97.9418 0.0233097 98.0865 0.055863 98.224 0.113735C98.3687 0.164374 98.4989 0.240331 98.6146 0.341608C98.7304 0.435651 98.828 0.551396 98.9076 0.688843L105.331 11.8546L111.755 0.688843C111.922 0.413949 112.15 0.218629 112.439 0.102884C112.735 -0.0128605 113.043 -0.0309457 113.361 0.0486289C113.665 0.135438 113.915 0.305438 114.11 0.55863C114.305 0.811821 114.403 1.10118 114.403 1.42672V15.7827Z" fill="black"/>
<path d="M93.5037 9.48921C93.5037 10.4369 93.341 11.3086 93.0154 12.1043C92.6899 12.9001 92.2378 13.5873 91.6591 14.166C91.0803 14.7447 90.3931 15.1969 89.5974 15.5224C88.8088 15.8407 87.948 15.9999 87.0148 15.9999H83.1952C82.262 15.9999 81.3976 15.8407 80.6018 15.5224C79.8061 15.1969 79.1188 14.7447 78.5401 14.166C77.9614 13.5873 77.5056 12.9001 77.1729 12.1043C76.8473 11.3086 76.6846 10.4369 76.6846 9.48921V6.51602C76.6846 5.57559 76.8473 4.7075 77.1729 3.91176C77.5056 3.10878 77.9614 2.42154 78.5401 1.85005C79.1188 1.27133 79.8061 0.819202 80.6018 0.493669C81.3976 0.168137 82.262 0.00537109 83.1952 0.00537109H87.0148C87.948 0.00537109 88.8088 0.168137 89.5974 0.493669C90.3931 0.819202 91.0803 1.27133 91.6591 1.85005C92.2378 2.42154 92.6899 3.10878 93.0154 3.91176C93.341 4.7075 93.5037 5.57559 93.5037 6.51602V9.48921ZM90.6825 6.51602C90.6825 5.95899 90.592 5.45623 90.4112 5.00772C90.2376 4.55197 89.988 4.16495 89.6625 3.84665C89.3442 3.52112 88.9571 3.27154 88.5014 3.09793C88.0529 2.91708 87.5573 2.82665 87.0148 2.82665H83.1952C82.6454 2.82665 82.1427 2.91708 81.6869 3.09793C81.2384 3.27154 80.8514 3.52112 80.5259 3.84665C80.2003 4.16495 79.9471 4.55197 79.7663 5.00772C79.5927 5.45623 79.5059 5.95899 79.5059 6.51602V9.48921C79.5059 10.0462 79.5927 10.5526 79.7663 11.0084C79.9471 11.4569 80.2003 11.8439 80.5259 12.1694C80.8514 12.4877 81.2384 12.7373 81.6869 12.9181C82.1427 13.0918 82.6454 13.1786 83.1952 13.1786H86.9931C87.5429 13.1786 88.042 13.0918 88.4905 12.9181C88.9463 12.7373 89.3369 12.4877 89.6625 12.1694C89.988 11.8439 90.2376 11.4569 90.4112 11.0084C90.592 10.5526 90.6825 10.0462 90.6825 9.48921V6.51602Z" fill="url(#paint0_linear_4181_636)"/>
<path d="M75.3068 3.04345H69.0891V15.7826H66.2678V3.04345H60.0393V0.222168H75.3068V3.04345Z" fill="url(#paint1_linear_4181_636)"/>
<path d="M58.3029 14.3611C58.3029 14.5637 58.2667 14.7518 58.1944 14.9254C58.122 15.099 58.0208 15.2509 57.8905 15.3811C57.7676 15.5041 57.6193 15.6018 57.4456 15.6741C57.272 15.7464 57.0839 15.7826 56.8814 15.7826H46.7031C46.4426 15.7826 46.1605 15.7537 45.8567 15.6958C45.5601 15.6307 45.2635 15.533 44.9669 15.4028C44.6775 15.2726 44.399 15.1062 44.1314 14.9037C43.8637 14.6939 43.625 14.4443 43.4152 14.155C43.2126 13.8584 43.0499 13.5184 42.9269 13.1349C42.8039 12.7443 42.7424 12.3067 42.7424 11.822V4.18281C42.7424 3.92239 42.7714 3.64387 42.8292 3.34728C42.8943 3.04345 42.992 2.74685 43.1222 2.45749C43.2524 2.16089 43.4224 1.87877 43.6322 1.61111C43.842 1.34345 44.0916 1.10834 44.3809 0.905786C44.6775 0.695998 45.0175 0.529615 45.4009 0.406636C45.7844 0.283657 46.2184 0.222168 46.7031 0.222168H58.1727V3.04345H46.7031C46.3341 3.04345 46.052 3.14111 45.8567 3.33643C45.6614 3.53175 45.5637 3.82111 45.5637 4.20451V11.822C45.5637 12.1837 45.6614 12.4658 45.8567 12.6684C46.0592 12.8637 46.3414 12.9613 46.7031 12.9613H55.4816V9.42388H47.9727V6.5809H56.8814C57.0839 6.5809 57.272 6.62069 57.4456 6.70026C57.6193 6.7726 57.7676 6.87388 57.8905 7.00409C58.0208 7.1343 58.122 7.28622 58.1944 7.45984C58.2667 7.62622 58.3029 7.80707 58.3029 8.00239V14.3611Z" fill="black"/>
<path d="M39.6609 14.578C39.6609 14.7805 39.6211 14.9686 39.5416 15.1422C39.4692 15.3158 39.3679 15.4678 39.2377 15.598C39.1148 15.7209 38.9665 15.8186 38.7928 15.8909C38.6192 15.9633 38.4348 15.9995 38.2394 15.9995C38.0658 15.9995 37.8886 15.9669 37.7077 15.9018C37.5341 15.8367 37.3786 15.7318 37.2411 15.5871L26.9326 4.82284V15.7824H24.1113V1.42646C24.1113 1.13709 24.1909 0.876669 24.3501 0.645179C24.5164 0.406455 24.7262 0.229221 24.9794 0.113476C25.2471 0.00496529 25.522 -0.0203539 25.8041 0.0375185C26.0862 0.0881569 26.3286 0.21837 26.5311 0.428157L36.8396 11.1816V0.221987H39.6609V14.578Z" fill="black"/>
<path d="M20.8125 15.7826H17.9912V0.222168H20.8125V15.7826Z" fill="black"/>
<path d="M15.5496 6.73281C15.5496 7.37665 15.47 7.95175 15.3109 8.45814C15.1517 8.96452 14.9347 9.41303 14.6598 9.80367C14.3921 10.1871 14.0811 10.5162 13.7266 10.7911C13.3721 11.066 12.9996 11.2903 12.609 11.4639C12.2255 11.6375 11.8349 11.7641 11.437 11.8437C11.0464 11.9232 10.6775 11.963 10.3302 11.963H3.94979V9.14175H10.3302C10.6919 9.11282 11.0175 9.04048 11.3068 8.92473C11.6034 8.80175 11.8566 8.63899 12.0664 8.43643C12.2762 8.23388 12.439 7.99154 12.5547 7.70941C12.6704 7.42005 12.7283 7.09452 12.7283 6.73281V5.45239C12.6921 5.09792 12.6162 4.77239 12.5004 4.47579C12.3847 4.17919 12.2255 3.926 12.023 3.71621C11.8277 3.50643 11.589 3.34366 11.3068 3.22792C11.0247 3.10494 10.6992 3.04345 10.3302 3.04345H3.97149C3.59532 3.04345 3.30958 3.14111 3.11426 3.33643C2.91894 3.53175 2.82128 3.81387 2.82128 4.18281V15.7826H0V4.18281C0 3.45941 0.130213 2.84451 0.390639 2.33813C0.658299 1.83174 0.987448 1.42302 1.37809 1.11196C1.77596 0.800892 2.20639 0.576636 2.66937 0.43919C3.13234 0.294508 3.55915 0.222168 3.94979 0.222168H10.3302C10.9668 0.222168 11.5383 0.30536 12.0447 0.471743C12.5511 0.630892 12.996 0.847913 13.3794 1.12281C13.77 1.39047 14.0992 1.70153 14.3668 2.056C14.6417 2.41047 14.866 2.78302 15.0396 3.17366C15.2204 3.55707 15.3507 3.9477 15.4302 4.34558C15.5098 4.73622 15.5496 5.10515 15.5496 5.45239V6.73281Z" fill="black"/>
<defs>
<linearGradient id="paint0_linear_4181_636" x1="63.4866" y1="1.36434" x2="93.5141" y2="15.7828" gradientUnits="userSpaceOnUse">
<stop stop-color="#2FEAA8"/>
<stop offset="1" stop-color="#028CF3"/>
</linearGradient>
<linearGradient id="paint1_linear_4181_636" x1="63.4869" y1="1.36412" x2="93.5144" y2="15.7826" gradientUnits="userSpaceOnUse">
<stop stop-color="#2FEAA8"/>
<stop offset="1" stop-color="#028CF3"/>
</linearGradient>
</defs>
</svg>
